<svg id="Ñëîé_1" data-name="Ñëîé 1" xmlns="http://www.w3.org/2000/svg" viewBox="0 0 319.19 311.27"><defs><style>.cls-1{fill:#173d7a;}.cls-2{fill:#396caa;}.cls-3{fill:#274f89;}.cls-4{fill:#6afcd7;}.cls-5{fill:#fff;}.cls-6{fill:#5793ce;}.cls-7{fill:#005076;}.cls-8{fill:#b2d3ea;}.cls-9{fill:#d4ecff;}.cls-10{fill:#c13d1a;}.cls-11{fill:#ef602e;}.cls-12{fill:#ffc2b0;}.cls-13{fill:#ea9c92;}.cls-14{fill:#63d6b3;}</style></defs><title>agencias-de-publicidade</title><path class="cls-1" d="M286.9,94.46,159.57,21a4.89,4.89,0,0,0-4.36-.59h0l-.21.09,0,0-4.15,1.95,4.51,2.24a2,2,0,0,0,0,.25l0,104.58c0,5.23,3.25,11.34,7.24,13.64l123.93,71.5.71,5.83,4.52-2.16c1.49-.87,2.44-2.85,2.44-5.67l0-104.58C294.13,102.87,290.9,96.76,286.9,94.46Z" transform="translate(-4.17 -3.81)"/><path class="cls-2" d="M286.9,94.46,159.57,21a4.89,4.89,0,0,0-4.36-.59h0l-.21.09,0,0-4.15,1.95,4.51,2.24a2,2,0,0,0,0,.25l0,68.92,57.95,45.79L292,100.08A14.3,14.3,0,0,0,286.9,94.46Z" transform="translate(-4.17 -3.81)"/><path class="cls-3" d="M289,96.1l-12.48,5.25,9.42,7.26,7.87-3.35A18.32,18.32,0,0,0,289,96.1Z" transform="translate(-4.17 -3.81)"/><path class="cls-4" d="M282.76,220,155.43,146.51c-4-2.3-7.23-8.41-7.24-13.64l0-104.58c0-5.24,3.24-7.61,7.23-5.31L282.71,96.43c4,2.31,7.23,8.42,7.24,13.65l0,104.58C290,219.9,286.75,222.27,282.76,220Z" transform="translate(-4.17 -3.81)"/><path class="cls-5" d="M278.52,212.19,159.6,143.62c-3.65-2.11-6.62-7.7-6.62-12.49l0-95.7c0-4.79,3-7,6.61-4.85L278.48,99.14c3.65,2.11,6.62,7.7,6.62,12.49l0,95.7C285.14,212.12,282.18,214.3,278.52,212.19Z" transform="translate(-4.17 -3.81)"/><path class="cls-5" d="M278.52,212.19,159.6,143.62c-3.65-2.11-6.62-7.7-6.62-12.49l0-95.7c0-4.79,3-7,6.61-4.85L278.48,99.14c3.65,2.11,6.62,7.7,6.62,12.49l0,95.7C285.14,212.12,282.18,214.3,278.52,212.19Z" transform="translate(-4.17 -3.81)"/><path class="cls-1" d="M284.66,223.21,267.54,221,157,157.14c-3.55-2-9.74-1.79-13.83.57l-78.32,45.2-10.35-1.36v5.87h0a4,4,0,0,0,2.38,3.63l125.26,72.32c3.54,2.05,9.73,1.79,13.82-.57l85.3-49.23c2.3-1.33,3.45-3,3.38-4.65h0Z" transform="translate(-4.17 -3.81)"/><path class="cls-2" d="M201.61,182.89l-7.85-4.53H107.42L64.86,202.91l-10.35-1.36v5.87h0a4,4,0,0,0,2.38,3.63l125.26,72.32a13,13,0,0,0,7.13,1.34Z" transform="translate(-4.17 -3.81)"/><path class="cls-6" d="M59.1,202.15l-4.59-.6v5.87h0a4,4,0,0,0,2.38,3.63l2.2,1.28Z" transform="translate(-4.17 -3.81)"/><path class="cls-3" d="M183.42,284a16.1,16.1,0,0,0,11.75-.73v-13.1H183.42Z" transform="translate(-4.17 -3.81)"/><path class="cls-4" d="M182.16,277.5,56.9,205.18c-3.55-2-3.1-5.61,1-8L143.18,148c4.09-2.36,10.28-2.61,13.83-.57l125.26,72.32c3.54,2.05,3.1,5.62-1,8L196,276.93C191.89,279.29,185.7,279.55,182.16,277.5Z" transform="translate(-4.17 -3.81)"/><path class="cls-5" d="M281.28,225.56,196,274.79c-4.09,2.36-10.28,2.61-13.82.57L56.9,203a4.67,4.67,0,0,1-2.21-2.41c-.55,1.68.16,3.37,2.21,4.55L182.16,277.5c3.54,2.05,9.73,1.79,13.82-.57l85.3-49.23c2.75-1.58,3.84-3.72,3.19-5.57A6.67,6.67,0,0,1,281.28,225.56Z" transform="translate(-4.17 -3.81)"/><path class="cls-7" d="M110.17,181.24,104.5,178c-.45-.26-.39-.72.13-1l6.69-3.87a2,2,0,0,1,1.78-.07l5.66,3.27c.46.26.4.72-.12,1L112,181.17A2,2,0,0,1,110.17,181.24Z" transform="translate(-4.17 -3.81)"/><path class="cls-7" d="M118.92,186.3,113.26,183c-.46-.26-.4-.72.12-1l6.69-3.86a2,2,0,0,1,1.78-.08l5.67,3.27c.45.27.39.73-.13,1l-6.69,3.86A2,2,0,0,1,118.92,186.3Z" transform="translate(-4.17 -3.81)"/><path class="cls-7" d="M127.68,191.35,122,188.08c-.46-.27-.4-.73.13-1l6.69-3.86a2,2,0,0,1,1.77-.07l5.67,3.27c.45.26.4.72-.13,1l-6.69,3.87A2,2,0,0,1,127.68,191.35Z" transform="translate(-4.17 -3.81)"/><path class="cls-7" d="M139.78,187.18l-5.67-3.28c-.45-.26-.39-.72.13-1l5.62-3.24a2,2,0,0,1,1.77-.08l5.67,3.27c.45.27.4.73-.13,1l-5.61,3.24A2,2,0,0,1,139.78,187.18Z" transform="translate(-4.17 -3.81)"/><path class="cls-7" d="M148.53,192.23,142.87,189c-.46-.27-.4-.72.12-1l5.62-3.24a2,2,0,0,1,1.77-.07l5.67,3.27c.46.26.4.72-.13,1l-5.61,3.25A2,2,0,0,1,148.53,192.23Z" transform="translate(-4.17 -3.81)"/><path class="cls-7" d="M157.29,197.28,151.62,194c-.46-.26-.4-.72.13-1l5.61-3.24a2,2,0,0,1,1.78-.07l5.66,3.27c.46.26.4.72-.12,1l-5.62,3.24A2,2,0,0,1,157.29,197.28Z" transform="translate(-4.17 -3.81)"/><path class="cls-7" d="M166,202.34l-5.67-3.28c-.45-.26-.4-.72.13-1l5.61-3.24a2,2,0,0,1,1.78-.08l5.67,3.27c.45.27.4.73-.13,1l-5.62,3.24A2,2,0,0,1,166,202.34Z" transform="translate(-4.17 -3.81)"/><path class="cls-7" d="M174.79,207.39l-5.67-3.27c-.45-.27-.39-.73.13-1l5.62-3.24a2,2,0,0,1,1.77-.07l5.67,3.27c.45.26.4.72-.13,1l-5.61,3.24A2,2,0,0,1,174.79,207.39Z" transform="translate(-4.17 -3.81)"/><path class="cls-7" d="M183.54,212.44l-5.66-3.27c-.46-.26-.4-.72.12-1l5.62-3.24a2,2,0,0,1,1.77-.07l5.67,3.27c.46.26.4.72-.13,1l-5.61,3.24A2,2,0,0,1,183.54,212.44Z" transform="translate(-4.17 -3.81)"/><path class="cls-7" d="M192.3,217.5l-5.67-3.28c-.46-.26-.4-.72.13-1l5.61-3.24a2,2,0,0,1,1.78-.08l5.66,3.27c.46.27.4.73-.12,1l-5.62,3.24A2,2,0,0,1,192.3,217.5Z" transform="translate(-4.17 -3.81)"/><path class="cls-7" d="M201.05,222.55l-5.67-3.27c-.45-.27-.4-.73.13-1l5.61-3.24a2,2,0,0,1,1.78-.07l5.67,3.27c.45.26.39.72-.13,1l-5.62,3.24A2,2,0,0,1,201.05,222.55Z" transform="translate(-4.17 -3.81)"/><path class="cls-7" d="M209.8,227.6l-5.67-3.27c-.45-.26-.39-.72.13-1l5.62-3.24a2,2,0,0,1,1.77-.07l5.67,3.27c.45.26.4.72-.13,1l-5.61,3.24A2,2,0,0,1,209.8,227.6Z" transform="translate(-4.17 -3.81)"/><path class="cls-7" d="M218.55,232.65l-5.66-3.27c-.46-.26-.4-.72.12-1l5.62-3.24a2,2,0,0,1,1.77-.08l5.67,3.27c.46.27.4.73-.13,1l-5.61,3.24A2,2,0,0,1,218.55,232.65Z" transform="translate(-4.17 -3.81)"/><path class="cls-7" d="M152.68,184.78,147,181.51c-.46-.26-.4-.72.13-1l5.61-3.25a2,2,0,0,1,1.78-.07l5.67,3.27c.45.27.39.72-.13,1l-5.62,3.24A2,2,0,0,1,152.68,184.78Z" transform="translate(-4.17 -3.81)"/><path class="cls-7" d="M143.79,179.65l-5.66-3.27c-.46-.26-.4-.72.12-1l5.62-3.24a2,2,0,0,1,1.78-.08l5.66,3.27c.46.27.4.73-.12,1l-5.62,3.24A2,2,0,0,1,143.79,179.65Z" transform="translate(-4.17 -3.81)"/><path class="cls-7" d="M134.9,174.52l-12.21-7.05c-.45-.26-.4-.72.13-1l5.61-3.25a2,2,0,0,1,1.78-.07l12.21,7.05c.45.26.39.72-.13,1l-5.62,3.24A2,2,0,0,1,134.9,174.52Z" transform="translate(-4.17 -3.81)"/><path class="cls-7" d="M141.12,168.27l-9.91-5.72c-.45-.26-.4-.72.13-1l5.61-3.25a2,2,0,0,1,1.78-.07l9.9,5.72c.46.26.4.72-.12,1l-5.62,3.25A2,2,0,0,1,141.12,168.27Z" transform="translate(-4.17 -3.81)"/><path class="cls-7" d="M161.43,189.84l-5.67-3.28c-.45-.26-.4-.72.13-1l5.62-3.24a2,2,0,0,1,1.77-.08L169,185.5c.45.26.4.72-.13,1l-5.61,3.24A2,2,0,0,1,161.43,189.84Z" transform="translate(-4.17 -3.81)"/><path class="cls-7" d="M170.18,194.89l-5.67-3.27c-.45-.27-.39-.72.13-1l5.62-3.24a2,2,0,0,1,1.77-.07l5.67,3.27c.46.26.4.72-.13,1L172,194.82A2,2,0,0,1,170.18,194.89Z" transform="translate(-4.17 -3.81)"/><path class="cls-7" d="M178.93,199.94l-5.66-3.27c-.46-.26-.4-.72.12-1L179,192.4a2,2,0,0,1,1.78-.07l5.66,3.27c.46.26.4.72-.12,1l-5.62,3.24A2,2,0,0,1,178.93,199.94Z" transform="translate(-4.17 -3.81)"/><path class="cls-7" d="M187.69,205,182,201.72c-.46-.26-.4-.72.13-1l5.61-3.24a2,2,0,0,1,1.78-.08l5.67,3.28c.45.26.39.72-.13,1l-5.62,3.24A2,2,0,0,1,187.69,205Z" transform="translate(-4.17 -3.81)"/><path class="cls-7" d="M196.44,210.05l-5.67-3.27c-.45-.27-.4-.72.13-1l5.62-3.24a2,2,0,0,1,1.77-.07l5.67,3.27c.45.26.4.72-.13,1L198.22,210A2,2,0,0,1,196.44,210.05Z" transform="translate(-4.17 -3.81)"/><path class="cls-7" d="M205.19,215.1l-5.67-3.27c-.45-.26-.39-.72.13-1l5.62-3.25a2,2,0,0,1,1.77-.07l5.67,3.27c.46.26.4.72-.13,1L207,215A2,2,0,0,1,205.19,215.1Z" transform="translate(-4.17 -3.81)"/><path class="cls-7" d="M213.94,220.16l-5.66-3.28c-.46-.26-.4-.72.12-1l5.62-3.24a2,2,0,0,1,1.78-.08l5.66,3.28c.46.26.4.72-.12,1l-5.62,3.24A2,2,0,0,1,213.94,220.16Z" transform="translate(-4.17 -3.81)"/><path class="cls-7" d="M222.7,225.21,217,221.94c-.46-.27-.4-.72.13-1l5.61-3.24a2,2,0,0,1,1.78-.07l5.67,3.27c.45.26.39.72-.13,1l-5.62,3.25A2,2,0,0,1,222.7,225.21Z" transform="translate(-4.17 -3.81)"/><path class="cls-7" d="M231.45,230.26,225.78,227c-.45-.26-.4-.72.13-1l5.62-3.25a2,2,0,0,1,1.77-.07l5.67,3.27c.45.26.4.72-.13,1l-5.62,3.24A2,2,0,0,1,231.45,230.26Z" transform="translate(-4.17 -3.81)"/><path class="cls-7" d="M247,239.25l-12.37-7.14c-.45-.27-.39-.73.13-1l5.62-3.24a2,2,0,0,1,1.77-.07l12.37,7.14c.45.26.4.72-.13,1l-5.62,3.24A2,2,0,0,1,247,239.25Z" transform="translate(-4.17 -3.81)"/><path class="cls-7" d="M264.05,229.41l-10.44-6c-.45-.26-.4-.72.13-1l5.61-3.25a2,2,0,0,1,1.78-.07l10.44,6c.45.26.4.72-.13,1l-5.62,3.24A2,2,0,0,1,264.05,229.41Z" transform="translate(-4.17 -3.81)"/><path class="cls-7" d="M176.76,188.85l-5.67-3.27c-.46-.27-.4-.73.13-1l5.61-3.24a2,2,0,0,1,1.78-.08l5.67,3.28c.45.26.39.72-.13,1l-5.62,3.24A2,2,0,0,1,176.76,188.85Z" transform="translate(-4.17 -3.81)"/><path class="cls-7" d="M167.79,183.67l-5.67-3.27c-.46-.27-.4-.72.13-1l5.61-3.24a2,2,0,0,1,1.78-.07l5.67,3.27c.45.26.39.72-.13,1l-5.62,3.25A2,2,0,0,1,167.79,183.67Z" transform="translate(-4.17 -3.81)"/><path class="cls-7" d="M158.82,178.49l-5.67-3.27c-.46-.26-.4-.72.13-1l5.61-3.24a2,2,0,0,1,1.78-.07l5.67,3.27c.45.26.39.72-.13,1l-5.62,3.25A2,2,0,0,1,158.82,178.49Z" transform="translate(-4.17 -3.81)"/><path class="cls-7" d="M149.85,173.31,144.18,170c-.46-.26-.4-.72.13-1l5.61-3.24a2,2,0,0,1,1.78-.07l5.67,3.27c.45.26.39.72-.13,1l-5.62,3.24A2,2,0,0,1,149.85,173.31Z" transform="translate(-4.17 -3.81)"/><path class="cls-7" d="M185.51,193.9l-5.67-3.27c-.45-.26-.4-.72.13-1l5.62-3.24a2,2,0,0,1,1.77-.07l5.67,3.27c.45.26.4.72-.13,1l-5.61,3.24A2,2,0,0,1,185.51,193.9Z" transform="translate(-4.17 -3.81)"/><path class="cls-7" d="M194.26,199l-5.67-3.27c-.45-.26-.39-.72.13-1l5.62-3.25a2,2,0,0,1,1.77-.07l5.67,3.27c.46.27.4.73-.13,1L196,198.88A2,2,0,0,1,194.26,199Z" transform="translate(-4.17 -3.81)"/><path class="cls-7" d="M203,204l-5.66-3.27c-.46-.27-.4-.73.12-1l5.62-3.24a2,2,0,0,1,1.78-.08l5.66,3.28c.46.26.4.72-.12,1l-5.62,3.24A2,2,0,0,1,203,204Z" transform="translate(-4.17 -3.81)"/><path class="cls-7" d="M211.77,209.06l-5.67-3.27c-.46-.26-.4-.72.13-1l5.61-3.24a2,2,0,0,1,1.78-.07l5.67,3.27c.45.26.39.72-.13,1L213.54,209A2,2,0,0,1,211.77,209.06Z" transform="translate(-4.17 -3.81)"/><path class="cls-7" d="M220.52,214.11l-5.67-3.27c-.45-.26-.4-.72.13-1l5.62-3.25a2,2,0,0,1,1.77-.07l5.67,3.27c.45.27.4.72-.13,1L222.3,214A2,2,0,0,1,220.52,214.11Z" transform="translate(-4.17 -3.81)"/><path class="cls-7" d="M229.27,219.17l-5.67-3.27c-.45-.27-.39-.73.13-1l5.62-3.24a2,2,0,0,1,1.77-.08l5.67,3.28c.46.26.4.72-.13,1l-5.61,3.24A2,2,0,0,1,229.27,219.17Z" transform="translate(-4.17 -3.81)"/><path class="cls-7" d="M238,224.22,232.36,221c-.46-.26-.4-.72.12-1l5.62-3.24a2,2,0,0,1,1.78-.07l5.66,3.27c.46.26.4.72-.12,1l-5.62,3.25A2,2,0,0,1,238,224.22Z" transform="translate(-4.17 -3.81)"/><path class="cls-7" d="M246.78,229.27,241.11,226c-.46-.26-.4-.72.13-1l5.61-3.25a2,2,0,0,1,1.78-.07l5.67,3.27c.45.27.39.72-.13,1l-5.62,3.24A2,2,0,0,1,246.78,229.27Z" transform="translate(-4.17 -3.81)"/><path class="cls-7" d="M255.53,234.33l-5.67-3.28c-.45-.26-.4-.72.13-1l5.61-3.24a2,2,0,0,1,1.78-.08l5.67,3.28c.45.26.4.72-.13,1l-5.62,3.24A2,2,0,0,1,255.53,234.33Z" transform="translate(-4.17 -3.81)"/><path class="cls-7" d="M172.15,176.35l-5.67-3.27c-.45-.27-.4-.72.13-1l5.61-3.24a2,2,0,0,1,1.78-.07l5.67,3.27c.45.26.4.72-.13,1l-5.62,3.25A2,2,0,0,1,172.15,176.35Z" transform="translate(-4.17 -3.81)"/><path class="cls-7" d="M163.44,171.32l-5.67-3.27c-.45-.26-.4-.72.13-1l5.62-3.24a2,2,0,0,1,1.77-.07L171,167c.45.26.4.72-.13,1l-5.61,3.24A2,2,0,0,1,163.44,171.32Z" transform="translate(-4.17 -3.81)"/><path class="cls-7" d="M154.73,166.29,149.06,163c-.45-.26-.39-.72.13-1l5.62-3.25a2,2,0,0,1,1.77-.07l5.67,3.27c.45.26.4.72-.13,1l-5.61,3.24A2,2,0,0,1,154.73,166.29Z" transform="translate(-4.17 -3.81)"/><path class="cls-7" d="M146,161.26,140.35,158c-.45-.26-.39-.72.13-1l5.62-3.24a2,2,0,0,1,1.77-.08l5.67,3.27c.46.27.4.73-.13,1l-5.61,3.24A2,2,0,0,1,146,161.26Z" transform="translate(-4.17 -3.81)"/><path class="cls-7" d="M155,156.09l-5.67-3.27c-.46-.26-.4-.72.13-1l1.85-1.07a2,2,0,0,1,1.78-.08l5.67,3.27c.45.27.39.73-.13,1L156.75,156A2,2,0,0,1,155,156.09Z" transform="translate(-4.17 -3.81)"/><path class="cls-7" d="M166.34,162.66l-5.67-3.28c-.45-.26-.39-.72.13-1l1.86-1.07a2,2,0,0,1,1.77-.08l5.67,3.28c.46.26.4.72-.13,1l-1.85,1.07A2,2,0,0,1,166.34,162.66Z" transform="translate(-4.17 -3.81)"/><path class="cls-7" d="M175,167.66l-5.67-3.27c-.46-.26-.4-.72.12-1l1.86-1.08a2,2,0,0,1,1.78-.07l5.66,3.27c.46.27.4.72-.12,1l-1.86,1.07A2,2,0,0,1,175,167.66Z" transform="translate(-4.17 -3.81)"/><path class="cls-7" d="M183.69,172.67,178,169.4c-.45-.26-.4-.72.13-1L180,167.3a2,2,0,0,1,1.78-.07l5.67,3.27c.45.26.39.72-.13,1l-1.86,1.08A2,2,0,0,1,183.69,172.67Z" transform="translate(-4.17 -3.81)"/><path class="cls-7" d="M192.36,177.68l-5.67-3.27c-.45-.27-.4-.73.13-1l1.86-1.07a2,2,0,0,1,1.77-.08l5.67,3.28c.45.26.4.72-.13,1l-1.85,1.07A2,2,0,0,1,192.36,177.68Z" transform="translate(-4.17 -3.81)"/><path class="cls-7" d="M240.78,205.63l-5.67-3.27c-.45-.26-.4-.72.13-1l1.85-1.07a2,2,0,0,1,1.78-.07l5.67,3.27c.45.26.4.72-.13,1l-1.86,1.07A2,2,0,0,1,240.78,205.63Z" transform="translate(-4.17 -3.81)"/><path class="cls-7" d="M249.45,210.64l-5.67-3.27c-.45-.27-.39-.73.13-1l1.86-1.07a2,2,0,0,1,1.77-.07l5.67,3.27c.46.26.4.72-.13,1l-1.85,1.07A2,2,0,0,1,249.45,210.64Z" transform="translate(-4.17 -3.81)"/><path class="cls-7" d="M258.12,215.65l-5.66-3.28c-.46-.26-.4-.72.12-1l1.86-1.07a2,2,0,0,1,1.78-.08l5.66,3.28c.46.26.4.72-.12,1l-1.86,1.07A2,2,0,0,1,258.12,215.65Z" transform="translate(-4.17 -3.81)"/><path class="cls-7" d="M266.8,220.65l-5.67-3.27c-.46-.26-.4-.72.13-1l1.85-1.08a2,2,0,0,1,1.78-.07l5.67,3.27c.45.27.39.72-.13,1l-1.86,1.07A2,2,0,0,1,266.8,220.65Z" transform="translate(-4.17 -3.81)"/><path class="cls-7" d="M180.9,181.4l-5.67-3.27c-.45-.26-.39-.72.13-1l5.62-3.24a2,2,0,0,1,1.77-.07l5.67,3.27c.45.26.4.72-.13,1l-5.61,3.24A2,2,0,0,1,180.9,181.4Z" transform="translate(-4.17 -3.81)"/><path class="cls-7" d="M189.65,186.46,184,183.18c-.46-.26-.4-.72.12-1l5.62-3.24a2,2,0,0,1,1.77-.08l5.67,3.27c.46.27.4.73-.13,1l-5.61,3.24A2,2,0,0,1,189.65,186.46Z" transform="translate(-4.17 -3.81)"/><path class="cls-7" d="M198.41,191.51l-5.67-3.27c-.46-.27-.4-.73.13-1l5.61-3.24a2,2,0,0,1,1.78-.07l5.66,3.27c.46.26.4.72-.12,1l-5.62,3.25A2,2,0,0,1,198.41,191.51Z" transform="translate(-4.17 -3.81)"/><path class="cls-7" d="M207.16,196.56l-5.67-3.27c-.45-.26-.4-.72.13-1l5.61-3.24A2,2,0,0,1,209,189l5.67,3.27c.45.26.39.72-.13,1l-5.62,3.24A2,2,0,0,1,207.16,196.56Z" transform="translate(-4.17 -3.81)"/><path class="cls-7" d="M215.91,201.62l-5.67-3.28c-.45-.26-.39-.72.13-1l5.62-3.24a2,2,0,0,1,1.77-.08l5.67,3.27c.45.27.4.73-.13,1l-5.61,3.24A2,2,0,0,1,215.91,201.62Z" transform="translate(-4.17 -3.81)"/><path class="cls-7" d="M224.66,206.67,219,203.4c-.46-.27-.4-.73.12-1l5.62-3.24a2,2,0,0,1,1.77-.07l5.67,3.27c.46.26.4.72-.13,1l-5.61,3.24A2,2,0,0,1,224.66,206.67Z" transform="translate(-4.17 -3.81)"/><path class="cls-7" d="M233.42,211.72l-5.67-3.27c-.46-.26-.4-.72.13-1l5.61-3.24a2,2,0,0,1,1.78-.07l5.66,3.27c.46.26.4.72-.12,1l-5.62,3.24A2,2,0,0,1,233.42,211.72Z" transform="translate(-4.17 -3.81)"/><path class="cls-7" d="M242.17,216.77l-5.67-3.27c-.45-.26-.4-.72.13-1l5.61-3.24a2,2,0,0,1,1.78-.08l5.67,3.27c.45.27.39.73-.13,1l-5.62,3.24A2,2,0,0,1,242.17,216.77Z" transform="translate(-4.17 -3.81)"/><path class="cls-7" d="M250.92,221.83l-5.67-3.27c-.45-.27-.39-.73.13-1l5.62-3.24a2,2,0,0,1,1.77-.07l5.67,3.27c.45.26.4.72-.13,1l-5.61,3.24A2,2,0,0,1,250.92,221.83Z" transform="translate(-4.17 -3.81)"/><path class="cls-7" d="M130.86,182l-16.69-9.64c-.45-.26-.4-.72.13-1l5.61-3.24a2,2,0,0,1,1.78-.07l16.69,9.64c.46.26.4.72-.13,1L132.64,182A2,2,0,0,1,130.86,182Z" transform="translate(-4.17 -3.81)"/><path class="cls-7" d="M238.39,244.11l-16.69-9.64c-.46-.26-.4-.72.12-1l5.62-3.24a2,2,0,0,1,1.77-.07l16.7,9.64c.45.26.39.72-.13,1L240.16,244A2,2,0,0,1,238.39,244.11Z" transform="translate(-4.17 -3.81)"/><path class="cls-7" d="M203.39,235.06l-5.67-3.27c-.46-.27-.4-.72.13-1l6.69-3.86a2,2,0,0,1,1.77-.07L212,230.1c.45.26.4.72-.13,1L205.16,235A2,2,0,0,1,203.39,235.06Z" transform="translate(-4.17 -3.81)"/><path class="cls-7" d="M139.83,198.36l-9.07-5.23c-.45-.26-.4-.72.13-1l6.69-3.86a2,2,0,0,1,1.77-.07l9.07,5.23c.45.26.4.72-.13,1l-6.69,3.86A2,2,0,0,1,139.83,198.36Z" transform="translate(-4.17 -3.81)"/><path class="cls-7" d="M195,230.19,185.89,225c-.46-.27-.4-.72.13-1l6.69-3.86a2,2,0,0,1,1.77-.07l9.07,5.23c.45.26.39.72-.13,1l-6.69,3.87A2,2,0,0,1,195,230.19Z" transform="translate(-4.17 -3.81)"/><path class="cls-7" d="M152.45,205.65l-9.06-5.23c-.46-.26-.4-.72.13-1l6.69-3.87a2,2,0,0,1,1.77-.07l9.07,5.23c.45.27.39.72-.13,1l-6.69,3.86A2,2,0,0,1,152.45,205.65Z" transform="translate(-4.17 -3.81)"/><path class="cls-7" d="M152,195.5l39.41,22.75a.54.54,0,0,1,0,1l-6.82,3.94a2,2,0,0,1-1.77,0l-39.41-22.75Z" transform="translate(-4.17 -3.81)"/><path class="cls-7" d="M227.85,244.22l6.31,3.65c.37.21.33.59-.1.84l-2.74,1.58a1.64,1.64,0,0,1-1.46.06l-6.31-3.65c-.37-.21-.33-.59.11-.84l2.73-1.58A1.64,1.64,0,0,1,227.85,244.22Z" transform="translate(-4.17 -3.81)"/><path class="cls-7" d="M219,239.13l6.32,3.64c.37.22.32.59-.11.84l-2.74,1.58a1.59,1.59,0,0,1-1.45.06l-6.31-3.64c-.38-.22-.33-.59.1-.84l2.74-1.58A1.59,1.59,0,0,1,219,239.13Z" transform="translate(-4.17 -3.81)"/><path class="cls-7" d="M210.27,234.07l6.31,3.65c.38.21.33.59-.1.84l-2.74,1.58a1.62,1.62,0,0,1-1.45.06L206,236.55c-.37-.21-.32-.59.11-.84l2.73-1.58A1.67,1.67,0,0,1,210.27,234.07Z" transform="translate(-4.17 -3.81)"/><path class="cls-7" d="M223.86,236.34l6.31,3.64c.37.22.32.59-.11.84l-2.73,1.58a1.61,1.61,0,0,1-1.46.06l-6.31-3.64c-.37-.22-.33-.59.1-.84l2.74-1.58A1.61,1.61,0,0,1,223.86,236.34Z" transform="translate(-4.17 -3.81)"/><path class="cls-4" d="M211,117.89l-41.55-24a4.43,4.43,0,0,1-1.85-3.53V57.67c0-1.36.83-2,1.85-1.39l41.55,24a4.43,4.43,0,0,1,1.85,3.53v32.69C212.8,117.85,212,118.48,211,117.89Z" transform="translate(-4.17 -3.81)"/><path class="cls-8" d="M182,95.81l-.3-.17a4.69,4.69,0,0,1-2-3.75V76.31c0-1.44.88-2.1,2-1.48l.3.17a4.71,4.71,0,0,1,2,3.75V94.33C183.93,95.77,183.05,96.43,182,95.81Z" transform="translate(-4.17 -3.81)"/><path class="cls-8" d="M190.32,100.63l-.29-.16a4.72,4.72,0,0,1-2-3.75V87.6c0-1.44.88-2.11,2-1.48l.29.17a4.66,4.66,0,0,1,2,3.74v9.12C192.28,100.6,191.41,101.26,190.32,100.63Z" transform="translate(-4.17 -3.81)"/><path class="cls-2" d="M198.68,105.46l-.29-.17a4.67,4.67,0,0,1-2-3.75V79.84c0-1.45.87-2.11,2-1.48l.29.16a4.72,4.72,0,0,1,2,3.75V104C200.64,105.42,199.76,106.08,198.68,105.46Z" transform="translate(-4.17 -3.81)"/><path class="cls-8" d="M250.57,109.1,224.75,94.19A4.16,4.16,0,0,1,223,90.88h0c0-1.27.78-1.86,1.73-1.31l25.82,14.91a4.13,4.13,0,0,1,1.73,3.31h0C252.3,109.06,251.53,109.65,250.57,109.1Z" transform="translate(-4.17 -3.81)"/><path class="cls-8" d="M234,108.59l-9.21-5.32A4.16,4.16,0,0,1,223,100h0c0-1.28.78-1.86,1.73-1.31L234,104a4.14,4.14,0,0,1,1.74,3.31h0C235.7,108.55,234.92,109.14,234,108.59Z" transform="translate(-4.17 -3.81)"/><path class="cls-2" d="M249.42,117.51l-9.21-5.32a4.14,4.14,0,0,1-1.74-3.31h0c0-1.27.78-1.86,1.74-1.31l9.21,5.32a4.16,4.16,0,0,1,1.73,3.31h0C251.15,117.48,250.37,118.06,249.42,117.51Z" transform="translate(-4.17 -3.81)"/><path class="cls-8" d="M268.84,128.76l-13.18-7.64a4.19,4.19,0,0,1-1.73-3.31h0c0-1.28.78-1.87,1.73-1.31l13.18,7.64a4.16,4.16,0,0,1,1.73,3.31h0C270.57,128.72,269.79,129.31,268.84,128.76Z" transform="translate(-4.17 -3.81)"/><path class="cls-8" d="M257,131l-32.26-18.62A4.16,4.16,0,0,1,223,109h0c0-1.28.78-1.86,1.73-1.31L257,126.35a4.14,4.14,0,0,1,1.73,3.31h0C258.74,130.94,258,131.53,257,131Z" transform="translate(-4.17 -3.81)"/><path class="cls-2" d="M270.57,147.78l-45.82-26.35a4.17,4.17,0,0,1-1.73-3.31h0c0-1.28.78-1.86,1.73-1.31l45.82,26.35a4.13,4.13,0,0,1,1.73,3.31h0C272.3,147.74,271.53,148.33,270.57,147.78Z" transform="translate(-4.17 -3.81)"/><path class="cls-8" d="M274.44,122.84l-16.74-9.63A4.14,4.14,0,0,1,256,109.9h0c0-1.28.78-1.86,1.74-1.31l16.74,9.63a4.15,4.15,0,0,1,1.74,3.31h0C276.18,122.81,275.4,123.39,274.44,122.84Z" transform="translate(-4.17 -3.81)"/><polygon class="cls-2" points="171.42 119.72 163.27 115.02 163.27 124.43 171.42 129.13 171.42 119.72"/><polygon class="cls-9" points="184.3 119.38 176.15 114.68 176.15 131.86 184.3 136.57 184.3 119.38"/><polygon class="cls-9" points="197.17 131.73 189.02 127.02 189.02 139.3 197.17 144 197.17 131.73"/><polygon class="cls-9" points="210.05 135.62 201.9 130.91 201.9 146.73 210.05 151.44 210.05 135.62"/><polygon class="cls-2" points="222.92 144 214.77 139.3 214.77 154.16 222.92 158.87 222.92 144"/><polygon class="cls-1" points="235.8 147.69 227.65 142.99 227.65 161.6 235.8 166.3 235.8 147.69"/><polygon class="cls-9" points="248.67 153.14 240.52 148.44 240.52 169.03 248.67 173.74 248.67 153.14"/><polygon class="cls-2" points="261.55 155.55 253.4 150.85 253.4 176.46 261.55 181.17 261.55 155.55"/><rect class="cls-4" x="317.37" y="119.17" width="5.35" height="1.84" transform="translate(-23.97 79.39) rotate(-14.37)"/><rect class="cls-4" x="314.73" y="121.75" width="5.35" height="1.84" transform="translate(-24.69 78.82) rotate(-14.37)"/><rect class="cls-4" x="312.08" y="124.33" width="5.35" height="1.84" transform="translate(-25.42 78.24) rotate(-14.37)"/><rect class="cls-4" x="309.44" y="126.91" width="5.35" height="1.84" transform="translate(-26.14 77.68) rotate(-14.38)"/><polygon class="cls-3" points="192.11 245.38 175.69 235.9 159.26 245.38 175.69 254.86 192.11 245.38"/><polygon class="cls-3" points="157.88 226.22 141.46 216.74 125.03 226.22 141.46 235.71 157.88 226.22"/><polygon class="cls-3" points="123.12 206.31 106.7 196.83 90.28 206.31 106.7 215.79 123.12 206.31"/><polygon class="cls-10" points="141.46 226.22 141.46 175.65 157.88 166.17 157.88 216.74 141.46 226.22"/><polygon class="cls-11" points="157.88 166.17 141.46 156.69 125.03 166.17 141.46 175.65 157.88 166.17"/><polygon class="cls-6" points="141.46 175.65 125.03 166.17 125.03 216.74 141.46 226.22 141.46 175.65"/><polygon class="cls-2" points="141.46 226.22 141.46 175.65 157.88 166.17 157.88 216.74 141.46 226.22"/><polygon class="cls-9" points="157.88 166.17 141.46 156.69 125.03 166.17 141.46 175.65 157.88 166.17"/><polygon class="cls-1" points="176.32 246.62 176.32 218.17 192.74 208.69 192.74 237.14 176.32 246.62"/><polygon class="cls-2" points="176.32 218.17 159.9 208.69 159.9 237.14 176.32 246.62 176.32 218.17"/><polygon class="cls-9" points="192.74 208.69 176.32 199.21 159.9 208.69 176.32 218.17 192.74 208.69"/><polygon class="cls-9" points="106.7 206.31 106.7 136.78 123.12 127.29 123.12 196.83 106.7 206.31"/><polygon class="cls-2" points="106.7 136.78 90.28 127.29 90.28 196.83 106.7 206.31 106.7 136.78"/><polygon class="cls-6" points="123.12 127.29 106.7 117.81 90.28 127.29 106.7 136.78 123.12 127.29"/><path class="cls-6" d="M101.09,170.42s-2.71-1.37-4.38.67-4,6.84-4.12,10.09,2.58,3,4.15,2.26,6.16-7.43,6.44-8.74a4.51,4.51,0,0,0-.77-3.41A15.47,15.47,0,0,0,101.09,170.42Z" transform="translate(-4.17 -3.81)"/><path class="cls-9" d="M101.68,169.76l.13,2.81A1.6,1.6,0,0,1,101,174a3.21,3.21,0,0,1-2.1.32c-2-.33-2.22-.91-2.37-3.72S101.68,169.76,101.68,169.76Z" transform="translate(-4.17 -3.81)"/><path class="cls-6" d="M91.17,165s-2.72-1.37-4.38.66-4.05,6.85-4.12,10.1,2.57,3,4.14,2.26,6.16-7.43,6.44-8.74a4.51,4.51,0,0,0-.77-3.41C92,165.54,91.17,165,91.17,165Z" transform="translate(-4.17 -3.81)"/><path class="cls-9" d="M91.76,164.36l.12,2.81a1.57,1.57,0,0,1-.79,1.46A3.12,3.12,0,0,1,89,169c-2-.33-2.23-.91-2.37-3.72S91.76,164.36,91.76,164.36Z" transform="translate(-4.17 -3.81)"/><path class="cls-1" d="M116,112.78c-.8-13.06-14.14,1.92-14.14,1.92l-9.13,9-8.22,9a8.1,8.1,0,0,0-2,6.51l3.32,25.33a2.5,2.5,0,0,0,2.5,2.16,8.42,8.42,0,0,0,1.23-.1,3.1,3.1,0,0,0,2.75-3.29l-.61-23.69,17.27-10.4S116.76,125.84,116,112.78Z" transform="translate(-4.17 -3.81)"/><path class="cls-1" d="M125.88,117.76c-.8-13.06-14.14,1.92-14.14,1.92l-9.13,8.95-8.22,9a8.09,8.09,0,0,0-2,6.51l3.33,25.33a2.48,2.48,0,0,0,2.5,2.16,8.57,8.57,0,0,0,1.23-.11,3.1,3.1,0,0,0,2.75-3.28l-.61-23.69,17.26-10.41S126.68,130.82,125.88,117.76Z" transform="translate(-4.17 -3.81)"/><path class="cls-6" d="M118,75.83C128.1,80,127.9,86,127.9,86s-2,21.91-1.3,36.55c.28,6.12-32.52,6.59-27.63-9.74,5.77-19.25,3.61-34.83,6.31-37.18S115.37,74.75,118,75.83Z" transform="translate(-4.17 -3.81)"/><path class="cls-12" d="M121.24,81.14c-.53,2-3.22,3.13-6,2.41s-4.62-3-4.09-5,3.22-3.13,6-2.41S121.77,79.08,121.24,81.14Z" transform="translate(-4.17 -3.81)"/><path class="cls-5" d="M116.94,84.26a7.36,7.36,0,0,1-1.83-.24c-3-.78-5-3.3-4.44-5.61s3.55-3.55,6.6-2.76a6.71,6.71,0,0,1,3.55,2.17,3.86,3.86,0,0,1,.89,3.44C121.24,83.1,119.26,84.26,116.94,84.26Zm-1.52-7.88c-1.88,0-3.45.87-3.81,2.27-.46,1.8,1.22,3.78,3.74,4.44s5-.28,5.43-2.07a3,3,0,0,0-.71-2.59,5.82,5.82,0,0,0-3-1.85A6.51,6.51,0,0,0,115.42,76.38Z" transform="translate(-4.17 -3.81)"/><path class="cls-12" d="M113.93,75.38a24.44,24.44,0,0,1-.08,3.61c-.06,1,3.47,2,4.38,1s.55-1.86.77-5.29S113.93,75.38,113.93,75.38Z" transform="translate(-4.17 -3.81)"/><path class="cls-13" d="M119,74.74s-.87,3.18-5.15,4.4l.06-2.89Z" transform="translate(-4.17 -3.81)"/><path class="cls-12" d="M121.71,66.66a7.78,7.78,0,1,1-9.49-5.59A7.78,7.78,0,0,1,121.71,66.66Z" transform="translate(-4.17 -3.81)"/><path class="cls-13" d="M116,68.89s-4.29,1.84-7.25,1.86-2.32-2.46-2.32-2.46L115.2,67Z" transform="translate(-4.17 -3.81)"/><path class="cls-4" d="M107.82,69.38s3.74-1.59,7-.93a3.44,3.44,0,0,1,2,1.18,1.15,1.15,0,0,0,.6.43c.58.13,1.53-2.28,2.66-2.33s1.88.74,1,2.23-.62,3.14-.19,3.37,4.94-3.22,1-11.11-14.11-3.65-15.68-2c0,0-1.66,1.45-3,.16C103.11,60.33,101.6,71.66,107.82,69.38Z" transform="translate(-4.17 -3.81)"/><path class="cls-12" d="M122.23,102v5.92a2.44,2.44,0,0,1-.79,1.79l-12.17,11.09,1.39,2.11,16.06-11.65a3.23,3.23,0,0,0,1.33-2.3l1.09-10.33Z" transform="translate(-4.17 -3.81)"/><path class="cls-6" d="M127,83s3.7,5.56,5.07,20.17c0,0-6.3,2-9.88.88S127,83,127,83Z" transform="translate(-4.17 -3.81)"/><path class="cls-2" d="M121.55,90.06A103.2,103.2,0,0,0,120,101.43a2.3,2.3,0,0,0,1.52,2.24h0Z" transform="translate(-4.17 -3.81)"/><path class="cls-6" d="M118.4,128.52l-2.69-.36-17.36-10a2.42,2.42,0,0,0-2.17.09l-12.3,7.1-1.63-.21v1.61h0a.64.64,0,0,0,.38.57l19.67,11.35a2.42,2.42,0,0,0,2.17-.09l13.4-7.73a.88.88,0,0,0,.53-.73h0Z" transform="translate(-4.17 -3.81)"/><path class="cls-2" d="M105.35,122.19l-1.23-.72H90.56l-6.68,3.86-1.63-.21v1.61h0a.64.64,0,0,0,.38.57l19.67,11.35a2,2,0,0,0,1.12.21Z" transform="translate(-4.17 -3.81)"/><path class="cls-6" d="M83,125.21l-.72-.09v1.61h0a.64.64,0,0,0,.38.57l.34.2Z" transform="translate(-4.17 -3.81)"/><path class="cls-5" d="M102.5,138.75a2.51,2.51,0,0,0,1.84-.11v-2.75H102.5Z" transform="translate(-4.17 -3.81)"/><path class="cls-5" d="M102.3,137.05,82.63,125.69c-.56-.32-.49-.89.15-1.26l13.4-7.73a2.42,2.42,0,0,1,2.17-.09L118,128c.56.32.49.88-.15,1.25L104.47,137A2.42,2.42,0,0,1,102.3,137.05Z" transform="translate(-4.17 -3.81)"/><path class="cls-9" d="M102,135.32l-16.36-9.44c-.46-.27-.41-.73.13-1l7.18-4a2,2,0,0,1,1.8-.07l16.36,9.44c.46.27.4.73-.13,1l-7.18,4A2,2,0,0,1,102,135.32Z" transform="translate(-4.17 -3.81)"/><path class="cls-12" d="M96.94,116.33l-.21,1.36a10.18,10.18,0,0,0,.09,3.48l.25,1.19a1.69,1.69,0,0,0,1.34,1.33h0a.94.94,0,0,0,1.09-.81l.33-2.91s.74,1,1.1,1-.4-2.91-1.21-4.55S96.94,116.33,96.94,116.33Z" transform="translate(-4.17 -3.81)"/><path class="cls-12" d="M103.61,94.76l-2.11,4.17a8.2,8.2,0,0,0-.87,3.18l-.91,14.29-2.78-.07-1.26-16a5.66,5.66,0,0,1,.07-1.48l1.44-8.14Z" transform="translate(-4.17 -3.81)"/><path class="cls-1" d="M101.63,138.14,100,136l-17.34-10a2.4,2.4,0,0,1-1-1.93l0-14.2-1-1.3.94-.54h0a.63.63,0,0,1,.68,0l19.66,11.38a2.42,2.42,0,0,1,1,1.93l0,15.46a.89.89,0,0,1-.36.83h0Z" transform="translate(-4.17 -3.81)"/><path class="cls-2" d="M89.64,130l-1.24-.71-6.76-11.75v-7.72l-1-1.3.94-.54h0a.63.63,0,0,1,.68,0l19.66,11.38a2.08,2.08,0,0,1,.74.87Z" transform="translate(-4.17 -3.81)"/><path class="cls-6" d="M81.09,109.09l-.44-.58.94-.54h0a.63.63,0,0,1,.68,0l.34.2Z" transform="translate(-4.17 -3.81)"/><path class="cls-3" d="M102.1,119.51a2.55,2.55,0,0,1,.83,1.66L101,122.28l-.92-1.6Z" transform="translate(-4.17 -3.81)"/><path class="cls-6" d="M101,119.93,81.33,108.55c-.56-.32-1,0-1,.76v15.47a2.36,2.36,0,0,0,1,1.92L101,138.08c.56.33,1,0,1-.76V121.86A2.38,2.38,0,0,0,101,119.93Z" transform="translate(-4.17 -3.81)"/><path class="cls-12" d="M110.66,122.93l-.32.65a4.33,4.33,0,0,1-1.64,1.83l-2,1.2a2,2,0,0,1-2,0l-.07,0a1.18,1.18,0,0,1-.16-1.81l2-2.1s-1.15.88-1.47.53,1.11-1.53,2.15-1.57a4.07,4.07,0,0,0,2-.85Z" transform="translate(-4.17 -3.81)"/><path class="cls-6" d="M105.48,75.61S98,83.75,95,91.22a15.25,15.25,0,0,0,8.82,6.41C110.06,99.44,105.48,75.61,105.48,75.61Z" transform="translate(-4.17 -3.81)"/><path class="cls-2" d="M102.39,97.15l1.22-11.71-2.86,11A16.54,16.54,0,0,0,102.39,97.15Z" transform="translate(-4.17 -3.81)"/><path class="cls-5" d="M111.08,74l-2-.55a4.83,4.83,0,0,0,2.36,1.89c1.41.38,1.62-.8,1.62-.8Z" transform="translate(-4.17 -3.81)"/><path class="cls-4" d="M93.45,281c-13.53-7.81-35.45-7.81-49,0s-13.52,20.46,0,28.27,35.45,7.8,49,0S107,288.76,93.45,281ZM80.22,301.59c-6.22,3.59-16.29,3.59-22.51,0s-6.21-9.41,0-13,16.29-3.58,22.51,0S86.43,298,80.22,301.59Z" transform="translate(-4.17 -3.81)"/><path class="cls-1" d="M39.38,276.33l12.35.19a13.13,13.13,0,0,1,3.9-3.28c6.79-3.92,17.47-4.22,24.87-.91l7.33-6.9,11.3.17c-.55-.36-1.13-.72-1.73-1.07-15.71-9.07-41.17-9.07-56.87,0a30.21,30.21,0,0,0-7.07,5.5Z" transform="translate(-4.17 -3.81)"/><polygon class="cls-6" points="94.96 243.86 94.96 261.79 83.66 261.61 83.66 243.68 94.96 243.86"/><polygon class="cls-1" points="76.32 250.58 76.32 268.52 83.66 261.61 83.66 243.68 76.32 250.58"/><path class="cls-1" d="M51.73,258.59v17.93L68,263.29l12.53,9V254.4L69,248.8s-15.87,4.86-16.7,5.07S51.73,258.59,51.73,258.59Z" transform="translate(-4.17 -3.81)"/><polygon class="cls-1" points="35.2 254.58 35.2 272.52 47.55 272.71 47.55 254.78 35.2 254.58"/><polygon class="cls-6" points="29.29 248.29 29.29 266.22 35.2 272.52 35.2 254.58 29.29 248.29"/><path class="cls-4" d="M39.38,258.4l12.35.19a13.13,13.13,0,0,1,3.9-3.28c6.79-3.92,17.47-4.22,24.87-.91l7.33-6.91,11.3.18c-.55-.37-1.13-.73-1.73-1.07-15.71-9.07-41.17-9.07-56.87,0a30,30,0,0,0-7.07,5.51Z" transform="translate(-4.17 -3.81)"/><path class="cls-6" d="M84.22,256.6v16.49l10.69-2.56s-.63-9.65-.86-9.91S84.22,256.6,84.22,256.6Z" transform="translate(-4.17 -3.81)"/><path class="cls-1" d="M76.13,273.09V291l1.15,1.23,7.54-4.34s-1.17-13.69-1.31-14S76.13,273.09,76.13,273.09Z" transform="translate(-4.17 -3.81)"/><path class="cls-2" d="M90.68,268.46l-6.46,6.08C89.6,278.8,89,284.8,82.3,288.65A23,23,0,0,1,76.13,291l6.68,7.12-5.92,5.57a53.75,53.75,0,0,0,20.51-6.35c13.5-7.79,15.38-19.75,5.67-28.71Z" transform="translate(-4.17 -3.81)"/><polygon class="cls-2" points="72.71 281.96 72.71 299.89 87.37 294.23 104.99 277.42 104.93 258.37 86.28 273.15 72.71 281.96"/><path class="cls-4" d="M90.68,250.52l-6.46,6.08c5.38,4.26,4.74,10.27-1.92,14.11a22.69,22.69,0,0,1-6.17,2.38l6.68,7.11-5.92,5.57a53.92,53.92,0,0,0,20.51-6.34c13.5-7.8,15.38-19.75,5.67-28.71Z" transform="translate(-4.17 -3.81)"/><path class="cls-2" d="M76.84,298.05,71,291.77c-5.46.34-11.13-.71-15.32-3.12s-6.11-5.91-5.36-9.16l-14-.22-5.39-5.74c-4.71,8.09-1.5,17.38,9.67,23.83,8.21,4.74,19.08,7,29.83,6.78Z" transform="translate(-4.17 -3.81)"/><polygon class="cls-2" points="66.18 282.39 66.18 300.33 24.59 277.28 24.59 259.33 30.66 261.79 66.18 282.39"/><polygon class="cls-1" points="72.66 276.3 72.66 294.23 66.18 300.33 66.18 282.39 72.66 276.3"/><path class="cls-6" d="M76.84,280.11,71,273.84c-5.46.33-11.13-.71-15.32-3.13s-6.11-5.91-5.36-9.16l-14-.22-5.39-5.74c-4.71,8.09-1.5,17.39,9.67,23.84,8.21,4.73,19.08,7,29.83,6.78Z" transform="translate(-4.17 -3.81)"/><path class="cls-4" d="M101.13,37.26l1.07-1.82a2.63,2.63,0,0,0,1.86.19,3.63,3.63,0,0,0,2-2.05,6.33,6.33,0,0,1,7-3.87l-.5,2,.25-1-.24,1c-.31-.07-3-.59-4.65,2.73a5.5,5.5,0,0,1-3.27,3.16A4.74,4.74,0,0,1,101.13,37.26Z" transform="translate(-4.17 -3.81)"/><path class="cls-5" d="M67.65,106.34a9.65,9.65,0,1,1,9.65-9.65A9.66,9.66,0,0,1,67.65,106.34Zm0-17.2a7.55,7.55,0,1,0,7.55,7.55A7.55,7.55,0,0,0,67.65,89.14Z" transform="translate(-4.17 -3.81)"/><path class="cls-4" d="M11,239.68a6.85,6.85,0,1,1,6.84-6.85A6.85,6.85,0,0,1,11,239.68Zm0-11.59a4.74,4.74,0,1,0,4.74,4.74A4.75,4.75,0,0,0,11,228.09Z" transform="translate(-4.17 -3.81)"/><path class="cls-4" d="M53.52,162.81l-4.65-9.45,9.45-4.65L63,158.16Zm-1.83-8.49L54.48,160l5.67-2.79-2.79-5.67Z" transform="translate(-4.17 -3.81)"/><rect class="cls-4" x="282.77" y="60.1" width="4.84" height="4.84" transform="translate(-2.5 128.43) rotate(-26.18)"/><rect class="cls-5" x="194.12" y="7.04" width="10" height="2.1" transform="translate(48.42 139.35) rotate(-45)"/><rect class="cls-5" x="198.07" y="3.09" width="2.1" height="10" transform="translate(48.42 139.36) rotate(-45)"/><path class="cls-5" d="M274.41,11.63a5,5,0,1,1-5-5A5,5,0,0,1,274.41,11.63Z" transform="translate(-4.17 -3.81)"/><polygon class="cls-9" points="241.76 293.03 254.18 285.86 266.58 293.03 254.18 300.19 241.76 293.03"/><polygon class="cls-9" points="268.11 277.62 280.52 270.45 292.93 277.62 280.52 284.78 268.11 277.62"/><polygon class="cls-9" points="294.37 262.57 306.78 255.41 319.19 262.57 306.78 269.74 294.37 262.57"/><polygon class="cls-10" points="280.52 277.62 280.52 239.4 268.11 232.24 268.11 270.45 280.52 277.62"/><polygon class="cls-14" points="280.52 239.4 292.93 232.24 292.93 270.45 280.52 277.62 280.52 239.4"/><polygon class="cls-4" points="280.52 277.62 280.52 239.4 268.11 232.24 268.11 270.45 280.52 277.62"/><polygon class="cls-4" points="254.18 293.03 254.18 271.53 241.76 264.37 241.76 285.86 254.18 293.03"/><polygon class="cls-14" points="254.18 271.53 266.58 264.37 266.58 285.86 254.18 293.03 254.18 271.53"/><polygon class="cls-4" points="241.76 264.37 254.18 257.2 266.58 264.37 254.18 271.53 241.76 264.37"/><polygon class="cls-4" points="306.78 262.57 306.78 210.03 294.37 202.86 294.37 255.41 306.78 262.57"/><polygon class="cls-14" points="306.78 210.03 319.19 202.86 319.19 255.41 306.78 262.57 306.78 210.03"/><polygon class="cls-4" points="294.37 202.86 306.78 195.69 319.19 202.86 306.78 210.03 294.37 202.86"/><polygon class="cls-4" points="268.11 232.24 280.52 225.07 292.93 232.24 280.52 239.4 268.11 232.24"/></svg>