<svg id="Camada_1" data-name="Camada 1" xmlns="http://www.w3.org/2000/svg" viewBox="0 0 1186.55 1067.31"><defs><style>.cls-1{fill:#244154;}.cls-2{fill:#2d5173;}.cls-3{fill:#99c3b6;}.cls-4{fill:#d7e7f5;}.cls-5{fill:#fff;}.cls-6{fill:#e5bbab;}.cls-7{fill:#7eb293;}.cls-8{fill:#ce968c;}.cls-9{fill:#87b9a1;}.cls-10{fill:#aa94bf;}.cls-11{fill:#6788bd;}.cls-12{fill:#364d80;}</style></defs><title>desenvolvimento</title><path class="cls-1" d="M479.16,344.61h0V328l-88.5-.05.61,0c-7-4.05-19.28-3.55-27.39,1.13l2.63-1.09-88.58-.05v17.79c-.2,2.74,1.33,5.39,4.7,7.34l83.18,48.4c7,4.05,19.29,3.54,27.39-1.14l79.29-46.19c4.68-2.7,6.93-6.2,6.67-9.46"/><path class="cls-2" d="M378.57,325.16A31.61,31.61,0,0,0,363.88,329l2.63-1.1-88.58-.05v17.79c-.2,2.74,1.33,5.39,4.7,7.34l83.19,48.4c3.37,1.94,7.95,2.83,12.71,2.71Z"/><path class="cls-3" d="M288,327.88h-10v17.79c-.2,2.74,1.33,5.39,4.7,7.34l5.32,3.07Z"/><path class="cls-1" d="M367.58,402.26c6.05,2.59,14.81,2.45,21.89-.25V378.73H367.58Z"/><path class="cls-4" d="M365.82,383.76l-83.19-48.4c-7-4.06-6.14-11.14,2-15.82l79.28-46.19c8.11-4.68,20.37-5.19,27.39-1.14l83.19,48.4c7,4.06,6.14,11.14-2,15.82L393.2,382.62c-8.1,4.68-20.36,5.19-27.38,1.14"/><path class="cls-3" d="M381.94,318.79l-24.46-14.23c-3.27-1.88-3.27-4.94,0-6.83a13,13,0,0,1,11.83,0L393.78,312c3.27,1.89,3.27,4.95,0,6.84a13.07,13.07,0,0,1-11.84,0"/><path class="cls-3" d="M417.5,339.58l-14.85-8.77c-3.27-1.88-3.27-4.94,0-6.83a13.07,13.07,0,0,1,11.84,0l14.85,8.76c3.27,1.89,3.27,4.95,0,6.84a13.13,13.13,0,0,1-11.84,0"/><path class="cls-3" d="M347.65,327.53l-14.85-8.76c-3.27-1.89-3.27-4.95,0-6.84a13,13,0,0,1,11.83,0l14.86,8.76c3.26,1.89,3.26,4.95,0,6.84a13.07,13.07,0,0,1-11.84,0"/><path class="cls-1" d="M1167.91,282.14,684.4,3C678.79-.25,673.08-.75,668,1l0,0-.88.33-.21.08L649.48,8l15.69,7.68c-.08.29-.16.56-.23.85L586.18,375.05c-3.94,17.94,4,38.88,17.64,46.78l471.87,272.44-1.68,20,19.09-7.41c6.42-3,11.56-9.78,13.68-19.45l78.76-358.49c3.94-17.94-4-38.88-17.63-46.78"/><path class="cls-2" d="M1167.91,282.14,684.4,3C678.79-.25,673.08-.75,668,1l0,0-.88.33-.21.08L649.48,8l15.69,7.68c-.08.29-.16.56-.23.85L613,252.83,849.61,437.14l333.57-135.73c-3.21-8.31-8.53-15.38-15.27-19.27"/><path class="cls-2" d="M1149.68,337.25l36.8-15.67c.68-14.26-5.22-29-14.91-36.86l-58.26,24.51Z"/><path class="cls-4" d="M1057.21,712.37,573.71,433.21c-13.68-7.89-21.57-28.84-17.63-46.78L634.83,27.94C638.77,10,653.06,1.86,666.73,9.76l483.51,279.15c13.67,7.9,21.57,28.84,17.63,46.78l-78.76,358.49c-3.94,17.94-18.22,26.08-31.9,18.19"/><path class="cls-5" d="M1046.73,685.7,592,423.29c-12.51-7.22-19.74-26.39-16.13-42.81l72.07-328c3.6-16.42,16.67-23.87,29.19-16.65L1131.86,298.2c12.51,7.23,19.74,26.39,16.13,42.81l-72.07,328c-3.6,16.41-16.67,23.87-29.19,16.64"/><path class="cls-5" d="M1046.73,685.7,592,423.29c-12.51-7.22-19.74-26.39-16.13-42.81l72.07-328c3.6-16.42,16.67-23.87,29.19-16.65L1131.86,298.2c12.51,7.23,19.74,26.39,16.13,42.81l-72.07,328c-3.6,16.41-16.67,23.87-29.19,16.64"/><path class="cls-1" d="M1063.89,724.52l-66.1-8.72L571.16,469.48c-13.68-7.9-37.57-6.91-53.36,2.21L215.48,646.17l-40-5.28v22.67h0c-.26,5.24,2.72,10.28,9.18,14l483.5,279.15c13.68,7.89,37.57,6.9,53.36-2.21l329.23-190c8.89-5.13,13.32-11.74,13.06-18Z"/><path class="cls-2" d="M743.33,568.88,713,551.38H379.77L215.48,646.17l-40-5.28v22.67h0c-.26,5.24,2.72,10.28,9.17,14L668.24,956.73c7.23,4.17,17.31,5.84,27.54,5.16Z"/><path class="cls-2" d="M193.26,643.23l-17.74-2.34v22.67h0c-.26,5.24,2.72,10.28,9.17,14l8.53,4.92Z"/><path class="cls-2" d="M673.11,959c13,4.92,31.5,3.85,45.34-2.82V905.6H673.11Z"/><path class="cls-4" d="M668.24,934.08,184.74,654.93c-13.68-7.9-12-21.69,3.83-30.81l329.23-190c15.79-9.12,39.68-10.11,53.36-2.21L1054.66,711c13.68,7.9,12,21.69-3.83,30.81l-329.23,190c-15.79,9.11-39.68,10.1-53.36,2.21"/><path class="cls-1" d="M390.38,562.51,368.5,549.88c-1.76-1-1.54-2.78.49-4L394.81,531a7.65,7.65,0,0,1,6.86-.29l21.87,12.63c1.76,1,1.54,2.79-.49,4l-25.82,14.91a7.6,7.6,0,0,1-6.85.28"/><path class="cls-1" d="M424.16,582l-21.88-12.63c-1.75-1-1.53-2.79.49-4l25.83-14.91a7.59,7.59,0,0,1,6.85-.28l21.88,12.63c1.75,1,1.53,2.78-.5,4L431,581.73a7.63,7.63,0,0,1-6.85.29"/><path class="cls-1" d="M457.94,601.52l-21.87-12.63c-1.76-1-1.54-2.78.49-3.95L462.38,570a7.63,7.63,0,0,1,6.85-.29l21.88,12.63c1.76,1,1.54,2.79-.49,4L464.8,601.24a7.62,7.62,0,0,1-6.86.28"/><path class="cls-1" d="M504.67,585.41l-21.88-12.63c-1.75-1-1.53-2.78.49-3.95L505,556.31a7.6,7.6,0,0,1,6.85-.28l21.88,12.63c1.76,1,1.54,2.78-.49,4l-21.68,12.51a7.59,7.59,0,0,1-6.85.28"/><path class="cls-1" d="M538.45,604.92l-21.87-12.63c-1.76-1-1.54-2.79.49-4l21.67-12.51a7.65,7.65,0,0,1,6.86-.29l21.87,12.63c1.76,1,1.54,2.79-.49,4l-21.67,12.52a7.65,7.65,0,0,1-6.86.28"/><path class="cls-1" d="M572.24,624.42l-21.88-12.63c-1.76-1-1.54-2.78.49-3.95l21.68-12.52a7.63,7.63,0,0,1,6.85-.28l21.88,12.63c1.75,1,1.53,2.78-.49,4l-21.68,12.51a7.6,7.6,0,0,1-6.85.28"/><path class="cls-1" d="M606,643.93,584.14,631.3c-1.75-1-1.53-2.79.5-4l21.67-12.51a7.65,7.65,0,0,1,6.86-.29L635,627.17c1.76,1,1.54,2.79-.49,4l-21.68,12.52a7.62,7.62,0,0,1-6.85.28"/><path class="cls-1" d="M639.81,663.44,617.93,650.8c-1.76-1-1.54-2.78.49-3.95l21.68-12.52a7.62,7.62,0,0,1,6.85-.28l21.88,12.63c1.75,1,1.53,2.79-.5,4l-21.67,12.51a7.63,7.63,0,0,1-6.85.29"/><path class="cls-1" d="M673.59,682.94l-21.88-12.63c-1.75-1-1.53-2.78.49-4l21.68-12.51a7.63,7.63,0,0,1,6.85-.29l21.88,12.64c1.76,1,1.54,2.78-.49,3.95l-21.68,12.52a7.59,7.59,0,0,1-6.85.28"/><path class="cls-1" d="M707.37,702.45,685.5,689.81c-1.76-1-1.54-2.78.49-3.95l21.67-12.52a7.65,7.65,0,0,1,6.86-.28l21.87,12.63c1.76,1,1.54,2.79-.49,4l-21.67,12.51a7.65,7.65,0,0,1-6.86.29"/><path class="cls-1" d="M741.16,722l-21.88-12.63c-1.76-1-1.54-2.79.49-4l21.68-12.51a7.63,7.63,0,0,1,6.85-.29l21.88,12.64c1.75,1,1.53,2.78-.49,3.95L748,721.67a7.6,7.6,0,0,1-6.85.28"/><path class="cls-1" d="M774.94,741.46l-21.87-12.63c-1.76-1-1.54-2.79.49-4l21.67-12.52a7.65,7.65,0,0,1,6.86-.28L804,724.7c1.76,1,1.54,2.79-.49,4L781.8,741.17a7.65,7.65,0,0,1-6.86.29"/><path class="cls-1" d="M808.73,761l-21.88-12.63c-1.76-1-1.54-2.78.49-4L809,731.86a7.59,7.59,0,0,1,6.85-.28l21.88,12.63c1.75,1,1.53,2.78-.5,3.95l-21.67,12.52a7.6,7.6,0,0,1-6.85.28"/><path class="cls-2" d="M554.45,576.18l-21.88-12.63c-1.76-1-1.53-2.79.49-4l21.68-12.51a7.63,7.63,0,0,1,6.85-.29l21.88,12.63c1.76,1,1.54,2.79-.49,4L561.3,575.9a7.63,7.63,0,0,1-6.85.28"/><path class="cls-2" d="M520.16,556.38l-21.88-12.63c-1.75-1-1.53-2.78.49-4l21.68-12.52a7.6,7.6,0,0,1,6.85-.28l21.88,12.63c1.76,1,1.54,2.78-.49,4L527,556.1a7.59,7.59,0,0,1-6.85.28"/><path class="cls-1" d="M485.82,536.55l-47.12-27.2c-1.76-1-1.54-2.78.49-4l21.68-12.52a7.59,7.59,0,0,1,6.85-.28l47.12,27.2c1.75,1,1.53,2.79-.5,4l-21.67,12.51a7.6,7.6,0,0,1-6.85.28"/><path class="cls-1" d="M509.82,512.44l-38.23-22.08c-1.76-1-1.54-2.78.49-3.95l21.67-12.52a7.65,7.65,0,0,1,6.86-.28l38.23,22.08c1.76,1,1.54,2.78-.49,3.95l-21.68,12.52a7.62,7.62,0,0,1-6.85.28"/><path class="cls-2" d="M588.23,595.69l-21.87-12.64c-1.76-1-1.54-2.78.49-3.95l21.67-12.52a7.65,7.65,0,0,1,6.86-.28l21.87,12.63c1.76,1,1.54,2.79-.49,4L595.09,595.4a7.65,7.65,0,0,1-6.86.29"/><path class="cls-1" d="M622,615.19l-21.88-12.63c-1.76-1-1.54-2.79.49-4l21.68-12.51a7.63,7.63,0,0,1,6.85-.29L651,598.44c1.75,1,1.53,2.78-.5,3.95l-21.67,12.52a7.6,7.6,0,0,1-6.85.28"/><path class="cls-1" d="M655.8,634.7l-21.88-12.64c-1.75-1-1.53-2.78.49-3.95l21.68-12.52a7.63,7.63,0,0,1,6.85-.28l21.88,12.63c1.76,1,1.54,2.78-.49,4l-21.68,12.51a7.63,7.63,0,0,1-6.85.29"/><path class="cls-1" d="M689.58,654.2l-21.87-12.63c-1.76-1-1.54-2.79.49-4l21.68-12.51a7.63,7.63,0,0,1,6.85-.29l21.87,12.63c1.76,1,1.54,2.79-.49,4l-21.67,12.52a7.65,7.65,0,0,1-6.86.28"/><path class="cls-1" d="M723.37,673.71l-21.88-12.63c-1.76-1-1.54-2.79.49-4l21.68-12.52a7.63,7.63,0,0,1,6.85-.28L752.39,657c1.75,1,1.53,2.79-.49,4l-21.68,12.51a7.63,7.63,0,0,1-6.85.29"/><path class="cls-1" d="M757.15,693.21l-21.87-12.63c-1.76-1-1.54-2.78.49-4l21.67-12.51a7.62,7.62,0,0,1,6.86-.28l21.87,12.63c1.76,1,1.54,2.78-.49,3.95L764,692.93a7.62,7.62,0,0,1-6.86.28"/><path class="cls-1" d="M790.94,712.72l-21.88-12.63c-1.76-1-1.54-2.79.49-4l21.68-12.52a7.63,7.63,0,0,1,6.85-.28L820,696c1.75,1,1.53,2.79-.5,4l-21.67,12.51a7.63,7.63,0,0,1-6.85.29"/><path class="cls-1" d="M824.72,732.22l-21.88-12.63c-1.75-1-1.53-2.78.5-4L825,703.12a7.62,7.62,0,0,1,6.86-.28l21.87,12.63c1.76,1,1.54,2.78-.49,3.95l-21.68,12.52a7.59,7.59,0,0,1-6.85.28"/><path class="cls-1" d="M858.5,751.73,836.63,739.1c-1.76-1-1.54-2.79.49-4l21.68-12.51a7.63,7.63,0,0,1,6.85-.29L887.53,735c1.75,1,1.53,2.79-.5,4l-21.67,12.51a7.65,7.65,0,0,1-6.86.29"/><path class="cls-1" d="M918.57,786.4l-47.74-27.56c-1.75-1-1.53-2.78.49-4L893,742.37a7.6,7.6,0,0,1,6.85-.28l47.74,27.56c1.75,1,1.53,2.78-.5,4l-21.67,12.52a7.6,7.6,0,0,1-6.85.28"/><path class="cls-1" d="M984.34,748.43l-40.29-23.26c-1.76-1-1.54-2.79.49-4l21.68-12.51a7.63,7.63,0,0,1,6.85-.29l40.29,23.26c1.76,1,1.54,2.79-.49,4l-21.68,12.52a7.63,7.63,0,0,1-6.85.28"/><path class="cls-1" d="M647.4,591.87l-21.88-12.63c-1.76-1-1.54-2.79.49-4l21.68-12.51a7.63,7.63,0,0,1,6.85-.29l21.88,12.63c1.75,1,1.53,2.79-.5,4l-21.67,12.51a7.6,7.6,0,0,1-6.85.29"/><path class="cls-1" d="M612.77,571.88l-21.88-12.63c-1.75-1-1.53-2.79.5-4l21.67-12.51a7.65,7.65,0,0,1,6.86-.29l21.87,12.63c1.76,1,1.54,2.79-.49,4l-21.68,12.51a7.6,7.6,0,0,1-6.85.29"/><path class="cls-2" d="M578.15,551.89l-21.88-12.63c-1.76-1-1.54-2.79.49-4l21.68-12.51a7.63,7.63,0,0,1,6.85-.29l21.88,12.63c1.75,1,1.53,2.79-.5,4L585,551.6a7.6,7.6,0,0,1-6.85.29"/><path class="cls-1" d="M543.52,531.9l-21.88-12.63c-1.75-1-1.53-2.79.5-4l21.67-12.51a7.65,7.65,0,0,1,6.86-.29l21.87,12.63c1.76,1,1.54,2.79-.49,4l-21.68,12.51a7.63,7.63,0,0,1-6.85.29"/><path class="cls-1" d="M681.18,611.37,659.3,598.74c-1.75-1-1.53-2.78.49-4l21.68-12.52a7.6,7.6,0,0,1,6.85-.28l21.88,12.63c1.76,1,1.54,2.78-.49,4L688,611.09a7.59,7.59,0,0,1-6.85.28"/><path class="cls-1" d="M715,630.88l-21.87-12.63c-1.76-1-1.54-2.79.49-4l21.67-12.51a7.65,7.65,0,0,1,6.86-.29L744,614.12c1.76,1,1.54,2.79-.49,4L721.82,630.6a7.65,7.65,0,0,1-6.86.28"/><path class="cls-1" d="M748.75,650.38l-21.88-12.63c-1.76-1-1.54-2.78.49-4L749,621.28a7.63,7.63,0,0,1,6.85-.28l21.88,12.63c1.75,1,1.53,2.78-.49,4L755.6,650.1a7.6,7.6,0,0,1-6.85.28"/><path class="cls-1" d="M782.53,669.89l-21.88-12.63c-1.75-1-1.53-2.79.5-4l21.67-12.51a7.65,7.65,0,0,1,6.86-.29l21.87,12.63c1.76,1,1.54,2.79-.49,4l-21.68,12.52a7.62,7.62,0,0,1-6.85.28"/><path class="cls-1" d="M816.32,689.4l-21.88-12.64c-1.76-1-1.54-2.78.49-4l21.68-12.52a7.63,7.63,0,0,1,6.85-.28l21.88,12.63c1.75,1,1.53,2.79-.5,4l-21.67,12.51a7.63,7.63,0,0,1-6.85.29"/><path class="cls-1" d="M850.1,708.9l-21.88-12.63c-1.75-1-1.53-2.79.49-4l21.68-12.51a7.63,7.63,0,0,1,6.85-.29l21.88,12.64c1.76,1,1.54,2.78-.49,4L857,708.62a7.63,7.63,0,0,1-6.85.28"/><path class="cls-1" d="M883.88,728.4,862,715.77c-1.76-1-1.54-2.78.49-3.95l21.67-12.52A7.65,7.65,0,0,1,891,699l21.87,12.63c1.76,1,1.54,2.78-.49,4l-21.67,12.51a7.62,7.62,0,0,1-6.86.28"/><path class="cls-1" d="M917.67,747.91l-21.88-12.63c-1.76-1-1.54-2.79.49-4L918,718.81a7.63,7.63,0,0,1,6.85-.29l21.88,12.63c1.75,1,1.53,2.79-.49,4l-21.68,12.52a7.63,7.63,0,0,1-6.85.28"/><path class="cls-1" d="M951.45,767.42l-21.88-12.63c-1.75-1-1.53-2.79.5-4l21.67-12.52a7.65,7.65,0,0,1,6.86-.28l21.87,12.63c1.76,1,1.54,2.79-.49,4L958.3,767.13a7.63,7.63,0,0,1-6.85.29"/><path class="cls-1" d="M629.61,543.62,607.73,531c-1.76-1-1.54-2.78.49-4l21.68-12.52a7.59,7.59,0,0,1,6.85-.28l21.88,12.63c1.75,1,1.53,2.78-.5,4l-21.67,12.52a7.6,7.6,0,0,1-6.85.28"/><path class="cls-1" d="M596,524.22l-21.88-12.64c-1.75-1-1.53-2.78.49-3.95l21.68-12.52a7.63,7.63,0,0,1,6.85-.28L625,507.46c1.76,1,1.54,2.79-.49,4l-21.68,12.51a7.63,7.63,0,0,1-6.85.29"/><path class="cls-1" d="M562.37,504.81,540.5,492.18c-1.76-1-1.54-2.79.49-4l21.67-12.51a7.65,7.65,0,0,1,6.86-.29l21.87,12.63c1.76,1,1.54,2.79-.49,4l-21.67,12.51a7.65,7.65,0,0,1-6.86.29"/><path class="cls-1" d="M528.76,485.4l-21.88-12.63c-1.76-1-1.54-2.79.49-4l21.68-12.51a7.63,7.63,0,0,1,6.85-.29l21.88,12.63c1.75,1,1.53,2.79-.49,4l-21.68,12.52a7.63,7.63,0,0,1-6.85.28"/><path class="cls-1" d="M563.32,465.44l-21.87-12.63c-1.76-1-1.54-2.78.49-4l7.17-4.13a7.63,7.63,0,0,1,6.85-.29l21.88,12.63c1.75,1,1.53,2.79-.5,4l-7.16,4.14a7.62,7.62,0,0,1-6.86.28"/><path class="cls-1" d="M607.19,490.77l-21.87-12.63c-1.76-1-1.54-2.79.49-4l7.16-4.13a7.62,7.62,0,0,1,6.86-.29l21.87,12.63c1.76,1,1.54,2.79-.49,4l-7.16,4.14a7.65,7.65,0,0,1-6.86.28"/><path class="cls-1" d="M640.67,510.1l-21.88-12.63c-1.75-1-1.53-2.79.49-4l7.17-4.14a7.6,7.6,0,0,1,6.85-.28l21.88,12.63c1.76,1,1.54,2.78-.49,4l-7.17,4.13a7.63,7.63,0,0,1-6.85.29"/><path class="cls-1" d="M674.15,529.42l-21.88-12.63c-1.76-1-1.54-2.78.49-3.95l7.17-4.14a7.59,7.59,0,0,1,6.85-.28l21.88,12.63c1.75,1,1.53,2.78-.5,4L681,529.14a7.6,7.6,0,0,1-6.85.28"/><path class="cls-1" d="M707.62,548.75l-21.88-12.63c-1.75-1-1.53-2.79.5-4L693.4,528a7.65,7.65,0,0,1,6.86-.29l21.87,12.63c1.76,1,1.54,2.79-.49,4l-7.17,4.14a7.59,7.59,0,0,1-6.85.28"/><path class="cls-1" d="M894.51,656.65,872.64,644c-1.76-1-1.54-2.78.49-3.95l7.16-4.14a7.65,7.65,0,0,1,6.86-.29L909,648.27c1.76,1,1.54,2.79-.49,4l-7.16,4.14a7.62,7.62,0,0,1-6.86.28"/><path class="cls-1" d="M928,676l-21.88-12.63c-1.76-1-1.54-2.79.49-4l7.17-4.13a7.6,7.6,0,0,1,6.85-.29L942.5,667.6c1.76,1,1.54,2.79-.49,4l-7.17,4.14A7.6,7.6,0,0,1,928,676"/><path class="cls-1" d="M961.46,695.31l-21.87-12.63c-1.76-1-1.54-2.79.49-4l7.16-4.14a7.65,7.65,0,0,1,6.86-.28L976,686.93c1.76,1,1.54,2.79-.49,4L968.32,695a7.65,7.65,0,0,1-6.86.29"/><path class="cls-1" d="M994.94,714.64,973.06,702c-1.75-1-1.53-2.78.5-4l7.16-4.14a7.6,7.6,0,0,1,6.85-.28l21.88,12.63c1.76,1,1.54,2.78-.49,4l-7.17,4.14a7.63,7.63,0,0,1-6.85.29"/><path class="cls-1" d="M663.39,563.13,641.51,550.5c-1.75-1-1.53-2.79.49-4L663.68,534a7.63,7.63,0,0,1,6.85-.29l21.88,12.63c1.76,1,1.54,2.79-.49,4l-21.68,12.52a7.63,7.63,0,0,1-6.85.28"/><path class="cls-1" d="M697.17,582.63,675.3,570c-1.76-1-1.54-2.78.49-4l21.68-12.52a7.59,7.59,0,0,1,6.85-.28l21.87,12.63c1.76,1,1.54,2.78-.49,4L704,582.35a7.62,7.62,0,0,1-6.86.28"/><path class="cls-1" d="M731,602.14l-21.88-12.63c-1.76-1-1.54-2.79.49-4L731.25,573a7.63,7.63,0,0,1,6.85-.29L760,585.38c1.75,1,1.53,2.79-.49,4l-21.68,12.52a7.63,7.63,0,0,1-6.85.28"/><path class="cls-1" d="M764.74,621.64,742.86,609c-1.75-1-1.53-2.78.5-4L765,592.54a7.65,7.65,0,0,1,6.86-.28l21.87,12.63c1.76,1,1.54,2.78-.49,4l-21.68,12.51a7.59,7.59,0,0,1-6.85.28"/><path class="cls-1" d="M798.53,641.15l-21.88-12.63c-1.76-1-1.54-2.79.49-4l21.68-12.51a7.63,7.63,0,0,1,6.85-.29l21.88,12.63c1.75,1,1.53,2.79-.5,4l-21.67,12.52a7.63,7.63,0,0,1-6.85.28"/><path class="cls-1" d="M832.31,660.65,810.43,648c-1.75-1-1.53-2.78.5-3.95l21.67-12.52a7.63,7.63,0,0,1,6.85-.28l21.88,12.63c1.76,1,1.54,2.78-.49,4l-21.68,12.51a7.59,7.59,0,0,1-6.85.28"/><path class="cls-1" d="M866.09,680.16l-21.87-12.63c-1.76-1-1.54-2.79.49-4l21.68-12.51a7.63,7.63,0,0,1,6.85-.29l21.87,12.63c1.76,1,1.54,2.79-.49,4L873,679.88a7.65,7.65,0,0,1-6.86.28"/><path class="cls-1" d="M899.88,699.67,878,687c-1.76-1-1.53-2.78.49-3.95l21.68-12.52a7.63,7.63,0,0,1,6.85-.28l21.88,12.63c1.75,1,1.54,2.79-.49,4l-21.68,12.51a7.63,7.63,0,0,1-6.85.29"/><path class="cls-1" d="M933.66,719.17l-21.87-12.63c-1.76-1-1.54-2.79.49-4L934,690.07a7.65,7.65,0,0,1,6.86-.29l21.87,12.64c1.76,1,1.54,2.78-.49,4l-21.67,12.52a7.62,7.62,0,0,1-6.86.28"/><path class="cls-1" d="M470.24,565.54l-64.43-37.2c-1.76-1-1.54-2.79.49-4L428,511.87a7.63,7.63,0,0,1,6.85-.29l64.43,37.2c1.76,1,1.54,2.79-.49,4l-21.68,12.51a7.63,7.63,0,0,1-6.85.29"/><path class="cls-1" d="M885.29,805.16,820.86,768c-1.76-1-1.54-2.79.49-4L843,751.49a7.65,7.65,0,0,1,6.86-.28l64.43,37.2c1.75,1,1.53,2.78-.5,4l-21.67,12.52a7.6,7.6,0,0,1-6.85.28"/><path class="cls-1" d="M750.18,770.24,728.3,757.61c-1.75-1-1.53-2.78.49-4l25.83-14.91a7.59,7.59,0,0,1,6.85-.28l21.88,12.63c1.75,1,1.53,2.78-.5,3.95L757,770a7.59,7.59,0,0,1-6.85.28"/><path class="cls-1" d="M504.84,628.6l-35-20.2c-1.76-1-1.53-2.79.49-4l25.82-14.91a7.62,7.62,0,0,1,6.86-.28l35,20.2c1.76,1,1.54,2.78-.49,4l-25.82,14.9a7.63,7.63,0,0,1-6.85.29"/><path class="cls-1" d="M717.63,751.45l-35-20.2c-1.76-1-1.54-2.78.49-4L709,712.39a7.65,7.65,0,0,1,6.86-.29l35,20.2c1.76,1,1.54,2.79-.49,4l-25.82,14.91a7.6,7.6,0,0,1-6.85.28"/><path class="cls-1" d="M553.58,656.74l-35-20.2c-1.75-1-1.53-2.79.5-4l25.82-14.91a7.63,7.63,0,0,1,6.85-.28l35,20.2c1.75,1,1.53,2.79-.49,4l-25.83,14.9a7.6,7.6,0,0,1-6.85.29"/><path class="cls-1" d="M552,617.53l152.11,87.82c1.89,1.09,1.89,2.86,0,3.95l-26.33,15.2a7.56,7.56,0,0,1-6.84,0L518.83,636.68Z"/><path class="cls-1" d="M844.6,805.61,869,819.68c1.44.83,1.26,2.28-.41,3.24L858,829a6.22,6.22,0,0,1-5.62.23L828,815.18c-1.44-.83-1.26-2.28.4-3.24l10.56-6.1a6.25,6.25,0,0,1,5.62-.23"/><path class="cls-1" d="M810.53,785.94,834.9,800c1.44.83,1.26,2.29-.4,3.25l-10.56,6.09a6.25,6.25,0,0,1-5.62.24L794,795.52c-1.44-.83-1.26-2.29.4-3.25l10.57-6.09a6.23,6.23,0,0,1,5.61-.24"/><path class="cls-1" d="M776.75,766.44l24.37,14.07c1.44.83,1.26,2.28-.4,3.24l-10.57,6.1a6.23,6.23,0,0,1-5.61.23L760.17,776c-1.44-.83-1.26-2.28.4-3.24l10.56-6.1a6.25,6.25,0,0,1,5.62-.23"/><path class="cls-1" d="M829.19,775.17l24.37,14.07c1.44.83,1.26,2.28-.4,3.24l-10.57,6.1a6.23,6.23,0,0,1-5.61.24l-24.37-14.07c-1.44-.84-1.26-2.29.4-3.25l10.57-6.1a6.23,6.23,0,0,1,5.61-.23"/><path class="cls-1" d="M342.83,463.66s1.63,33.48,4.17,56,56.75-17.29,56.75-17.29V476.74Z"/><path class="cls-1" d="M371.7,880.29c.81,2,14.86,19.13,28.9,23.4,6.1,1.86,10.21,2.1,12.9,1.78a4.25,4.25,0,0,0,3.46-5.66A53.42,53.42,0,0,0,390,870.11c-23.82-11.8-18.32,10.18-18.32,10.18"/><path class="cls-1" d="M367,886.86s5.29,12.41,6.92,22.79c1,6.33-2.48,14.56-5.34,20a5.85,5.85,0,0,1-9.11,1.57c-4.59-4.16-10.43-11.39-11.4-21.78-1.63-17.51,0-20.56,0-20.56Z"/><path class="cls-2" d="M333.19,675.31a333.22,333.22,0,0,0,0,46.5c1.83,24.42,8.39,138.64,9.61,166.11,0,0-.61,8.32,15.49,6.49s14.81-11.07,14.81-11.07,22.61-.3,23.33-13.63,23.16-159.19,23.16-211.63Z"/><path class="cls-6" d="M428,561.15,439,578.31l38.08,46a8.52,8.52,0,0,1-6.05,5.38c-3.7.88-35.73-29.69-49.57-43.1A10.61,10.61,0,0,1,420,573.1Z"/><path class="cls-7" d="M406.34,490.71s17.6-.46,23.73,25S441,573,435.66,575.63c-16,7.94-26.12-1.36-26.12-1.36Z"/><path class="cls-3" d="M411.61,491.79a14.35,14.35,0,0,0-9.5-.52c-15,4.3-71.38,20.85-80.67,28.79-10.74,9.18,16.1,60.75,15.71,77.65s-2.29,36.84-3.79,55.22-3.51,28.46,11.52,36.27,40.7,8.18,59.92-6.46,15.72-24.66,14.92-35.29-7.34-56.6-6.77-69.64a49.37,49.37,0,0,0,11.78-13.54c5-8.56-3.84-24.28-7.52-34.5s2.08-21.91.94-30.25c-.59-4.29-3.33-6.39-6.54-7.73"/><path class="cls-5" d="M393.58,509.37c1.19,9.28-7.33,18-19,19.53s-22.14-4.82-23.33-14.11,7.33-18,19-19.53,22.14,4.82,23.33,14.11"/><path class="cls-6" d="M387.54,510.14c.85,6.64-5.24,12.89-13.6,14s-15.83-3.44-16.68-10.08,5.24-12.89,13.6-14,15.83,3.44,16.68,10.08"/><path class="cls-6" d="M379.23,488.35s-10.18-8.37-12.18-4.13-3.64,22.43-3.64,22.43l20.21,5.43-3.07-18.43s4.05-3.43-1.32-5.3"/><path class="cls-6" d="M410.82,468.41a30.18,30.18,0,1,1-28.35-31.91,30.18,30.18,0,0,1,28.35,31.91"/><path class="cls-8" d="M365.64,489.49c-.18.95-.35,2-.51,3,2,10.5,17.74,15.1,17.74,15.1l-2.32-14s1.91-1.62,1.37-3.24c-6.21-2-14-3.69-16.28-.92"/><path class="cls-6" d="M410.82,468.41a30.18,30.18,0,1,1-28.35-31.91,30.18,30.18,0,0,1,28.35,31.91"/><polygon class="cls-6" points="306.33 594.38 309.71 675.14 321.52 676.36 329.2 603.65 306.33 594.38"/><path class="cls-9" d="M345.14,587.63c-3.91-17.25-11.63-55.35-11.63-55.35l-3.3,37.9c3.81,11.24,7.08,21.55,6.94,27.53-.23,9.93-1,20.9-1.86,32v0s13.75-24.85,9.85-42.09"/><path class="cls-7" d="M323.69,518.41s-9.44,3.6-14.78,32.6-9.34,58,.18,61.79,17.49,6.56,20.29-1.19,4.54-45.13,4.89-58.58.86-32-10.58-34.62"/><path class="cls-6" d="M474.3,621a25.38,25.38,0,0,1,8.81,5.91,57.61,57.61,0,0,1,6,8.08c2.94,4.38,5.42,13.87,3.62,15s-12.05-15.88-13.7-11.91,0,7.63-2.1,7.69-9.49-17.14-15.29-22.48S474.3,621,474.3,621"/><path class="cls-1" d="M373.1,883.34a46.18,46.18,0,0,0,6.46-.67L384,705.13Z"/><path class="cls-3" d="M356,787.44l-6.28-8.2L283.66,741c-2.12-1.23-3.83-4.51-3.83-7.34l.06-54.09-3.8-5,3.57-2.06h0a2.43,2.43,0,0,1,2.6.15L357.13,716c2.12,1.22,3.83,4.51,3.83,7.34l-.07,58.9c0,1.59-.54,2.7-1.4,3.14Z"/><path class="cls-1" d="M310.32,756.42l-4.69-2.71L279.86,709l0-29.39-3.8-5,3.57-2.07h0a2.41,2.41,0,0,1,2.59.15L357.13,716a7.74,7.74,0,0,1,2.82,3.3Z"/><path class="cls-10" d="M277.78,676.8l-1.69-2.2,3.57-2.07h0a2.41,2.41,0,0,1,2.59.15l1.32.76Z"/><path class="cls-3" d="M357.81,716.52a9.62,9.62,0,0,1,3.13,6.3l-7.32,4.23L350.11,721Z"/><path class="cls-5" d="M353.56,718.1l-74.87-43.35c-2.12-1.22-3.84.08-3.84,2.9l-.06,58.91c0,2.82,1.71,6.11,3.82,7.33l74.88,43.35c2.11,1.23,3.83-.07,3.84-2.89l.06-58.91c0-2.83-1.71-6.11-3.83-7.34"/><path class="cls-6" d="M309.81,674.46s-3.12,18.85-2.65,24.89,3.7,16,6.15,15.79.08-24.28,4.39-21.88,4.76,6.51,6.71,5-3.4-22-2-30.94-12.62,7.09-12.62,7.09"/><path class="cls-8" d="M392.28,469.27c15.14,5.37,18.09,2.09,18.23,1.92.14-.92.25-1.84.31-2.78a29.92,29.92,0,0,0-1-9.64l-39.27-5.31s6.2,10.28,21.74,15.81"/><path class="cls-1" d="M411.91,438.34c-3.57-3-16.45-18.18-39.51-14.61-14.42,2.23-26.57,12.06-29.26,34.5-1.82,15.11,3.73,30,13.95,41a12,12,0,0,0,1.64-.83c5.77-3.8,6.4-5.89,6.4-5.91l1.27-11.44a3.2,3.2,0,0,0-2.87-3.18,5.74,5.74,0,0,1-4.23-2.57C356,471,357.51,464.21,364.14,464c3.46-.14,4.8-2,5.29-3.77a2.71,2.71,0,0,1,3.54-1.84c7.54,2.73,26.11,8.61,38.06,5.22,15.3-4.33,4.44-22.17.88-25.23"/><polygon class="cls-10" points="325.5 697.73 317.64 693.23 320.59 698.05 324.57 699.52 325.5 697.73"/><path class="cls-1" d="M537.13,946s-9.92-5-16,2.44-14.8,25.05-15.07,36.93,9.41,11.09,15.16,8.27,22.55-27.18,23.57-32-1.2-11.23-2.82-12.49-4.82-3.19-4.82-3.19"/><path class="cls-1" d="M539.3,943.59l.46,10.28a5.86,5.86,0,0,1-2.91,5.35,11.49,11.49,0,0,1-7.65,1.19c-7.48-1.21-8.15-3.34-8.68-13.62s18.78-3.2,18.78-3.2"/><path class="cls-1" d="M500.81,926.21s-9.93-5-16,2.45-14.81,25-15.08,36.93,9.41,11.08,15.16,8.27,22.56-27.19,23.57-32-1.2-11.23-2.81-12.49-4.82-3.19-4.82-3.19"/><path class="cls-1" d="M503,923.82l.46,10.28a5.83,5.83,0,0,1-2.9,5.35,11.52,11.52,0,0,1-7.66,1.19c-7.47-1.2-8.14-3.34-8.67-13.62s18.77-3.2,18.77-3.2"/><path class="cls-2" d="M591.52,735.07c-2.94-47.79-51.75,7-51.75,7l-33.42,32.75-30.08,33a29.66,29.66,0,0,0-7.48,23.82L481,924.4a9.1,9.1,0,0,0,9.13,7.91,31.84,31.84,0,0,0,4.51-.39c10.85-1.69,10.05-12,10.05-12l-2.22-86.68,63.18-38.08s28.84-12.28,25.9-60.07"/><path class="cls-2" d="M627.84,753.28c-2.93-47.79-51.75,7-51.75,7l-33.41,32.74-30.09,33.06a29.65,29.65,0,0,0-7.47,23.82l12.17,92.67a9.11,9.11,0,0,0,9.13,7.92,31.72,31.72,0,0,0,4.51-.39c10.86-1.7,10.06-12,10.06-12l-2.23-86.68L602,813.34s28.83-12.28,25.89-60.06"/><path class="cls-3" d="M599,599.87c37,15.35,36.27,37.22,36.27,37.22S628,717.3,630.46,770.86c1,22.39-119,24.1-101.08-35.64,21.1-70.43,13.19-127.46,23.07-136.06s36.94-3.26,46.51.71"/><path class="cls-6" d="M610.87,619.27c-1.94,7.52-11.78,11.48-22,8.85s-16.92-10.86-15-18.37,11.78-11.48,22-8.85,16.92,10.86,15,18.37"/><path class="cls-5" d="M595.13,630.69a27.06,27.06,0,0,1-6.69-.86C577.3,627,570,617.75,572.19,609.31c1.08-4.2,4.26-7.54,8.94-9.43a24.6,24.6,0,0,1,15.2-.69c11.14,2.87,18.43,12.08,16.26,20.52-1.74,6.73-9,11-17.46,11m-5.56-28.84a19.14,19.14,0,0,0-7.12,1.31c-3.61,1.46-6,4-6.84,7-1.68,6.56,4.47,13.83,13.71,16.21s18.15-1,19.84-7.57S604.7,605,595.45,602.62a23.63,23.63,0,0,0-5.88-.77"/><path class="cls-6" d="M584.12,598.2s.32,1.49-.32,13.22c-.2,3.68,12.71,7.13,16.05,3.79s2-6.81,2.8-19.36-18.53,2.35-18.53,2.35"/><path class="cls-8" d="M602.65,595.85s-3.18,11.64-18.85,16.1l.24-10.57Z"/><path class="cls-6" d="M612.58,566.29a28.49,28.49,0,1,1-34.71-20.45,28.49,28.49,0,0,1,34.71,20.45"/><path class="cls-8" d="M591.54,574.47s-15.68,6.72-26.54,6.8-8.47-9-8.47-9l32.24-4.66Z"/><path class="cls-9" d="M561.76,576.24s13.66-5.8,25.65-3.38a12.53,12.53,0,0,1,7.24,4.3,4.29,4.29,0,0,0,2.19,1.59c2.13.48,5.61-8.34,9.74-8.54s6.89,2.72,3.5,8.15-2.24,11.49-.68,12.36,18.09-11.79,3.51-40.68-51.63-13.33-57.39-7.47c0,0-6.07,5.29-11,.58,0,0-5.53,41.44,17.25,33.09"/><path class="cls-6" d="M614.47,695.69v21.67a8.86,8.86,0,0,1-2.88,6.53l-44.52,40.59,5.06,7.73L630.67,732a12,12,0,0,0,4.87-8.43l4.22-40.22Z"/><path class="cls-3" d="M632.1,626.26s13.51,20.31,18.54,73.78c0,0-23.07,7.46-36.17,3.22s17.63-77,17.63-77"/><path class="cls-9" d="M612,651.94s-5.28,28.3-5.58,41.6a8.49,8.49,0,0,0,5.58,8.2Z"/><path class="cls-1" d="M600.45,792.66l-9.84-1.3-63.52-36.67c-2-1.18-5.59-1-7.94.32l-45,26-5.95-.78v5.92h0a2.35,2.35,0,0,0,1.37,2.09l72,41.56c2,1.17,5.59,1,7.94-.33l49-28.29c1.32-.77,2-1.75,1.94-2.67Z"/><path class="cls-2" d="M552.73,769.49l-4.52-2.61H498.6L474.14,781l-5.95-.78v5.92h0a2.32,2.32,0,0,0,1.36,2.09l72,41.56a7.44,7.44,0,0,0,4.1.77Z"/><path class="cls-11" d="M470.83,780.56l-2.64-.35v5.92h0a2.35,2.35,0,0,0,1.37,2.09l1.27.73Z"/><path class="cls-12" d="M542.27,830.11a9.14,9.14,0,0,0,6.75-.42V819.62h-6.75Z"/><path class="cls-5" d="M541.55,823.86l-72-41.56c-2-1.18-1.78-3.23.57-4.59l49-28.29c2.35-1.36,5.91-1.51,7.94-.33l72,41.56c2,1.18,1.78,3.23-.57,4.59l-49,28.29c-2.35,1.36-5.91,1.5-7.94.33"/><path class="cls-4" d="M540.33,817.56,480.47,783c-1.69-1-1.48-2.68.48-3.81l26.26-14.77a7.34,7.34,0,0,1,6.61-.28l59.86,34.56c1.69,1,1.48,2.68-.48,3.81l-26.26,14.78a7.37,7.37,0,0,1-6.61.27"/><path class="cls-6" d="M521.93,748.05l-.74,5a36.61,36.61,0,0,0,.32,12.74l.89,4.37a6.16,6.16,0,0,0,4.93,4.84,3.4,3.4,0,0,0,4-3l1.19-10.62s2.72,3.56,4,3.56-1.47-10.64-4.44-16.65-10.16-.25-10.16-.25"/><path class="cls-6" d="M546.33,669.11l-7.72,15.29a30,30,0,0,0-3.16,11.6l-3.36,52.3-10.16-.25-4.61-58.72a22,22,0,0,1,.26-5.43l5.27-29.78Z"/><path class="cls-1" d="M539.11,827.85l-6-7.88L469.6,783.22c-2-1.18-3.68-4.33-3.68-7.05l.06-52-3.65-4.76,3.43-2h0a2.3,2.3,0,0,1,2.49.14l71.93,41.65c2,1.18,3.69,4.33,3.68,7l-.06,56.59c0,1.53-.52,2.59-1.34,3Z"/><path class="cls-2" d="M495.21,798.05l-4.51-2.61-24.75-43,0-28.24-3.66-4.76,3.43-2h0a2.3,2.3,0,0,1,2.49.14l71.93,41.65a7.39,7.39,0,0,1,2.71,3.17Z"/><path class="cls-11" d="M464,721.55l-1.62-2.11,3.43-2h0a2.3,2.3,0,0,1,2.49.14l1.27.73Z"/><path class="cls-12" d="M540.84,759.71a9.26,9.26,0,0,1,3,6.06l-7,4.06L533.44,764Z"/><path class="cls-5" d="M536.76,761.23l-71.94-41.65c-2-1.17-3.69.07-3.69,2.79L461.07,779c0,2.72,1.64,5.87,3.68,7l71.93,41.65c2,1.18,3.69-.07,3.69-2.78l.07-56.6c0-2.71-1.65-5.87-3.68-7"/><path class="cls-6" d="M572.13,772.21,571,774.6a16,16,0,0,1-6,6.67l-7.14,4.4a7.13,7.13,0,0,1-7.3.17l-.24-.15a4.29,4.29,0,0,1-.61-6.6l7.47-7.68s-4.2,3.22-5.37,1.92c-.87-1,4.07-5.58,7.85-5.73s7.45-3.12,7.45-3.12Z"/><path class="cls-3" d="M553.19,599.05s-27.37,29.78-38.41,57.11c0,0,9.36,16.86,32.27,23.48s6.14-80.59,6.14-80.59"/><path class="cls-9" d="M541.9,677.87,546.33,635l-10.45,40.16a59.89,59.89,0,0,0,6,2.7"/><path class="cls-1" d="M201.27,858.48h0V841.82l-88.5-.05.61,0c-7-4-19.28-3.54-27.39,1.14l2.62-1.1L0,841.74v17.79c-.2,2.74,1.33,5.39,4.7,7.34l83.18,48.4c7,4.05,19.29,3.54,27.39-1.14l79.29-46.19c4.68-2.7,6.93-6.2,6.67-9.46"/><path class="cls-2" d="M100.67,839A31.57,31.57,0,0,0,86,842.89l2.62-1.1L0,841.74v17.79c-.2,2.74,1.33,5.39,4.7,7.34l83.18,48.4c3.38,1.94,8,2.83,12.71,2.71Z"/><path class="cls-3" d="M10.06,841.75H0v17.79c-.2,2.74,1.33,5.39,4.7,7.34l5.32,3.07Z"/><path class="cls-1" d="M89.69,916.13c6,2.59,14.81,2.45,21.89-.25V892.6H89.69Z"/><path class="cls-4" d="M87.92,897.63,4.74,849.23c-7-4.06-6.14-11.14,2-15.82L86,787.22c8.11-4.68,20.37-5.19,27.39-1.14l83.19,48.4c7,4,6.14,11.13-2,15.81l-79.29,46.2c-8.1,4.68-20.37,5.19-27.39,1.14"/><path class="cls-9" d="M104.05,832.66,79.59,818.43c-3.27-1.88-3.27-4.94,0-6.83a13.07,13.07,0,0,1,11.84,0l24.47,14.22c3.27,1.89,3.27,4.95,0,6.84a13.07,13.07,0,0,1-11.84,0"/><path class="cls-9" d="M137.94,851.78,123.09,843c-3.27-1.89-3.27-4.95,0-6.84a13.13,13.13,0,0,1,11.84,0l14.85,8.76c3.27,1.89,3.27,4.95,0,6.84a13.07,13.07,0,0,1-11.84,0"/><path class="cls-9" d="M69.76,841.4l-14.85-8.76c-3.27-1.89-3.27-4.95,0-6.84a13.11,13.11,0,0,1,11.83,0l14.85,8.76c3.27,1.89,3.27,5,0,6.84a13.07,13.07,0,0,1-11.84,0"/><path class="cls-3" d="M784.83,193.79l-29.37-17a8.41,8.41,0,0,1-3.59-8.7c.75-3.23,3.56-4.57,6.29-3l29.36,17a8.41,8.41,0,0,1,3.59,8.7c-.75,3.23-3.56,4.57-6.28,3"/><path class="cls-3" d="M854.78,234.18l-43.3-25a8.39,8.39,0,0,1-3.59-8.69c.75-3.23,3.56-4.58,6.29-3l43.3,25a8.41,8.41,0,0,1,3.59,8.7c-.75,3.23-3.56,4.57-6.29,3"/><path class="cls-3" d="M733.63,330.88l-29.37-17a8.4,8.4,0,0,1-3.58-8.7c.74-3.23,3.56-4.57,6.28-3l29.37,17a8.38,8.38,0,0,1,3.58,8.7c-.74,3.23-3.55,4.57-6.28,3"/><path class="cls-3" d="M796,366.88l-43.3-25a8.41,8.41,0,0,1-3.59-8.7c.75-3.23,3.56-4.57,6.29-3l43.3,25a8.41,8.41,0,0,1,3.59,8.7c-.75,3.23-3.56,4.57-6.29,3"/><path class="cls-3" d="M698.19,171.54,679.84,161a8.41,8.41,0,0,1-3.58-8.7c.74-3.23,3.56-4.57,6.28-3l18.35,10.59a8.41,8.41,0,0,1,3.58,8.7c-.74,3.23-3.56,4.57-6.28,3"/><path class="cls-3" d="M754.73,232,698.68,199.6a8.41,8.41,0,0,1-3.59-8.7c.75-3.23,3.56-4.57,6.29-3l56,32.36A8.41,8.41,0,0,1,761,229c-.75,3.23-3.56,4.57-6.29,3"/><path class="cls-3" d="M705.71,259.21l-18.35-10.6a8.38,8.38,0,0,1-3.58-8.69c.74-3.23,3.56-4.58,6.28-3l18.35,10.59a8.4,8.4,0,0,1,3.58,8.7c-.74,3.23-3.56,4.57-6.28,3"/><path class="cls-3" d="M805.43,427.88l-49-28.29a8.39,8.39,0,0,1-3.58-8.7c.74-3.23,3.55-4.57,6.28-3l49,28.29a8.39,8.39,0,0,1,3.58,8.7c-.74,3.23-3.55,4.57-6.28,3"/><path class="cls-3" d="M687.82,304.43l-11.77-6.8a8.41,8.41,0,0,1-3.59-8.7c.75-3.23,3.56-4.57,6.29-3l11.77,6.8a8.41,8.41,0,0,1,3.59,8.7c-.75,3.23-3.56,4.57-6.29,3"/><path class="cls-3" d="M679.36,355.09l-14.63-8.44a8.41,8.41,0,0,1-3.58-8.7c.75-3.23,3.56-4.57,6.28-3l14.63,8.44a8.41,8.41,0,0,1,3.58,8.7c-.74,3.23-3.56,4.57-6.28,3"/><path class="cls-3" d="M736.25,387.94l-38.56-22.26a8.42,8.42,0,0,1-3.58-8.7c.75-3.23,3.56-4.57,6.29-3L739,376.24a8.41,8.41,0,0,1,3.59,8.7c-.75,3.23-3.56,4.57-6.29,3"/><path class="cls-3" d="M686.8,387.16l-27.72-16a8.39,8.39,0,0,1-3.59-8.69c.75-3.23,3.56-4.58,6.29-3l27.72,16a8.41,8.41,0,0,1,3.58,8.7c-.74,3.23-3.56,4.57-6.28,3"/><path class="cls-3" d="M847.48,452.27,829.67,442a8.41,8.41,0,0,1-3.58-8.7c.75-3.23,3.56-4.57,6.28-3l17.81,10.28a8.38,8.38,0,0,1,3.58,8.69c-.74,3.23-3.56,4.58-6.28,3"/><path class="cls-3" d="M774,298.61l-49-28.29a8.41,8.41,0,0,1-3.58-8.7c.74-3.23,3.56-4.57,6.28-3l49,28.29a8.41,8.41,0,0,1,3.59,8.7c-.75,3.23-3.56,4.57-6.29,3"/><path class="cls-3" d="M778.43,273.41,693,224.1a8.37,8.37,0,0,1-3.58-8.69c.74-3.23,3.55-4.58,6.28-3l85.4,49.31a8.39,8.39,0,0,1,3.59,8.69c-.75,3.23-3.56,4.58-6.28,3"/><path class="cls-3" d="M730.71,301.41l-49-28.29a8.42,8.42,0,0,1-3.58-8.7c.75-3.23,3.56-4.57,6.28-3l49,28.3a8.38,8.38,0,0,1,3.58,8.69c-.74,3.23-3.56,4.58-6.28,3"/><path class="cls-3" d="M811.12,320.07l-17.8-10.28a8.41,8.41,0,0,1-3.59-8.7c.75-3.23,3.56-4.57,6.29-3l17.8,10.28a8.38,8.38,0,0,1,3.58,8.7c-.74,3.23-3.55,4.57-6.28,3"/><path class="cls-3" d="M986.87,310.44,881.43,249.57a8.42,8.42,0,0,1-3.58-8.7c.75-3.23,3.56-4.57,6.29-3l105.43,60.87a8.4,8.4,0,0,1,3.58,8.7c-.74,3.23-3.56,4.57-6.28,3"/><path class="cls-3" d="M729.29,356.15l-58.9-34a8.41,8.41,0,0,1-3.58-8.7c.74-3.23,3.56-4.57,6.28-3l58.9,34a8.41,8.41,0,0,1,3.59,8.7c-.75,3.23-3.56,4.57-6.29,3"/><path class="cls-3" d="M728.8,161.44l-43.3-25a8.41,8.41,0,0,1-3.59-8.7c.75-3.23,3.56-4.57,6.29-3l43.3,25a8.39,8.39,0,0,1,3.59,8.69c-.75,3.23-3.56,4.58-6.29,3"/><path class="cls-3" d="M679.08,410.48l-50.15-29a8.4,8.4,0,0,1-3.59-8.7c.75-3.23,3.56-4.57,6.29-3l50.15,29a8.41,8.41,0,0,1,3.59,8.7c-.75,3.23-3.56,4.57-6.29,3"/><path class="cls-3" d="M1015.78,598.33l-29.37-17a8.42,8.42,0,0,1-3.58-8.7c.75-3.23,3.56-4.58,6.28-3l29.37,17a8.39,8.39,0,0,1,3.59,8.69c-.75,3.23-3.56,4.57-6.29,3"/><path class="cls-3" d="M1036.89,499.42l-56.06-32.37a8.37,8.37,0,0,1-3.58-8.69c.74-3.23,3.55-4.58,6.28-3l56.06,32.36a8.42,8.42,0,0,1,3.58,8.7c-.75,3.23-3.56,4.57-6.28,3"/><path class="cls-3" d="M987.86,526.66l-18.35-10.59a8.42,8.42,0,0,1-3.58-8.7c.75-3.23,3.56-4.57,6.28-3L990.56,515a8.39,8.39,0,0,1,3.59,8.69c-.75,3.23-3.56,4.58-6.29,3"/><path class="cls-3" d="M970,571.89l-11.78-6.8a8.41,8.41,0,0,1-3.58-8.7c.74-3.23,3.56-4.57,6.28-3l11.78,6.8a8.4,8.4,0,0,1,3.58,8.7c-.75,3.23-3.56,4.57-6.28,3"/><path class="cls-3" d="M1056.11,566.06l-49-28.29a8.39,8.39,0,0,1-3.59-8.69c.75-3.23,3.56-4.58,6.29-3l49,28.29a8.39,8.39,0,0,1,3.58,8.69c-.74,3.23-3.56,4.58-6.28,3"/><path class="cls-3" d="M1060.58,540.87l-85.41-49.31a8.4,8.4,0,0,1-3.58-8.7c.74-3.23,3.56-4.57,6.28-3l85.41,49.31a8.41,8.41,0,0,1,3.58,8.7c-.74,3.23-3.56,4.57-6.28,3"/><path class="cls-3" d="M1012.86,568.87l-49-28.29a8.41,8.41,0,0,1-3.59-8.7c.75-3.23,3.56-4.57,6.29-3l49,28.29a8.39,8.39,0,0,1,3.58,8.7c-.74,3.23-3.55,4.57-6.28,3"/><path class="cls-3" d="M1011.45,623.6l-58.91-34A8.38,8.38,0,0,1,949,580.9c.74-3.23,3.56-4.58,6.28-3l58.91,34a8.38,8.38,0,0,1,3.58,8.69c-.74,3.23-3.56,4.58-6.28,3"/><path class="cls-1" d="M1006.93,1007.79h0V991.12l-88.49,0,.61,0c-7-4-19.29-3.54-27.39,1.14l2.62-1.09-88.58-.05v17.78c-.2,2.75,1.33,5.4,4.7,7.34l83.19,48.4c7,4,19.28,3.55,27.39-1.13l79.28-46.2c4.68-2.7,6.94-6.2,6.67-9.45"/><path class="cls-1" d="M906.34,988.34a31.53,31.53,0,0,0-14.68,3.85l2.62-1.09-88.58-.05v17.78c-.2,2.75,1.33,5.4,4.7,7.34l83.19,48.4c3.37,2,8,2.83,12.71,2.72Z"/><path class="cls-3" d="M815.73,991.05h-10v17.78c-.2,2.75,1.33,5.4,4.7,7.34l5.33,3.07Z"/><path class="cls-3" d="M895.35,1065.43c6.06,2.6,14.81,2.45,21.89-.25V1041.9H895.35Z"/><path class="cls-2" d="M893.59,1046.93l-83.19-48.4c-7-4-6.14-11.13,2-15.81l79.29-46.2c8.1-4.68,20.36-5.19,27.39-1.13l83.18,48.4c7,4.05,6.14,11.13-2,15.81L921,1045.8c-8.11,4.68-20.37,5.18-27.39,1.13"/><path class="cls-3" d="M909.09,984.49l-24.47-14.22c-3.27-1.89-3.27-4.95,0-6.84a13.13,13.13,0,0,1,11.84,0l24.46,14.23c3.27,1.88,3.27,5,0,6.83a13,13,0,0,1-11.83,0"/><path class="cls-3" d="M944.64,1005.28l-14.85-8.76c-3.26-1.89-3.26-4.95,0-6.84a13.13,13.13,0,0,1,11.84,0l14.85,8.77c3.27,1.88,3.27,4.94,0,6.83a13.07,13.07,0,0,1-11.84,0"/><path class="cls-3" d="M874.79,993.23l-14.85-8.76c-3.27-1.89-3.27-5,0-6.84a13.1,13.1,0,0,1,11.84,0l14.85,8.76c3.27,1.89,3.27,5,0,6.83a13.07,13.07,0,0,1-11.84,0"/></svg>