<svg id="Camada_1" data-name="Camada 1" xmlns="http://www.w3.org/2000/svg" viewBox="0 0 512 512"><defs><style>.cls-1{fill:#fff;}.cls-2{fill:#01547a;}</style></defs><title>instagram</title><circle class="cls-1" cx="256" cy="256" r="256"/><path class="cls-2" d="M371.6,208.47c-.54-12.26-2.52-20.69-5.36-28a59.11,59.11,0,0,0-33.76-33.76c-7.35-2.84-15.73-4.82-28-5.36s-16.27-.72-47.6-.72-35.24.13-47.55.67-20.68,2.53-28,5.37a59,59,0,0,0-33.76,33.76c-2.84,7.34-4.83,15.73-5.37,28s-.72,16.27-.72,47.59.14,35.25.68,47.55,2.52,20.69,5.36,28a59.11,59.11,0,0,0,33.76,33.76c7.35,2.84,15.73,4.82,28,5.36s16.23.68,47.55.68,35.25-.13,47.55-.68,20.69-2.52,28-5.36a59,59,0,0,0,33.76-33.76c2.84-7.34,4.82-15.73,5.36-28s.68-16.22.68-47.55S372.14,220.78,371.6,208.47Zm-20.77,94.2c-.5,11.27-2.39,17.35-4,21.41A38.31,38.31,0,0,1,325,346c-4.05,1.57-10.18,3.47-21.41,4-12.17.54-15.82.68-46.6.68s-34.48-.14-46.6-.68c-11.27-.49-17.36-2.39-21.41-4a38.05,38.05,0,0,1-21.86-21.86c-1.58-4.06-3.47-10.19-4-21.41-.54-12.17-.67-15.82-.67-46.61s.13-34.48.67-46.6c.5-11.27,2.39-17.35,4-21.41a34.88,34.88,0,0,1,8.65-13.25A35.91,35.91,0,0,1,189,166.24c4.06-1.58,10.19-3.47,21.41-4,12.17-.54,15.82-.67,46.6-.67s34.48.13,46.61.67c11.27.5,17.35,2.39,21.41,4a38.05,38.05,0,0,1,21.86,21.86c1.58,4.06,3.47,10.18,4,21.41.54,12.17.67,15.82.67,46.6S351.37,290.5,350.83,302.67Z" transform="translate(0 0)"/><path class="cls-2" d="M256.89,196.75A59.27,59.27,0,1,0,316.16,256,59.28,59.28,0,0,0,256.89,196.75Zm0,97.72A38.45,38.45,0,1,1,295.34,256,38.45,38.45,0,0,1,256.89,294.47Z" transform="translate(0 0)"/><path class="cls-2" d="M332.35,194.41a13.84,13.84,0,1,1-13.84-13.84A13.84,13.84,0,0,1,332.35,194.41Z" transform="translate(0 0)"/></svg>