<svg id="Camada_1" data-name="Camada 1" xmlns="http://www.w3.org/2000/svg" viewBox="0 0 1269.81 168.82"><defs><style>.cls-1{fill:#fff;}.cls-2{fill:#6afcd7;}</style></defs><title>logo</title><path class="cls-1" d="M51.12,35.14H16.57A16.57,16.57,0,0,1,16.57,2H121.62a16.57,16.57,0,0,1,0,33.14H87.07V148.83a18,18,0,0,1-35.95,0Z"/><path class="cls-1" d="M248.36,54.55v95.58c0,9.48-6.58,16.06-16.06,16.06-9.21,0-15.8-6.06-16.32-14.74-9,10.79-21.86,17.37-38.45,17.37-33.44,0-60.55-27.12-60.55-66.61,0-37.92,25.54-66.35,60.55-66.35,16.59,0,29.49,6,38.45,16.58C217,44,223.35,38.49,232.3,38.49,241.78,38.49,248.36,45.07,248.36,54.55ZM216,102.21c0-20.28-14-36.34-33.18-36.34-19.48,0-33.7,16.06-33.7,36.34s14.22,36.6,33.7,36.6C202,138.81,216,122.48,216,102.21Z"/><path class="cls-1" d="M278.6,153.49a14.13,14.13,0,0,1-6.77-12.13,13.76,13.76,0,0,1,14-14,13.57,13.57,0,0,1,7,1.87c11.91,7.47,23.81,11.2,33.85,11.2,10.27,0,14.94-3.73,14.94-9.33v-.47c0-7.71-12.14-10.27-25.91-14.47-17.51-5.14-37.35-13.31-37.35-37.59V78.1c0-25.45,20.54-39.69,45.75-39.69A88,88,0,0,1,362.87,48a14.46,14.46,0,0,1,8.41,13.31,14,14,0,0,1-14.24,14,12.91,12.91,0,0,1-6.54-1.63c-10-4.9-19.61-7.94-27.08-7.94-8.64,0-13.07,3.74-13.07,8.64v.47c0,7,11.9,10.27,25.44,14.94,17.51,5.83,37.82,14.24,37.82,37.11v.47c0,27.78-20.78,40.38-47.85,40.38A87.18,87.18,0,0,1,278.6,153.49Z"/><path class="cls-1" d="M393.45,18.1A17.73,17.73,0,0,1,412,.38c9.58.41,16.95,8.69,16.95,18.28V88.83l44.35-42c5.14-4.91,9.34-7.94,15.64-7.94,9.58,0,15.64,7.7,15.64,15.87,0,6.07-3.26,10.74-8.17,15.41l-28,24,33.38,45.05c3,4.21,4.44,7.48,4.44,11.44,0,9.57-7.7,16.11-16.58,16.11-7,0-11.2-2.33-15.4-8.17l-31.05-42.72-14.24,12.84v19.81c0,9.56-7.35,17.78-16.9,18.22a17.74,17.74,0,0,1-18.58-17.72Z"/><path class="cls-1" d="M582.06,168.2c-37.58,0-65.36-26.38-65.36-64.66v-.47c0-35.71,25.45-65.13,61.86-65.13,41.79,0,60.23,34.32,60.23,60.23,0,10.27-7.24,17-16.58,17H552c3.5,16.11,14.71,24.51,30.58,24.51a40.94,40.94,0,0,0,25.21-8.4,13.23,13.23,0,0,1,8.64-2.8c7.94,0,13.77,6.07,13.77,14A13.94,13.94,0,0,1,625.48,153C614.51,162.37,600.27,168.2,582.06,168.2ZM604.94,93c-2.1-15.88-11.44-26.62-26.38-26.62-14.7,0-24.28,10.51-27.08,26.62Z"/><path class="cls-1" d="M786.31,54.55v95.58c0,9.48-6.59,16.06-16.07,16.06-9.21,0-15.79-6.06-16.32-14.74-8.95,10.79-21.85,17.37-38.44,17.37-33.44,0-60.56-27.12-60.56-66.61,0-37.92,25.54-66.35,60.56-66.35,16.59,0,29.49,6,38.44,16.58C755,44,761.29,38.49,770.24,38.49,779.72,38.49,786.31,45.07,786.31,54.55Zm-32.39,47.66c0-20.28-14-36.34-33.18-36.34-19.48,0-33.7,16.06-33.7,36.34s14.22,36.6,33.7,36.6C740,138.81,753.92,122.48,753.92,102.21Z"/><path class="cls-1" d="M805.6,56.62a17.74,17.74,0,0,1,35.48,0V58c8.17-10.5,18.67-20.08,36.65-20.08,26.84,0,42.48,17.75,42.48,46.46v64.66a17.74,17.74,0,0,1-35.48,0V95.6c0-16.8-7.94-25.44-21.48-25.44S841.08,78.8,841.08,95.6v53.46a17.74,17.74,0,1,1-35.48,0Z"/><path class="cls-1" d="M1068,149.06a17.74,17.74,0,1,1-35.48,0v-1.63c-8.64,11.67-20.54,20.3-39,20.3-29.18,0-57-22.87-57-64.66v-.46c0-41.79,27.31-64.67,57-64.67,18.9,0,30.58,8.64,39,18.68V18.12a17.74,17.74,0,1,1,35.48,0ZM972,102.61v.46c0,20.78,14,34.55,30.58,34.55S1033,123.85,1033,103.07v-.46c0-20.78-13.78-34.55-30.35-34.55S972,81.6,972,102.61Z"/><path class="cls-1" d="M1084.77,103.54v-.47c0-35.95,29-65.13,67.93-65.13,38.75,0,67.46,28.72,67.46,64.67v.46c0,36-28.94,65.13-67.92,65.13C1113.49,168.2,1084.77,139.49,1084.77,103.54Zm100.38,0v-.47c0-18.44-13.31-34.55-32.91-34.55-20.31,0-32.45,15.64-32.45,34.09v.46c0,18.44,13.3,34.55,32.91,34.55C1173,137.62,1185.15,122,1185.15,103.54Z"/><circle class="cls-2" cx="1241.42" cy="28.39" r="28.39"/></svg>