<svg id="Camada_1" data-name="Camada 1" xmlns="http://www.w3.org/2000/svg" xmlns:xlink="http://www.w3.org/1999/xlink" viewBox="0 0 1358.23 1161.24"><defs><style>.cls-1,.cls-21,.cls-22,.cls-6{fill:none;}.cls-2{fill:#2a4b62;}.cls-3{fill:#396380;}.cls-4{clip-path:url(#clip-path);}.cls-5{fill:url(#Gradiente_sem_nome_11);}.cls-6{stroke:#fff;stroke-width:0.5px;}.cls-21,.cls-22,.cls-6{stroke-linecap:round;stroke-linejoin:round;}.cls-7{clip-path:url(#clip-path-2);}.cls-8{fill:url(#Gradiente_sem_nome_2);}.cls-9{fill:#80b392;}.cls-10{fill:#b3d2ca;}.cls-11{fill:#84b79d;}.cls-12{fill:#fff;}.cls-13{fill:#2d5173;}.cls-14{clip-path:url(#clip-path-3);}.cls-15{fill:url(#Gradiente_sem_nome_4);}.cls-16{clip-path:url(#clip-path-4);}.cls-17{fill:url(#Gradiente_sem_nome_4-2);}.cls-18{clip-path:url(#clip-path-5);}.cls-19{fill:url(#Gradiente_sem_nome_5);}.cls-20{fill:#6e91c6;}.cls-21{stroke:#2d5173;stroke-width:0.84px;}.cls-22{stroke:#80b392;stroke-width:1.69px;}.cls-23{fill:#bdc4e1;}.cls-24{clip-path:url(#clip-path-6);}.cls-25{fill:url(#Gradiente_sem_nome_8);}.cls-26{clip-path:url(#clip-path-7);}.cls-27{fill:url(#Gradiente_sem_nome_8-2);}.cls-28{clip-path:url(#clip-path-8);}.cls-29{fill:url(#Gradiente_sem_nome_8-3);}.cls-30{fill:#35437a;}.cls-31{fill:#2c4f66;}.cls-32{clip-path:url(#clip-path-9);}.cls-33{fill:url(#Gradiente_sem_nome_11-2);}.cls-34{clip-path:url(#clip-path-10);}.cls-35{fill:url(#Gradiente_sem_nome_10);}.cls-36{clip-path:url(#clip-path-11);}.cls-37{fill:url(#Gradiente_sem_nome_11-3);}.cls-38{fill:#7b88bd;}.cls-39{fill:#325566;}</style><clipPath id="clip-path" transform="translate(111.88)"><polygon class="cls-1" points="1202.31 119.27 1201.15 528.42 748.16 266.89 748.88 14.27 823.99 76.35 900.61 57.25 975.44 127.32 1024.49 60.52 1121.83 133.61 1202.31 119.27"/></clipPath><linearGradient id="Gradiente_sem_nome_11" x1="6115.1" y1="1065.99" x2="6116.1" y2="1065.99" gradientTransform="matrix(454.14, 0, 0, -454.14, -2776279.09, 484386.18)" gradientUnits="userSpaceOnUse"><stop offset="0" stop-color="#fff"/><stop offset="1" stop-color="#2d5173"/></linearGradient><clipPath id="clip-path-2" transform="translate(111.88)"><polygon class="cls-1" points="1024.8 150.63 1051.06 165.78 1051.06 364.74 1094.53 389.83 1094.53 190.88 1120.78 206.04 1072.79 121.29 1024.8 150.63"/></clipPath><linearGradient id="Gradiente_sem_nome_2" x1="6116.81" y1="1034.9" x2="6117.81" y2="1034.9" gradientTransform="matrix(0, 185.94, 185.94, 0, -191359.69, -1137268.73)" gradientUnits="userSpaceOnUse"><stop offset="0" stop-color="#fff"/><stop offset="1" stop-color="#80b494"/></linearGradient><clipPath id="clip-path-3" transform="translate(111.88)"><polygon class="cls-1" points="1093.13 712.38 1119.17 727.41 934.38 850.12 977.5 875.02 1162.3 752.31 1188.34 767.34 1193.72 704.67 1093.13 712.38"/></clipPath><linearGradient id="Gradiente_sem_nome_4" x1="6104.74" y1="1065.71" x2="6105.74" y2="1065.71" gradientTransform="matrix(259.34, 0, 0, -259.34, -1582150.07, 277171.04)" gradientUnits="userSpaceOnUse"><stop offset="0" stop-color="#fff"/><stop offset="1" stop-color="#2a4b62"/></linearGradient><clipPath id="clip-path-4" transform="translate(111.88)"><polygon class="cls-1" points="611.37 883.19 621.65 889.13 548.68 937.59 565.71 947.42 638.68 898.96 648.96 904.9 651.09 880.15 611.37 883.19"/></clipPath><linearGradient id="Gradiente_sem_nome_4-2" x1="6067.72" y1="1064.72" x2="6068.72" y2="1064.72" gradientTransform="matrix(102.41, 0, 0, -102.41, -620746.36, 109953.62)" xlink:href="#Gradiente_sem_nome_4"/><clipPath id="clip-path-5" transform="translate(111.88)"><path class="cls-1" d="M318,537.67,834.4,835.8l79.09-45.66A115.54,115.54,0,0,1,909,769.7c-3-22.93-1.37-46.23-10.45-68.62-13.2-32.58-49.82-61.78-99.31-79.19C739.62,600.91,662,596,615.42,566c-38.21-24.59-46.42-60.68-81.71-86.69-17.08-12.59-40.41-22.18-66.29-27.84Z"/></clipPath><linearGradient id="Gradiente_sem_nome_5" x1="6123.12" y1="1060.82" x2="6124.12" y2="1060.82" gradientTransform="matrix(516.37, 298.14, 596.27, -344.29, -3793955.16, -1459847.51)" gradientUnits="userSpaceOnUse"><stop offset="0" stop-color="#fff"/><stop offset="1" stop-color="#80b392"/></linearGradient><clipPath id="clip-path-6" transform="translate(111.88)"><polygon class="cls-1" points="544.24 785.08 573.84 802.17 363.74 941.69 412.77 970 622.87 830.48 652.48 847.57 658.6 776.32 544.24 785.08"/></clipPath><linearGradient id="Gradiente_sem_nome_8" x1="6107.65" y1="1065.79" x2="6108.65" y2="1065.79" gradientTransform="matrix(294.86, 0, 0, -294.86, -1800428.88, 315133.31)" gradientUnits="userSpaceOnUse"><stop offset="0" stop-color="#fff"/><stop offset="1" stop-color="#84b79d"/></linearGradient><clipPath id="clip-path-7" transform="translate(111.88)"><path class="cls-1" d="M549,261.1l27,15.61.19,66c.12,42.84-30.12,95.21-67.4,116.73-18.77,10.84-35.8,11.83-48.1,4.68L512.22,494c12.3,7.15,29.33,6.16,48.1-4.68,37.28-21.53,67.52-73.89,67.4-116.73l-.19-66.21,35.18,20.32L605.87,226.35Z"/></clipPath><linearGradient id="Gradiente_sem_nome_8-2" x1="6097.88" y1="1065.52" x2="6098.88" y2="1065.52" gradientTransform="matrix(201.96, 0, 0, -201.96, -1230925.36, 215551.82)" xlink:href="#Gradiente_sem_nome_8"/><clipPath id="clip-path-8" transform="translate(111.88)"><path class="cls-1" d="M374.82,383.73c-38.11,22-69,75.51-68.88,119.3l51.46,29.91c-.12-43.79,30.77-97.3,68.88-119.3,19.17-11.07,36.58-12.08,49.15-4.78L424,379a35.73,35.73,0,0,0-18.2-4.68c-9.33,0-19.84,3-30.95,9.45"/></clipPath><linearGradient id="Gradiente_sem_nome_8-3" x1="6091.93" y1="1065.37" x2="6092.93" y2="1065.37" gradientTransform="matrix(169.49, 0, 0, -169.49, -1032081.07, 181019.18)" xlink:href="#Gradiente_sem_nome_8"/><clipPath id="clip-path-9" transform="translate(111.88)"><path class="cls-1" d="M5.52,759.17c-7.16,4.16-7.11,10.89.08,15L236.28,907.39c7.18,4.15,18.8,4.16,26,0l44.77-26L50.29,733.16Z"/></clipPath><linearGradient id="Gradiente_sem_nome_11-2" x1="6108.48" y1="1065.81" x2="6109.48" y2="1065.81" gradientTransform="matrix(306.82, 0, 0, -306.82, -1874114.97, 327839.35)" xlink:href="#Gradiente_sem_nome_11"/><clipPath id="clip-path-10" transform="translate(111.88)"><polygon class="cls-1" points="50.28 733.16 307 881.37 621.63 698.53 364.92 550.31 50.28 733.16"/></clipPath><linearGradient id="Gradiente_sem_nome_10" x1="6121.36" y1="1059.87" x2="6122.36" y2="1059.87" gradientTransform="matrix(0, 629.55, 629.55, 0, -666902.76, -3853318.88)" gradientUnits="userSpaceOnUse"><stop offset="0" stop-color="#fff"/><stop offset="1" stop-color="#6273af"/></linearGradient><clipPath id="clip-path-11" transform="translate(111.88)"><path class="cls-1" d="M387.67,537.09l-22.75,13.22L621.64,698.53l22.75-13.22c7.16-4.16,6.78-10.7-.4-14.85L413.31,537.28a26.79,26.79,0,0,0-13.15-3.21,25.29,25.29,0,0,0-12.49,3"/></clipPath><linearGradient id="Gradiente_sem_nome_11-3" x1="6106.89" y1="1065.77" x2="6107.89" y2="1065.77" gradientTransform="matrix(284.65, 0, 0, -284.65, -1737859.17, 303990.18)" xlink:href="#Gradiente_sem_nome_11"/></defs><title>marketing-digital</title><polygon class="cls-2" points="860.76 14.27 885.3 0 960.41 62.08 935.87 76.35 860.76 14.27"/><polygon class="cls-3" points="935.87 76.35 960.41 62.08 1037.03 42.98 1012.48 57.25 935.87 76.35"/><polygon class="cls-2" points="1012.48 57.24 1037.03 42.98 1111.86 113.06 1087.32 127.32 1012.48 57.24"/><polygon class="cls-2" points="1136.37 60.52 1160.92 46.26 1258.26 119.35 1233.71 133.61 1136.37 60.52"/><polygon class="cls-2" points="1314.19 119.27 1338.73 105 1337.57 514.16 1313.03 528.42 1314.19 119.27"/><g class="cls-4"><rect class="cls-5" x="860.04" y="14.27" width="454.14" height="514.16"/></g><polygon class="cls-3" points="1233.71 133.61 1258.26 119.35 1338.73 105 1314.19 119.27 1233.71 133.61"/><line class="cls-6" x1="1136.37" y1="60.87" x2="1136.37" y2="423.12"/><line class="cls-6" x1="1012.48" y1="57.6" x2="1012.48" y2="355.17"/><line class="cls-6" x1="1233.71" y1="133.96" x2="1233.71" y2="480.64"/><line class="cls-6" x1="935.87" y1="76.7" x2="935.87" y2="310.26"/><g class="cls-7"><rect class="cls-8" x="976.97" y="113.15" width="191.65" height="284.82" transform="translate(95.91 431.08) rotate(-22.56)"/></g><polygon class="cls-9" points="818.83 68.5 843.38 54.24 909.2 148.72 884.65 162.98 818.83 68.5"/><polygon class="cls-10" points="884.65 162.98 909.2 148.72 994.84 165.78 970.3 180.05 884.65 162.98"/><polygon class="cls-9" points="970.3 180.05 994.85 165.78 1116.53 306.34 1091.99 320.6 970.3 180.05"/><polygon class="cls-10" points="1091.99 320.6 1116.53 306.34 1189.18 288.08 1164.63 302.35 1091.99 320.6"/><polygon class="cls-11" points="818.83 68.5 884.65 162.98 970.3 180.05 1091.99 320.6 1164.64 302.35 1270.01 379.29 1269.5 557.7 818.18 297.13 818.83 68.5"/><polygon class="cls-9" points="1164.64 302.35 1189.18 288.08 1294.56 365.03 1270.01 379.29 1164.64 302.35"/><polygon class="cls-10" points="1270.01 379.29 1294.56 365.03 1294.05 543.43 1269.5 557.7 1270.01 379.29"/><line class="cls-6" x1="970.3" y1="180.4" x2="970.3" y2="384.22"/><line class="cls-6" x1="1164.64" y1="302.7" x2="1164.64" y2="499.99"/><line class="cls-6" x1="884.65" y1="163.33" x2="884.65" y2="337.34"/><line class="cls-6" x1="1091.99" y1="320.95" x2="1091.99" y2="452.9"/><path class="cls-12" d="M768.73,161c0-2.58,1.81-3.63,4-2.34a9,9,0,0,1,4,7c0,2.58-1.81,3.63-4,2.34a8.94,8.94,0,0,1-4-7" transform="translate(111.88)"/><path class="cls-12" d="M854.37,178.06c0-2.58,1.82-3.62,4-2.33a8.92,8.92,0,0,1,4.05,7c0,2.58-1.81,3.63-4.05,2.34a9,9,0,0,1-4-7" transform="translate(111.88)"/><path class="cls-12" d="M976.07,318.62c0-2.58,1.81-3.63,4-2.34a9,9,0,0,1,4,7c0,2.58-1.82,3.63-4,2.34a9,9,0,0,1-4-7" transform="translate(111.88)"/><path class="cls-12" d="M1048.71,300.36c0-2.58,1.81-3.62,4-2.33a9,9,0,0,1,4,7c0,2.58-1.82,3.62-4,2.33a8.94,8.94,0,0,1-4-7" transform="translate(111.88)"/><polygon class="cls-2" points="762.82 246.12 787.37 231.85 846.41 235.86 821.86 250.12 762.82 246.12"/><polygon class="cls-13" points="821.86 250.12 846.41 235.86 919.89 318.22 895.34 332.49 821.86 250.12"/><polygon class="cls-2" points="895.34 332.49 919.89 318.22 996.52 328.16 971.98 342.42 895.34 332.49"/><polygon class="cls-13" points="971.98 342.42 996.52 328.16 1065.55 382.21 1041.01 396.47 971.98 342.42"/><polygon class="cls-2" points="1041.01 396.47 1065.55 382.21 1156.08 388.85 1131.54 403.12 1041.01 396.47"/><polygon class="cls-2" points="1214.24 471.55 1238.79 457.28 1238.45 576.69 1213.9 590.96 1214.24 471.55"/><polygon class="cls-13" points="1131.54 403.11 1156.08 388.85 1238.79 457.28 1214.24 471.55 1131.54 403.11"/><polygon class="cls-3" points="1131.54 403.11 1214.24 471.55 1213.9 590.96 762.58 330.39 762.82 246.12 821.86 250.12 895.34 332.49 971.98 342.42 1041.01 396.47 1131.54 403.11"/><line class="cls-6" x1="821.86" y1="250.47" x2="821.86" y2="362.66"/><line class="cls-6" x1="971.98" y1="342.77" x2="971.98" y2="450.08"/><line class="cls-6" x1="1131.54" y1="403.46" x2="1131.54" y2="541.96"/><line class="cls-6" x1="1041" y1="396.82" x2="1041" y2="489.85"/><line class="cls-6" x1="895.34" y1="332.84" x2="895.34" y2="407.39"/><path class="cls-12" d="M1015.61,400c0-2.58,1.81-3.63,4-2.34a9,9,0,0,1,4,7c0,2.58-1.81,3.62-4,2.33a8.92,8.92,0,0,1-4-7" transform="translate(111.88)"/><path class="cls-12" d="M856.05,340.44c0-2.58,1.82-3.63,4.05-2.34a9,9,0,0,1,4,7c0,2.58-1.82,3.62-4,2.33a9,9,0,0,1-4.05-7" transform="translate(111.88)"/><path class="cls-12" d="M705.94,248c0-2.58,1.81-3.63,4-2.34a9,9,0,0,1,4,7c0,2.58-1.81,3.63-4,2.34a8.94,8.94,0,0,1-4-7" transform="translate(111.88)"/><path class="cls-12" d="M925.08,394.8c0-2.58,1.81-3.62,4-2.33a8.93,8.93,0,0,1,4,7c0,2.58-1.81,3.63-4,2.34a8.94,8.94,0,0,1-4-7" transform="translate(111.88)"/><path class="cls-12" d="M779.42,330.5c0-2.58,1.81-3.62,4-2.33a8.92,8.92,0,0,1,4,7c0,2.59-1.81,3.63-4,2.34a9,9,0,0,1-4-7" transform="translate(111.88)"/><g class="cls-14"><rect class="cls-15" x="1046.26" y="704.67" width="259.34" height="170.35"/></g><g class="cls-16"><rect class="cls-17" x="660.56" y="880.15" width="102.41" height="67.27"/></g><g class="cls-18"><polygon class="cls-19" points="727.62 279.51 1358.23 643.61 727.64 1007.71 97.03 643.62 727.62 279.51"/></g><path class="cls-20" d="M706.55,683.61c-22.06-26.57-37.9-56.34-76.1-75.89-34.53-17.66-81.83-24-121.92-37.21-52.45-17.25-91.45-47.16-107.68-80.66L318,537.67,834.4,835.8l45.83-26.46c-69.08-37-133.22-77-173.68-125.73" transform="translate(111.88)"/><polygon class="cls-21" points="759.54 347.35 1275.92 645.48 946.27 835.8 429.89 537.67 759.54 347.35"/><line class="cls-21" x1="990.21" y1="810.44" x2="473.83" y2="512.31"/><line class="cls-21" x1="1037.61" y1="783.07" x2="521.24" y2="484.94"/><line class="cls-21" x1="1085.02" y1="755.7" x2="568.64" y2="457.57"/><line class="cls-21" x1="1132.42" y1="728.33" x2="616.04" y2="430.2"/><line class="cls-21" x1="1179.83" y1="700.96" x2="663.45" y2="402.83"/><line class="cls-21" x1="1227.23" y1="673.59" x2="710.85" y2="375.46"/><line class="cls-21" x1="894.97" y1="806.19" x2="1224.62" y2="615.87"/><line class="cls-21" x1="843.72" y1="776.6" x2="1173.37" y2="586.28"/><line class="cls-21" x1="792.48" y1="747.01" x2="1122.12" y2="556.69"/><line class="cls-21" x1="741.23" y1="717.42" x2="1070.87" y2="527.1"/><line class="cls-21" x1="689.98" y1="687.83" x2="1019.62" y2="497.51"/><line class="cls-21" x1="638.73" y1="658.24" x2="968.38" y2="467.92"/><line class="cls-21" x1="587.48" y1="628.66" x2="917.13" y2="438.34"/><line class="cls-21" x1="536.24" y1="599.07" x2="865.88" y2="408.75"/><line class="cls-21" x1="484.99" y1="569.48" x2="814.63" y2="379.16"/><polyline class="cls-22" points="718.54 434.64 773.63 521.18 969.04 524.53 1026.03 612.17 1175.93 643.97"/><path class="cls-3" d="M599.62,430.57a15.61,15.61,0,0,1,14.09,0c3.89,2.25,3.89,5.89,0,8.14a15.61,15.61,0,0,1-14.09,0c-3.89-2.25-3.89-5.89,0-8.14" transform="translate(111.88)"/><path class="cls-3" d="M849.22,520.46a15.55,15.55,0,0,1,14.09,0c3.89,2.25,3.89,5.89,0,8.13a15.55,15.55,0,0,1-14.09,0c-3.89-2.24-3.89-5.88,0-8.13" transform="translate(111.88)"/><path class="cls-3" d="M907.11,608.1a15.55,15.55,0,0,1,14.09,0c3.89,2.25,3.89,5.89,0,8.13a15.55,15.55,0,0,1-14.09,0c-3.89-2.24-3.89-5.88,0-8.13" transform="translate(111.88)"/><path class="cls-3" d="M1056.38,639.54a15.61,15.61,0,0,1,14.09,0c3.89,2.25,3.89,5.89,0,8.14a15.61,15.61,0,0,1-14.09,0c-3.89-2.25-3.89-5.89,0-8.14" transform="translate(111.88)"/><polyline class="cls-21" points="741.53 421.1 813.29 434.64 819.29 492.81 918.62 496.65 963.93 581.8"/><path class="cls-11" d="M625.11,418.48a10,10,0,0,1,9.08,0c2.51,1.44,2.51,3.79,0,5.24a10,10,0,0,1-9.08,0c-2.51-1.45-2.51-3.8,0-5.24" transform="translate(111.88)"/><path class="cls-11" d="M696.93,432a10,10,0,0,1,9.09,0c2.51,1.44,2.51,3.79,0,5.24a10,10,0,0,1-9.09,0c-2.51-1.45-2.51-3.8,0-5.24" transform="translate(111.88)"/><path class="cls-11" d="M847.51,580.35a10,10,0,0,1,9.09,0c2.51,1.45,2.51,3.8,0,5.25a10,10,0,0,1-9.09,0c-2.5-1.45-2.5-3.8,0-5.25" transform="translate(111.88)"/><path class="cls-11" d="M802,494.17a10,10,0,0,1,9.09,0c2.51,1.45,2.51,3.8,0,5.25a10,10,0,0,1-9.09,0c-2.51-1.45-2.51-3.8,0-5.25" transform="translate(111.88)"/><path class="cls-11" d="M703.36,490.46a10,10,0,0,1,9.08,0c2.51,1.45,2.51,3.8,0,5.25a10,10,0,0,1-9.08,0c-2.51-1.45-2.51-3.8,0-5.25" transform="translate(111.88)"/><polygon class="cls-12" points="1032.11 924.56 904.76 851.03 1084.87 747.05 1212.22 820.57 1032.11 924.56"/><polygon class="cls-23" points="1139.5 798.69 1083.42 766.31 1080.11 768.22 1136.2 800.6 1139.5 798.69"/><polygon class="cls-23" points="1102.68 804.32 1060.13 779.75 1056.82 781.66 1099.37 806.23 1102.68 804.32"/><polygon class="cls-23" points="1096.23 808.04 1053.69 783.47 1050.38 785.38 1092.93 809.95 1096.23 808.04"/><polygon class="cls-23" points="1089.79 811.76 1047.25 787.19 1043.94 789.1 1086.49 813.67 1089.79 811.76"/><polygon class="cls-23" points="1083.35 815.48 1040.8 790.91 1037.5 792.82 1080.05 817.38 1083.35 815.48"/><polygon class="cls-23" points="1076.91 819.2 1034.36 794.63 1031.06 796.54 1073.6 821.1 1076.91 819.2"/><polygon class="cls-23" points="1070.47 822.91 1027.92 798.35 1024.61 800.26 1067.16 824.82 1070.47 822.91"/><polygon class="cls-23" points="1064.03 826.63 1021.48 802.07 1018.17 803.98 1060.72 828.54 1064.03 826.63"/><polygon class="cls-23" points="1057.59 830.35 1015.04 805.79 1011.73 807.7 1054.28 832.26 1057.59 830.35"/><polygon class="cls-23" points="1051.14 834.07 1008.6 809.51 1005.29 811.42 1047.84 835.98 1051.14 834.07"/><polygon class="cls-23" points="1044.7 837.79 1002.15 813.23 998.85 815.13 1041.39 839.7 1044.7 837.79"/><polygon class="cls-23" points="1038.26 841.51 995.71 816.95 992.4 818.86 1034.95 843.42 1038.26 841.51"/><polygon class="cls-23" points="1031.82 845.23 989.27 820.66 985.96 822.57 1028.51 847.14 1031.82 845.23"/><polygon class="cls-23" points="1025.38 848.95 982.83 824.38 979.52 826.29 1022.07 850.86 1025.38 848.95"/><polygon class="cls-23" points="1018.93 852.67 976.39 828.1 973.08 830.01 1015.63 854.58 1018.93 852.67"/><polygon class="cls-23" points="1012.49 856.39 969.94 831.82 966.64 833.73 1009.18 858.3 1012.49 856.39"/><polygon class="cls-23" points="1006.05 860.11 963.5 835.54 960.2 837.45 1002.74 862.01 1006.05 860.11"/><polygon class="cls-23" points="999.61 863.83 957.06 839.26 953.75 841.17 996.3 865.73 999.61 863.83"/><polygon class="cls-23" points="993.17 867.54 950.62 842.98 947.31 844.89 989.86 869.45 993.17 867.54"/><polygon class="cls-23" points="986.73 871.26 944.18 846.7 940.87 848.61 983.42 873.17 986.73 871.26"/><polygon class="cls-23" points="1154.94 834.49 1112.39 809.93 1109.08 811.84 1151.63 836.4 1154.94 834.49"/><polygon class="cls-23" points="1148.49 838.21 1105.95 813.65 1102.64 815.55 1145.19 840.12 1148.49 838.21"/><polygon class="cls-23" points="1142.05 841.93 1099.51 817.37 1096.2 819.27 1138.75 843.84 1142.05 841.93"/><polygon class="cls-23" points="1135.61 845.65 1093.06 821.08 1089.76 822.99 1132.3 847.56 1135.61 845.65"/><polygon class="cls-23" points="1129.17 849.37 1086.62 824.8 1083.32 826.71 1125.86 851.28 1129.17 849.37"/><polygon class="cls-23" points="1122.73 853.09 1080.18 828.52 1076.87 830.43 1119.42 855 1122.73 853.09"/><polygon class="cls-23" points="1116.29 856.81 1073.74 832.24 1070.43 834.15 1112.98 858.72 1116.29 856.81"/><polygon class="cls-23" points="1109.85 860.52 1067.3 835.96 1063.99 837.87 1106.54 862.43 1109.85 860.52"/><polygon class="cls-23" points="1103.4 864.24 1060.85 839.68 1057.55 841.59 1100.1 866.15 1103.4 864.24"/><polygon class="cls-23" points="1096.96 867.96 1054.41 843.4 1051.11 845.31 1093.65 869.87 1096.96 867.96"/><polygon class="cls-23" points="1090.52 871.68 1047.97 847.12 1044.66 849.03 1087.21 873.59 1090.52 871.68"/><polygon class="cls-23" points="1084.08 875.4 1041.53 850.84 1038.22 852.75 1080.77 877.31 1084.08 875.4"/><polygon class="cls-23" points="1077.64 879.12 1035.09 854.56 1031.78 856.47 1074.33 881.03 1077.64 879.12"/><polygon class="cls-23" points="1071.19 882.84 1028.64 858.28 1025.34 860.18 1067.89 884.75 1071.19 882.84"/><polygon class="cls-23" points="1064.75 886.56 1022.2 861.99 1018.9 863.9 1061.44 888.47 1064.75 886.56"/><polygon class="cls-23" points="1058.31 890.28 1015.76 865.71 1012.46 867.62 1055 892.19 1058.31 890.28"/><polygon class="cls-23" points="1051.87 894 1009.32 869.43 1006.01 871.34 1048.56 895.91 1051.87 894"/><polygon class="cls-23" points="1045.43 897.72 1002.88 873.15 999.57 875.06 1042.12 899.63 1045.43 897.72"/><polygon class="cls-23" points="1038.98 901.43 996.44 876.87 993.13 878.78 1035.68 903.34 1038.98 901.43"/><polygon class="cls-12" points="998.75 841.23 871.4 767.71 1051.51 663.72 1178.86 737.25 998.75 841.23"/><polygon class="cls-23" points="1106.14 715.36 1050.06 682.98 1046.75 684.89 1102.84 717.27 1106.14 715.36"/><polygon class="cls-23" points="1069.32 720.99 1026.77 696.43 1023.46 698.34 1066.01 722.9 1069.32 720.99"/><polygon class="cls-23" points="1062.88 724.71 1020.33 700.14 1017.02 702.05 1059.57 726.62 1062.88 724.71"/><polygon class="cls-23" points="1056.43 728.43 1013.89 703.87 1010.58 705.77 1053.13 730.34 1056.43 728.43"/><polygon class="cls-23" points="1049.99 732.15 1007.44 707.58 1004.14 709.49 1046.69 734.06 1049.99 732.15"/><polygon class="cls-23" points="1043.55 735.87 1001 711.3 997.7 713.21 1040.24 737.78 1043.55 735.87"/><polygon class="cls-23" points="1037.11 739.59 994.56 715.02 991.25 716.93 1033.8 741.5 1037.11 739.59"/><polygon class="cls-23" points="1030.67 743.31 988.12 718.74 984.81 720.65 1027.36 745.22 1030.67 743.31"/><polygon class="cls-23" points="1024.23 747.02 981.68 722.46 978.37 724.37 1020.92 748.93 1024.23 747.02"/><polygon class="cls-23" points="1017.78 750.74 975.24 726.18 971.93 728.09 1014.48 752.65 1017.78 750.74"/><polygon class="cls-23" points="1011.34 754.46 968.79 729.9 965.49 731.81 1008.03 756.37 1011.34 754.46"/><polygon class="cls-23" points="1004.9 758.18 962.35 733.62 959.05 735.53 1001.59 760.09 1004.9 758.18"/><polygon class="cls-23" points="998.46 761.9 955.91 737.34 952.6 739.25 995.15 763.81 998.46 761.9"/><polygon class="cls-23" points="992.02 765.62 949.47 741.06 946.16 742.97 988.71 767.53 992.02 765.62"/><polygon class="cls-23" points="985.57 769.34 943.03 744.77 939.72 746.68 982.27 771.25 985.57 769.34"/><polygon class="cls-23" points="979.13 773.06 936.59 748.5 933.28 750.4 975.83 774.97 979.13 773.06"/><polygon class="cls-23" points="972.69 776.78 930.14 752.21 926.84 754.12 969.38 778.69 972.69 776.78"/><polygon class="cls-23" points="966.25 780.5 923.7 755.93 920.39 757.84 962.94 782.41 966.25 780.5"/><polygon class="cls-23" points="959.81 784.22 917.26 759.65 913.95 761.56 956.5 786.13 959.81 784.22"/><polygon class="cls-23" points="953.37 787.93 910.82 763.37 907.51 765.28 950.06 789.84 953.37 787.93"/><polygon class="cls-23" points="1121.58 751.16 1079.03 726.6 1075.72 728.51 1118.27 753.07 1121.58 751.16"/><polygon class="cls-23" points="1115.14 754.88 1072.59 730.32 1069.28 732.23 1111.83 756.79 1115.14 754.88"/><polygon class="cls-23" points="1108.69 758.6 1066.15 734.04 1062.84 735.95 1105.39 760.51 1108.69 758.6"/><polygon class="cls-23" points="1102.25 762.32 1059.7 737.75 1056.4 739.66 1098.95 764.23 1102.25 762.32"/><polygon class="cls-23" points="1095.81 766.04 1053.26 741.48 1049.96 743.38 1092.5 767.95 1095.81 766.04"/><polygon class="cls-23" points="1089.37 769.76 1046.82 745.19 1043.51 747.1 1086.06 771.67 1089.37 769.76"/><polygon class="cls-23" points="1082.93 773.48 1040.38 748.91 1037.07 750.82 1079.62 775.39 1082.93 773.48"/><polygon class="cls-23" points="1076.48 777.2 1033.94 752.63 1030.63 754.54 1073.18 779.11 1076.48 777.2"/><polygon class="cls-23" points="1070.04 780.92 1027.49 756.35 1024.19 758.26 1066.74 782.83 1070.04 780.92"/><polygon class="cls-23" points="1063.6 784.64 1021.05 760.07 1017.75 761.98 1060.3 786.54 1063.6 784.64"/><polygon class="cls-23" points="1057.16 788.35 1014.61 763.79 1011.31 765.7 1053.85 790.26 1057.16 788.35"/><polygon class="cls-23" points="1050.72 792.07 1008.17 767.51 1004.86 769.42 1047.41 793.98 1050.72 792.07"/><polygon class="cls-23" points="1044.28 795.79 1001.73 771.23 998.42 773.14 1040.97 797.7 1044.28 795.79"/><polygon class="cls-23" points="1037.83 799.51 995.29 774.95 991.98 776.86 1034.53 801.42 1037.83 799.51"/><polygon class="cls-23" points="1031.39 803.23 988.85 778.67 985.54 780.58 1028.09 805.14 1031.39 803.23"/><polygon class="cls-23" points="1024.95 806.95 982.4 782.39 979.1 784.29 1021.64 808.86 1024.95 806.95"/><polygon class="cls-23" points="1018.51 810.67 975.96 786.11 972.65 788.01 1015.2 812.58 1018.51 810.67"/><polygon class="cls-23" points="1012.07 814.39 969.52 789.82 966.21 791.73 1008.76 816.3 1012.07 814.39"/><polygon class="cls-23" points="1005.63 818.11 963.08 793.54 959.77 795.45 1002.32 820.02 1005.63 818.11"/><g class="cls-24"><rect class="cls-25" x="475.62" y="776.32" width="294.86" height="193.68"/></g><g class="cls-26"><rect class="cls-27" x="572.63" y="226.35" width="201.96" height="274.84"/></g><path class="cls-9" d="M511.17,494.1l-51.46-29.91c-12.41-7.21-20.11-22.52-20.17-44.27-.06-21.28-7.61-36.27-19.75-43.33l51.46,29.9c12.15,7.06,19.69,22.05,19.75,43.34.06,21.74,7.76,37.06,20.17,44.27" transform="translate(111.88)"/><g class="cls-28"><rect class="cls-29" x="417.69" y="374.28" width="169.61" height="158.66"/></g><path class="cls-30" d="M644.23,670.31c7.2,4.15,7.24,10.89.09,15.05L262.16,907.44c-7.15,4.16-18.77,4.15-26,0L5.53,774.26c-7.2-4.16-7.26-10.88-.11-15L387.58,537.13c7.16-4.15,18.79-4.16,26,0Z" transform="translate(111.88)"/><path class="cls-31" d="M644.32,685,262.16,907.09c-7.15,4.16-18.77,4.15-26,0L5.53,773.91C1.9,771.82.08,769.07.09,766.33L0,798.63c0,2.74,1.81,5.49,5.43,7.58L236.1,939.38c7.2,4.16,18.81,4.17,26,0L644.23,717.31c3.55-2.07,5.33-4.77,5.34-7.48l.09-32.3c0,2.71-1.79,5.41-5.34,7.48" transform="translate(111.88)"/><g class="cls-32"><rect class="cls-33" x="110.24" y="733.16" width="308.64" height="178.39"/></g><g class="cls-34"><rect class="cls-35" x="27.11" y="389.85" width="617.71" height="651.99" transform="translate(-319.2 523.62) rotate(-50.79)"/></g><g class="cls-36"><rect class="cls-37" x="476.79" y="534.07" width="286.63" height="164.46"/></g><path class="cls-31" d="M134.37,811.85c10.35-6,27.13-6,37.48,0s10.35,15.66,0,21.64-27.13,6-37.48,0-10.35-15.66,0-21.64" transform="translate(111.88)"/><path class="cls-38" d="M193.46,901.67c0-3,2.12-4.24,4.73-2.73a10.44,10.44,0,0,1,4.73,8.19c0,3-2.12,4.24-4.73,2.73a10.47,10.47,0,0,1-4.73-8.19" transform="translate(111.88)"/><path class="cls-38" d="M596.79,729.29a15.91,15.91,0,0,1,7.2-12.46c4-2.3,7.19-.44,7.19,4.15A15.91,15.91,0,0,1,604,733.44c-4,2.29-7.2.43-7.2-4.15" transform="translate(111.88)"/><path class="cls-38" d="M571.68,743.45A15.9,15.9,0,0,1,578.87,731c4-2.3,7.19-.44,7.19,4.15a15.9,15.9,0,0,1-7.19,12.46c-4,2.29-7.19.43-7.19-4.15" transform="translate(111.88)"/><polygon class="cls-39" points="411.81 784.27 411.78 795.04 384.34 791.52 384.37 780.75 411.81 784.27"/><polygon class="cls-2" points="456.52 799.22 456.49 809.98 433.51 800.6 433.54 789.83 456.52 799.22"/><polygon class="cls-3" points="455.24 744.1 456.52 799.22 433.54 789.83 404.49 828.14 382.76 822.59 411.81 784.27 384.37 780.75 455.24 744.1"/><polygon class="cls-39" points="433.54 789.83 433.51 800.6 404.46 838.91 404.49 828.14 433.54 789.83"/><polygon class="cls-39" points="404.49 828.14 404.46 838.91 382.73 833.35 382.76 822.59 404.49 828.14"/><path class="cls-3" d="M327.16,492.25c-12.72-7.39-30.34-6.35-49.8,4.88-38.65,22.32-69.87,76.42-69.75,120.82.06,22.07,7.85,37.59,20.41,44.89l11.47,6.67c-12.56-7.3-20.34-22.83-20.41-44.9-.12-44.4,31.1-98.49,69.76-120.81,19.45-11.23,37.07-12.27,49.79-4.88Z" transform="translate(111.88)"/><path class="cls-2" d="M288.84,504.15c38.66-22.32,70.08-4.39,70.21,40S328,642.66,289.29,665s-70.08,4.42-70.21-40,31.1-98.5,69.76-120.82" transform="translate(111.88)"/><path class="cls-12" d="M336.12,553.71a4.33,4.33,0,0,0-3.87.57l-.14.08c1.88-3.14,3.09-5.58,2.92-8.39-.23-3.75-3.12-5-6.49-3.1l-3.7,2.14-13.35,7.71-4.86,2.8,3.79-26a9.51,9.51,0,0,0,.11-1.39c0-8.78-5.21-13.17-10.81-9.94a6.77,6.77,0,0,0-3,5.28v15.69a4.73,4.73,0,0,1-.2,2.21l-11.92,27.29a14.84,14.84,0,0,1-5.71,6.8l-5.64,3.26v42.59L281,616.8c1.52-.88,2.84-.61,3.62.45,1.12,1.53,3,1.51,5.24.24l32.34-18.67a14.14,14.14,0,0,0,6.37-11,4.76,4.76,0,0,0-1.35-3.52c3.47-2.08,6.22-6.44,6.22-10.47,0-2-.76-4.26-1.91-3.6l.74-.43c5.32-3.07,9.12-13.63,3.87-16.06" transform="translate(111.88)"/><path class="cls-11" d="M273.33,626.06l-24.79,14.3c-1.26.73-2.28,0-2.28-1.72V593.21a5.47,5.47,0,0,1,2.28-4.36l24.79-14.31c1.26-.73,2.28,0,2.28,1.73v45.42a5.49,5.49,0,0,1-2.28,4.37" transform="translate(111.88)"/><path class="cls-3" d="M120.92,571.5c-8.45-4.9-20.15-4.21-33.06,3.24C62.19,589.56,41.46,625.49,41.54,655c0,14.65,5.21,25,13.55,29.81l7.62,4.43c-8.34-4.85-13.51-15.16-13.55-29.81-.09-29.49,20.65-65.41,46.32-80.23,12.91-7.46,24.61-8.15,33.06-3.24Z" transform="translate(111.88)"/><path class="cls-2" d="M95.48,579.52c25.67-14.82,46.53-2.91,46.62,26.57s-20.65,65.41-46.32,80.23-46.54,2.93-46.62-26.57,20.64-65.41,46.32-80.23" transform="translate(111.88)"/><path class="cls-12" d="M126.87,612.43a2.88,2.88,0,0,0-2.57.38l-.09.06c1.25-2.09,2.05-3.71,1.94-5.58-.15-2.49-2.07-3.34-4.31-2l-2.46,1.42-8.86,5.12-3.23,1.86,2.52-17.29a7.55,7.55,0,0,0,.07-.92c0-5.83-3.46-8.75-7.18-6.6a4.51,4.51,0,0,0-2,3.5v10.42a3.13,3.13,0,0,1-.13,1.47l-7.92,18.12a9.86,9.86,0,0,1-3.79,4.52L85.11,629V657.3l5.15-3a1.7,1.7,0,0,1,2.4.3c.75,1,2,1,3.48.16l21.48-12.4a9.37,9.37,0,0,0,4.22-7.32,3.19,3.19,0,0,0-.89-2.34,8.73,8.73,0,0,0,4.13-6.94c0-1.35-.51-2.84-1.27-2.4l.49-.28c3.53-2,6.06-9.06,2.57-10.67" transform="translate(111.88)"/><path class="cls-11" d="M85.18,660.47,68.72,670c-.84.49-1.52,0-1.52-1.14V638.66a3.65,3.65,0,0,1,1.52-2.9l16.46-9.5c.83-.48,1.51,0,1.51,1.15v30.16a3.64,3.64,0,0,1-1.51,2.9" transform="translate(111.88)"/><path class="cls-3" d="M370.57,596.46c-9.11-5.29-21.72-4.54-35.64,3.49-27.66,16-50,54.69-49.91,86.46,0,15.79,5.61,26.9,14.6,32.12l8.21,4.77c-9-5.22-14.56-16.33-14.6-32.12-.09-31.77,22.25-70.49,49.91-86.46,13.92-8,26.53-8.78,35.63-3.49Z" transform="translate(111.88)"/><path class="cls-2" d="M343.14,605.07c27.67-16,50.15-3.14,50.24,28.64s-22.25,70.48-49.91,86.45-50.15,3.16-50.24-28.63,22.25-70.48,49.91-86.46" transform="translate(111.88)"/><path class="cls-12" d="M377,640.54a3.1,3.1,0,0,0-2.77.41l-.1.06c1.34-2.25,2.21-4,2.09-6-.17-2.68-2.24-3.6-4.64-2.21l-2.66,1.53-9.55,5.51-3.48,2,2.72-18.63a6.94,6.94,0,0,0,.08-1c0-6.29-3.73-9.43-7.74-7.12a4.86,4.86,0,0,0-2.17,3.78V630.1a3.51,3.51,0,0,1-.14,1.59l-8.54,19.53a10.51,10.51,0,0,1-4.08,4.86l-4,2.33v30.48l5.55-3.21a1.84,1.84,0,0,1,2.59.33c.8,1.09,2.18,1.08,3.75.17L367,672.82a10.11,10.11,0,0,0,4.56-7.89,3.41,3.41,0,0,0-1-2.52,9.41,9.41,0,0,0,4.45-7.49c0-1.45-.54-3-1.36-2.58l.53-.31c3.8-2.19,6.52-9.75,2.77-11.49" transform="translate(111.88)"/><path class="cls-11" d="M332,692.31l-17.73,10.24c-.91.52-1.64,0-1.64-1.24v-32.5a3.92,3.92,0,0,1,1.64-3.13L332,655.44c.9-.52,1.64,0,1.64,1.24v32.51a3.92,3.92,0,0,1-1.64,3.12" transform="translate(111.88)"/></svg>