<svg xmlns="http://www.w3.org/2000/svg" xmlns:xlink="http://www.w3.org/1999/xlink" viewBox="0 0 900.98 799.05"><defs><style>.cls-1,.cls-24{fill:none;}.cls-2{isolation:isolate;}.cls-3{fill:#d1d9dd;}.cls-4{fill:#dfdfdf;}.cls-5{fill:#f5f5f5;}.cls-6{fill:#fff;}.cls-7{fill:#99c3b6;}.cls-8{fill:#dbdddd;}.cls-9{fill:#fbfbfb;}.cls-10{opacity:0.7;mix-blend-mode:multiply;}.cls-11{clip-path:url(#clip-path);}.cls-12{clip-path:url(#clip-path-2);}.cls-13{clip-path:url(#clip-path-3);}.cls-14{fill:#2d5173;}.cls-15{opacity:0.2;}.cls-16{clip-path:url(#clip-path-4);}.cls-17{clip-path:url(#clip-path-5);}.cls-18{opacity:0.3;}.cls-19{clip-path:url(#clip-path-6);}.cls-20{clip-path:url(#clip-path-7);}.cls-21{clip-path:url(#clip-path-8);}.cls-22{clip-path:url(#clip-path-9);}.cls-23{clip-path:url(#clip-path-10);}.cls-24{stroke:#99c3b6;stroke-miterlimit:10;}.cls-25{fill:#e5bbab;}.cls-26{fill:#254352;}.cls-27{clip-path:url(#clip-path-11);}.cls-28{fill:#040006;}.cls-29{clip-path:url(#clip-path-12);}.cls-30{clip-path:url(#clip-path-13);}.cls-31{clip-path:url(#clip-path-14);}.cls-32{clip-path:url(#clip-path-15);}.cls-33{fill:#243137;}.cls-34{opacity:0.6;}.cls-35{clip-path:url(#clip-path-16);}.cls-36{clip-path:url(#clip-path-17);}.cls-37{opacity:0.5;}.cls-38{clip-path:url(#clip-path-18);}.cls-39{clip-path:url(#clip-path-19);}</style><clipPath id="clip-path" transform="translate(-34.89 -60.69)"><rect class="cls-1" x="852.89" y="603.61" width="2.5" height="150.85"/></clipPath><clipPath id="clip-path-2" transform="translate(-34.89 -60.69)"><rect class="cls-1" x="852.89" y="537.94" width="2.5" height="49.66"/></clipPath><clipPath id="clip-path-3" transform="translate(-34.89 -60.69)"><rect class="cls-1" x="573.39" y="509.08" width="358.2" height="6.38"/></clipPath><clipPath id="clip-path-4" transform="translate(-34.89 -60.69)"><rect class="cls-1" x="375.73" y="632.46" width="349.78" height="201.08"/></clipPath><clipPath id="clip-path-5" transform="translate(-34.89 -60.69)"><rect class="cls-1" x="389.14" y="755.66" width="322.96" height="77.88"/></clipPath><clipPath id="clip-path-6" transform="translate(-34.89 -60.69)"><rect class="cls-1" x="571.85" y="660.98" width="96.66" height="172.56"/></clipPath><clipPath id="clip-path-7" transform="translate(-34.89 -60.69)"><rect class="cls-1" x="375.73" y="431.38" width="349.78" height="201.08"/></clipPath><clipPath id="clip-path-8" transform="translate(-34.89 -60.69)"><rect class="cls-1" x="461.33" y="539.51" width="178.59" height="83.52"/></clipPath><clipPath id="clip-path-9" transform="translate(-34.89 -60.69)"><rect class="cls-1" x="434.9" y="431.38" width="96.66" height="172.56"/></clipPath><clipPath id="clip-path-10" transform="translate(-34.89 -60.69)"><rect class="cls-1" x="571.85" y="431.38" width="96.66" height="172.56"/></clipPath><clipPath id="clip-path-11" transform="translate(-34.89 -60.69)"><rect class="cls-1" x="242.07" y="537.32" width="29.37" height="34.07"/></clipPath><clipPath id="clip-path-12" transform="translate(-34.89 -60.69)"><rect class="cls-1" x="334.12" y="405.5" width="14.76" height="58.71"/></clipPath><clipPath id="clip-path-13" transform="translate(-34.89 -60.69)"><rect class="cls-1" x="361.52" y="567.27" width="23.12" height="29.12"/></clipPath><clipPath id="clip-path-14" transform="translate(-34.89 -60.69)"><rect class="cls-1" x="512.27" y="179.42" width="38.56" height="161.22"/></clipPath><clipPath id="clip-path-15" transform="translate(-34.89 -60.69)"><rect class="cls-1" x="444.52" y="139.71" width="13.38" height="25.56"/></clipPath><clipPath id="clip-path-16" transform="translate(-34.89 -60.69)"><rect class="cls-1" x="295.28" y="344.26" width="212.13" height="14.22"/></clipPath><clipPath id="clip-path-17" transform="translate(-34.89 -60.69)"><rect class="cls-1" x="265.32" y="252.96" width="178.38" height="100.58"/></clipPath><clipPath id="clip-path-18" transform="translate(-34.89 -60.69)"><rect class="cls-1" x="411.71" y="252.96" width="31.99" height="94.06"/></clipPath><clipPath id="clip-path-19" transform="translate(-34.89 -60.69)"><rect class="cls-1" x="444.5" y="344.26" width="62.91" height="7.47"/></clipPath></defs><title>principios-ageis</title><g class="cls-2"><g id="Camada_1" data-name="Camada 1"><rect class="cls-3" x="641.7" y="763.28" width="20.69" height="0.59"/><path class="cls-4" d="M888.9,197.22A124.75,124.75,0,1,1,764.15,72.47,124.75,124.75,0,0,1,888.9,197.22" transform="translate(-34.89 -60.69)"/><path class="cls-5" d="M879.43,197.22A124.75,124.75,0,1,1,754.68,72.47,124.75,124.75,0,0,1,879.43,197.22" transform="translate(-34.89 -60.69)"/><path class="cls-6" d="M870,197.22A115.29,115.29,0,1,1,754.68,81.93,115.29,115.29,0,0,1,870,197.22" transform="translate(-34.89 -60.69)"/><path class="cls-5" d="M774.32,281.14A2.8,2.8,0,0,1,771.6,279L752,197.88a2.79,2.79,0,1,1,5.43-1.32L777,277.68a2.81,2.81,0,0,1-2.06,3.38,3,3,0,0,1-.66.08" transform="translate(-34.89 -60.69)"/><path class="cls-7" d="M754.68,202.81a5.57,5.57,0,0,1-3.95-1.64l-67.46-67.46a5.59,5.59,0,0,1,7.9-7.91l63.51,63.51,37-37a5.59,5.59,0,1,1,7.9,7.9l-41,41a5.57,5.57,0,0,1-4,1.64" transform="translate(-34.89 -60.69)"/><rect class="cls-8" x="401.29" y="572.41" width="18.79" height="128.73"/><rect class="cls-8" x="21.02" y="701.15" width="386.66" height="17.37"/><rect class="cls-5" x="8.61" y="572.41" width="392.68" height="128.73"/><rect class="cls-8" x="34.02" y="594.82" width="341.87" height="73.53"/><path class="cls-7" d="M153.67,665.37H326a2.65,2.65,0,0,0,2.63-2.64v-7.06A2.64,2.64,0,0,0,326,653H153.67a2.64,2.64,0,0,0-2.64,2.63v7.06a2.65,2.65,0,0,0,2.64,2.64" transform="translate(-34.89 -60.69)"/><rect class="cls-8" y="560.91" width="401.29" height="11.5"/><rect class="cls-5" x="401.29" y="560.91" width="27.82" height="11.5"/><rect class="cls-8" x="860.05" y="436.49" width="36.64" height="282.03"/><rect class="cls-5" x="539.31" y="436.49" width="320.75" height="282.03"/><rect class="cls-9" x="536.38" y="542.92" width="281.61" height="150.85"/><rect class="cls-9" x="536.38" y="477.25" width="281.61" height="49.66"/><g class="cls-10"><g class="cls-11"><rect class="cls-5" x="817.99" y="542.91" width="2.51" height="150.85"/></g></g><g class="cls-10"><g class="cls-12"><rect class="cls-5" x="817.99" y="477.25" width="2.51" height="49.66"/></g></g><g class="cls-10"><g class="cls-13"><rect class="cls-8" x="538.5" y="448.38" width="358.2" height="6.38"/></g></g><rect class="cls-8" x="860.05" y="432.63" width="40.92" height="18.44"/><rect class="cls-5" x="535.03" y="432.63" width="325.03" height="18.44"/><path class="cls-14" d="M691.85,439c-2.38-3.34-3.49-7.44-4.28-11.47a57.19,57.19,0,0,1-.62-12.33,81.78,81.78,0,0,1,5.18-23.93c1.27-3.88,3.13-7.49,4.76-11.19,1.9-3.57,3.82-7.13,5.94-10.55s4.52-6.67,6.95-9.86c2.58-3.09,5.14-6.18,8-9-1.38,3.83-3,7.44-4.66,11S710,369,708.33,372.48l-4.6,10.72-2.11,5.4-1.11,2.67-.94,2.73a147.52,147.52,0,0,0-6.47,22,86.08,86.08,0,0,0-1.66,11.34,44.66,44.66,0,0,0,.41,11.69" transform="translate(-34.89 -60.69)"/><path class="cls-14" d="M645.66,445.32a61.52,61.52,0,0,0-1.5-17.11,33.79,33.79,0,0,0-7-13.89,46.4,46.4,0,0,0-12.57-9.91c-4.85-2.81-10.24-5.05-15.8-7.64a43.56,43.56,0,0,1,18.29,1.94,39.39,39.39,0,0,1,8.66,4.05,35,35,0,0,1,7.46,6.43,30.38,30.38,0,0,1,7.09,18.18,30.69,30.69,0,0,1-4.65,17.95" transform="translate(-34.89 -60.69)"/><path class="cls-14" d="M647.72,444.49a154.19,154.19,0,0,0-1.88-20,77.89,77.89,0,0,0-5.21-18.34,57.72,57.72,0,0,0-10.07-15.8,93.54,93.54,0,0,0-15-12.95,41.53,41.53,0,0,1,19.28,8.39A43.85,43.85,0,0,1,647.9,403,52,52,0,0,1,652,424a49.44,49.44,0,0,1-4.3,20.46" transform="translate(-34.89 -60.69)"/><path class="cls-14" d="M688.68,432.34a112.74,112.74,0,0,1-13.09-21.69,154.65,154.65,0,0,1-8.82-23.76,133,133,0,0,1-4.6-25,93.35,93.35,0,0,1,1.17-25.37c1.74,8.34,3.06,16.42,5,24.43s3.78,15.93,6.06,23.8,4.55,15.76,7,23.64,4.94,15.79,7.3,23.94" transform="translate(-34.89 -60.69)"/><path class="cls-14" d="M686.55,431.74a112.42,112.42,0,0,1-15.67-19.05,156.81,156.81,0,0,1-12-21.56,134.93,134.93,0,0,1-8.18-23.35A90.62,90.62,0,0,1,648,343.2c3,7.74,5.59,15.27,8.67,22.68s6.11,14.73,9.46,22,6.7,14.5,10.15,21.77,7,14.54,10.28,22.11" transform="translate(-34.89 -60.69)"/><path class="cls-14" d="M695.39,439.35a89.43,89.43,0,0,1-18.43-13,122.07,122.07,0,0,1-15.32-16.56,105.16,105.16,0,0,1-11.81-19.33,72.76,72.76,0,0,1-6.42-21.69c4.09,6.41,7.7,12.66,11.85,18.64s8.22,11.87,12.67,17.58,8.9,11.41,13.51,17.07,9.3,11.31,13.95,17.27" transform="translate(-34.89 -60.69)"/><path class="cls-14" d="M682.45,431.78a65.29,65.29,0,0,1-17.81-10.94,88.14,88.14,0,0,1-14.36-15.28,96.61,96.61,0,0,1-5.81-8.78,83.59,83.59,0,0,1-4.59-9.48,65,65,0,0,1-5-20.31c3.73,6,6.81,11.89,10.5,17.47,1.69,2.86,3.67,5.54,5.43,8.34,2,2.66,3.74,5.44,5.79,8q5.88,8,12.38,15.59c4.31,5.12,8.78,10.13,13.44,15.35" transform="translate(-34.89 -60.69)"/><path class="cls-14" d="M692.6,435.86c-3.12-2-5.35-5.21-7.09-8.53a39.47,39.47,0,0,1-3.44-10.75,60.14,60.14,0,0,1,.62-22.27,101.71,101.71,0,0,1,2.86-10.64c1.34-3.4,2.56-6.85,4.18-10.1s3.34-6.46,5.26-9.52,4.07-6,6.4-8.81c-.76,3.61-1.83,7-2.86,10.41s-1.88,6.83-3,10.15-1.79,6.73-2.8,10l-1.17,5a51,51,0,0,0-1.12,5A96.62,96.62,0,0,0,688.24,416a52.51,52.51,0,0,0,.91,10.06,31.32,31.32,0,0,0,3.45,9.82" transform="translate(-34.89 -60.69)"/><path class="cls-14" d="M688.19,428.26c-5.32-5.37-8.84-12.39-11-19.71a59.3,59.3,0,0,1-2.08-22.93c.13-1.93.61-3.81.91-5.72l.56-2.84.84-2.76c.61-1.83,1.14-3.68,1.82-5.47s1.61-3.48,2.44-5.19l1.27-2.56,1.54-2.4,3.16-4.7a82.34,82.34,0,0,1,7.59-8.32c-1.24,3.6-2.89,6.85-4.21,10.23L689.12,361l-1,2.49L687.4,366q-.75,2.55-1.57,5.05l-1.17,5.11-.61,2.54-.36,2.58c-.23,1.72-.65,3.42-.73,5.15a88.94,88.94,0,0,0,.26,20.81,100.17,100.17,0,0,0,5,21" transform="translate(-34.89 -60.69)"/><polygon class="cls-14" points="643.25 364.67 609.15 334.32 614.2 375.51 643.25 364.67"/><polygon class="cls-5" points="577.54 359.13 676.47 359.13 663.51 432.63 590.49 432.63 577.54 359.13"/><polygon class="cls-3" points="639.34 359.13 676.47 359.13 663.51 432.63 644.01 432.63 639.34 359.13"/><path class="cls-14" d="M798.75,439.17a26.93,26.93,0,0,0-.4-9.76,41.24,41.24,0,0,0-3-8.89,73,73,0,0,0-10.06-15.84,46,46,0,0,0-3.1-3.65c-1-1.21-2.06-2.46-3.16-3.64-2.3-2.27-4.42-4.75-6.77-7s-4.61-4.71-7-7-4.79-4.68-7-7.34a100.68,100.68,0,0,1,9.36,4.22,97.26,97.26,0,0,1,8.72,5.42,38.6,38.6,0,0,1,4.09,3.14c1.35,1.08,2.65,2.22,4,3.34a86.15,86.15,0,0,1,7.13,7.65,49.78,49.78,0,0,1,9.76,18.8,31.51,31.51,0,0,1,.93,10.72,19.38,19.38,0,0,1-3.46,9.91" transform="translate(-34.89 -60.69)"/><path class="cls-14" d="M854.37,429.2a18,18,0,0,1-5.35-8.14,22.17,22.17,0,0,1-1.06-5c-.07-.87,0-1.73,0-2.61a11.38,11.38,0,0,1,.25-2.61c1.2-7,5.29-13,10.08-17.51,1.21-1.15,2.54-2.09,3.81-3.14a31.63,31.63,0,0,1,4-2.81c1.4-.81,2.78-1.63,4.19-2.4.71-.38,1.4-.8,2.12-1.14l2.2-.93q2.21-.92,4.43-1.75a32.58,32.58,0,0,1,4.52-1.45,89.59,89.59,0,0,1,9.3-1.89c-2.5,2-5.11,3.73-7.67,5.43-1.32.78-2.57,1.67-3.81,2.56s-2.49,1.72-3.75,2.55c-2.59,1.55-4.8,3.53-7.24,5.18a32.41,32.41,0,0,0-3.38,2.75c-1.08.94-2.27,1.8-3.28,2.79-4.11,3.92-7.56,8.23-9.49,13.25a30.71,30.71,0,0,0-1.1,3.9,26.35,26.35,0,0,0,1.23,13" transform="translate(-34.89 -60.69)"/><path class="cls-14" d="M851.83,429.2c-4.34-5.35-6.48-12.42-6.65-19.53A40.62,40.62,0,0,1,850.5,389l2.86-4.53c1.1-1.39,2.26-2.72,3.42-4.05l1.75-2,2-1.73c1.31-1.15,2.65-2.26,4-3.36a98.38,98.38,0,0,1,8.77-5.4,95.54,95.54,0,0,1,9.52-3.71c-2.37,2.53-4.86,4.71-7.3,6.9-2.28,2.38-4.62,4.6-6.86,6.87-1,1.22-2.08,2.42-3.13,3.58l-1.59,1.75-1.37,1.89c-.9,1.26-1.9,2.46-2.78,3.72l-2.36,3.93a50.75,50.75,0,0,0-6,17.09,54.3,54.3,0,0,0,.45,19.18" transform="translate(-34.89 -60.69)"/><path class="cls-14" d="M801.79,432.71c2-7.36,4.13-14.44,6.19-21.53s4.09-14.1,5.95-21.14,3.39-14.12,4.76-21.28,2.09-14.38,2.74-22a64.28,64.28,0,0,1,3.46,22.61,105.49,105.49,0,0,1-3.3,22.67,125.58,125.58,0,0,1-7.82,21.37,92.87,92.87,0,0,1-12,19.31" transform="translate(-34.89 -60.69)"/><path class="cls-14" d="M804.26,431.53c3.09-7.26,6.43-14.19,9.71-21.12s6.59-13.78,9.77-20.67,6.19-13.82,9-20.86,5.25-14.19,7.65-21.74c.91,7.86,0,15.86-1.71,23.59a122.43,122.43,0,0,1-7.78,22.32,146,146,0,0,1-11.59,20.45,107.19,107.19,0,0,1-15.08,18" transform="translate(-34.89 -60.69)"/><path class="cls-14" d="M794.58,440.59c4.64-6.38,9.43-12.4,14.18-18.43s9.5-12,14.14-18,9.13-12.09,13.46-18.32,8.29-12.66,12.31-19.47c-.86,7.86-3.56,15.45-6.93,22.6a122.65,122.65,0,0,1-12.57,20,145.79,145.79,0,0,1-15.86,17.35,107.92,107.92,0,0,1-18.73,14.21" transform="translate(-34.89 -60.69)"/><path class="cls-14" d="M809.14,430.22c4.54-5.7,9.1-11.08,13.56-16.52s8.82-10.84,13-16.34,8.16-11.17,12-16.95,7.17-11.88,10.81-18.24a62.8,62.8,0,0,1-5.33,21.18A94.42,94.42,0,0,1,842,402.16,110.49,110.49,0,0,1,827.13,418a81.85,81.85,0,0,1-18,12.18" transform="translate(-34.89 -60.69)"/><path class="cls-14" d="M797.51,436.85a34.39,34.39,0,0,0,3.61-16.73A41.45,41.45,0,0,0,797,404.29l-.8-1.94-1-1.85-2-3.78c-1.58-2.4-3-4.91-4.66-7.36s-3.32-4.91-5.08-7.36-3.57-4.9-5.17-7.65a60,60,0,0,1,15.06,11.06,36.65,36.65,0,0,1,3.16,3.53c1,1.21,2,2.44,3,3.71l2.55,4.1,1.21,2.09,1,2.25a34.23,34.23,0,0,1,3.11,19.42c-1.08,6.59-4.45,12.91-9.81,16.34" transform="translate(-34.89 -60.69)"/><path class="cls-14" d="M801.93,429.25a88,88,0,0,0,4-18.15,46.63,46.63,0,0,0-1.25-17.18,39.59,39.59,0,0,0-3.08-8,49.37,49.37,0,0,0-4.62-7.45,128.76,128.76,0,0,0-12.43-13.95,42.9,42.9,0,0,1,17.07,9.8,37,37,0,0,1,6.51,7.91,35,35,0,0,1,4.18,9.56,37.66,37.66,0,0,1-.29,20.48,38.12,38.12,0,0,1-10.08,16.94" transform="translate(-34.89 -60.69)"/><polygon class="cls-14" points="778.67 362.93 815.9 327.18 814.4 362.23 778.67 362.93"/><polygon class="cls-5" points="737.97 359.13 836.9 359.13 823.94 432.63 750.93 432.63 737.97 359.13"/><polygon class="cls-3" points="799.77 359.13 836.9 359.13 823.95 432.63 804.45 432.63 799.77 359.13"/><path class="cls-5" d="M156.26,85.12V470.5A60.44,60.44,0,0,1,95.81,531H376.69a60.45,60.45,0,0,0,60.46-60.45V85.12Z" transform="translate(-34.89 -60.69)"/><rect class="cls-8" x="176.68" y="122" width="181.44" height="181.44"/><rect class="cls-6" x="171.1" y="116.42" width="181.44" height="181.44"/><rect class="cls-6" x="169.52" y="324.73" width="46.15" height="46.15"/><rect class="cls-6" x="306.39" y="324.73" width="46.15" height="46.15"/><rect class="cls-6" x="237.95" y="324.73" width="46.15" height="46.15"/><polygon class="cls-8" points="121.37 24.42 121.37 70.3 121.38 70.3 402.26 70.3 402.26 24.42 121.37 24.42"/><path class="cls-14" d="M173.13,70.38V99.85a8.21,8.21,0,0,0,8.2,8.21h0a8.22,8.22,0,0,0,8.21-8.21V70.38a8.21,8.21,0,0,0-16.41,0" transform="translate(-34.89 -60.69)"/><path class="cls-14" d="M403.87,70.38V99.85a8.21,8.21,0,1,0,16.41,0V70.38a8.21,8.21,0,0,0-16.41,0" transform="translate(-34.89 -60.69)"/><path class="cls-14" d="M357.72,70.38V99.85a8.21,8.21,0,1,0,16.41,0V70.38a8.21,8.21,0,0,0-16.41,0" transform="translate(-34.89 -60.69)"/><path class="cls-14" d="M311.57,70.38V99.85a8.21,8.21,0,1,0,16.41,0V70.38a8.21,8.21,0,0,0-16.41,0" transform="translate(-34.89 -60.69)"/><path class="cls-14" d="M265.43,70.38V99.85a8.21,8.21,0,1,0,16.41,0V70.38a8.21,8.21,0,0,0-16.41,0" transform="translate(-34.89 -60.69)"/><path class="cls-14" d="M219.28,70.38V99.85a8.21,8.21,0,1,0,16.41,0V70.38a8.21,8.21,0,0,0-16.41,0" transform="translate(-34.89 -60.69)"/><path class="cls-14" d="M351.4,505.66A25.29,25.29,0,0,0,376.69,531h-316a25.29,25.29,0,0,1-25.29-25.29Z" transform="translate(-34.89 -60.69)"/><g class="cls-15"><g class="cls-16"><path class="cls-14" d="M550.62,632.46S375.73,735.71,375.73,833.54H725.51c0-97.83-174.89-201.08-174.89-201.08" transform="translate(-34.89 -60.69)"/></g></g><g class="cls-15"><g class="cls-17"><path class="cls-14" d="M550.62,755.66s-161.48,40-161.48,77.88h323c0-37.89-161.48-77.88-161.48-77.88" transform="translate(-34.89 -60.69)"/></g></g><g class="cls-18"><g class="cls-19"><path class="cls-6" d="M571.85,661c32.83,32.28,96.66,103.84,96.66,172.56H624.75c0-68.72-34.94-140.28-52.9-172.56" transform="translate(-34.89 -60.69)"/></g></g><g class="cls-15"><g class="cls-20"><path class="cls-14" d="M550.62,632.46S375.73,529.21,375.73,431.38H725.51c0,97.83-174.89,201.08-174.89,201.08" transform="translate(-34.89 -60.69)"/></g></g><g class="cls-15"><g class="cls-21"><path class="cls-14" d="M550.62,623s-89.3-42.89-89.3-83.52h178.6c0,40.63-89.3,83.52-89.3,83.52" transform="translate(-34.89 -60.69)"/></g></g><g class="cls-18"><g class="cls-22"><path class="cls-6" d="M531.55,603.94C498.73,571.67,434.9,500.1,434.9,431.38h43.75c0,68.72,35,140.29,52.9,172.56" transform="translate(-34.89 -60.69)"/></g></g><g class="cls-18"><g class="cls-23"><path class="cls-6" d="M571.85,603.94c32.83-32.27,95.06-112.11,96.66-172.56H656.84c-5.47,73.69-59,141.33-85,172.56" transform="translate(-34.89 -60.69)"/></g></g><path class="cls-14" d="M749.35,457.58H351.89a11.43,11.43,0,0,1-11.4-11.4v-29.6a11.42,11.42,0,0,1,11.4-11.39H749.35a11.42,11.42,0,0,1,11.4,11.39v29.6a11.43,11.43,0,0,1-11.4,11.4" transform="translate(-34.89 -60.69)"/><rect class="cls-24" x="305.6" y="344.49" width="420.26" height="52.4" rx="11.4"/><path class="cls-14" d="M749.35,807.34H351.89a11.43,11.43,0,0,0-11.4,11.4v29.6a11.43,11.43,0,0,0,11.4,11.4H749.35a11.43,11.43,0,0,0,11.4-11.4v-29.6a11.43,11.43,0,0,0-11.4-11.4" transform="translate(-34.89 -60.69)"/><polygon class="cls-25" points="209.06 533.19 192.93 518.87 220.43 476.62 236.56 490.94 209.06 533.19"/><path class="cls-26" d="M231.15,570.48l20.52,14.24a1.59,1.59,0,0,1,.49,2.18l-10.27,16.93a4,4,0,0,1-5.45,1c-7.06-5.08-9.78-7.54-18.33-14.43-5.26-4.24-17.8-14.45-24.27-21.16s.36-12.94,3.7-10.67c7.92,5.38,21.71,11.29,29.68,10.82a6.31,6.31,0,0,1,3.93,1.06" transform="translate(-34.89 -60.69)"/><g class="cls-15"><g class="cls-27"><polygon class="cls-28" points="236.55 490.95 220.41 476.63 207.18 496.98 223.72 510.7 236.55 490.95"/></g></g><path class="cls-26" d="M435.57,340.64S327.3,333.25,313.88,370c-30.53,83.41-70.25,171.92-70.25,171.92l32,23.1s67.48-103.15,88-169.38c41.64,10.11,116.93,18.76,141.19-9.08,20.69-23.75,5.21-45.87,5.21-45.87Z" transform="translate(-34.89 -60.69)"/><g class="cls-18"><g class="cls-29"><path class="cls-28" d="M342.84,405.5c-2.52,10.17-6.35,39.36-8.72,58.71,5.24-10.19,10.26-20.52,14.75-30.61Z" transform="translate(-34.89 -60.69)"/></g></g><polygon class="cls-14" points="238.62 514.73 202.41 486.36 209.81 470.47 250.28 501.38 238.62 514.73"/><path class="cls-14" d="M222.46,569.17a27.67,27.67,0,0,0,5.32,2.72.51.51,0,0,0,.56-.11.53.53,0,0,0,.12-.55c-.3-.81-3-7.93-5.86-8.6a1.93,1.93,0,0,0-1.83.52,2.88,2.88,0,0,0-1.07,2.68,6,6,0,0,0,2.76,3.34m4.58,1.3c-3.72-1.62-6-3.39-6.32-4.83a1.87,1.87,0,0,1,.75-1.73.92.92,0,0,1,.89-.27c1.53.36,3.5,4,4.68,6.83" transform="translate(-34.89 -60.69)"/><path class="cls-14" d="M227.68,571.84a.65.65,0,0,0,.23.09.52.52,0,0,0,.46-.19c.18-.21,4.23-5.18,3.62-8.23a2.59,2.59,0,0,0-1.39-1.85,2,2,0,0,0-2.44.22c-1.8,1.7-1.72,7.4-.66,9.75a.72.72,0,0,0,.18.21m2.64-9.14a1.54,1.54,0,0,1,.65,1c.37,1.82-1.57,4.94-2.82,6.64-.66-2.45-.46-6.6.72-7.72.23-.21.57-.41,1.24,0l.21.12" transform="translate(-34.89 -60.69)"/><polygon class="cls-25" points="351.32 558.16 330.49 562.34 326.64 506.57 347.8 507.24 351.32 558.16"/><path class="cls-26" d="M362.55,615.4l23.74-10a1.63,1.63,0,0,1,2.17.78l9.09,18.29a4.07,4.07,0,0,1-2.11,5.32c-8.33,3.35-12.48,4.53-22.92,8.94-6.42,2.71-23.73,10.58-33.08,12.89-9.14,2.27-11.37-7-7.61-8.81,8.89-4.29,23.64-17.35,27.63-24.55a6.47,6.47,0,0,1,3.09-2.84" transform="translate(-34.89 -60.69)"/><path class="cls-14" d="M356.61,622.25a28.09,28.09,0,0,0,5.31-3.14.5.5,0,0,0,.21-.54.52.52,0,0,0-.41-.41c-.87-.18-8.58-1.75-10.73.36a2,2,0,0,0-.56,1.88,2.94,2.94,0,0,0,1.75,2.41c1.19.48,2.8.13,4.43-.56m3.66-3.28c-3.46,2.35-6.29,3.41-7.7,2.85a1.94,1.94,0,0,1-1.09-1.62,1,1,0,0,1,.25-.92c1.16-1.13,5.43-.83,8.54-.31" transform="translate(-34.89 -60.69)"/><path class="cls-14" d="M361.82,619.17a.43.43,0,0,0,.2-.15.51.51,0,0,0,.1-.5c-.09-.27-2.18-6.55-5.18-7.7a2.67,2.67,0,0,0-2.38.19,2.07,2.07,0,0,0-1.16,2.25c.49,2.51,5.51,5.59,8.14,6a.45.45,0,0,0,.28,0m-6.5-7.34a1.61,1.61,0,0,1,1.24,0c1.79.69,3.43,4.1,4.22,6.13-2.5-.77-6-3.24-6.33-4.89-.06-.31,0-.72.64-1.11l.23-.11" transform="translate(-34.89 -60.69)"/><g class="cls-15"><g class="cls-30"><polygon class="cls-28" points="347.81 507.25 326.63 506.58 328.66 535.7 349.75 535.32 347.81 507.25"/></g></g><path class="cls-26" d="M488.18,340.64s-154.74,14.63-149.11,61.21c8.13,67.18,14.08,184.8,14.08,184.8l39.44,1.55S407.37,484.78,398.73,416c40,0,127,2.11,142.34-18.57,18.17-24.56,9.76-56.77,9.76-56.77Z" transform="translate(-34.89 -60.69)"/><polygon class="cls-14" points="362.06 529.93 314.73 527.59 313.02 506.99 364.93 510.57 362.06 529.93"/><path class="cls-14" d="M453.83,204.27c-.34,4.26-.7,8-1.23,12s-1,7.85-1.63,11.76c-1.17,7.84-2.72,15.63-4.48,23.46s-3.93,15.64-6.65,23.49a124.08,124.08,0,0,1-10.78,23.82,59.23,59.23,0,0,1-9.59,12.09,40.08,40.08,0,0,1-3.06,2.59c-1,.81-2,1.48-3,2.18a64.68,64.68,0,0,1-5.93,3.69,116.59,116.59,0,0,1-23.69,9.7c-3.92,1.19-7.86,2.18-11.79,3.05s-7.86,1.64-11.8,2.26a187,187,0,0,1-23.81,2.38,8.15,8.15,0,0,1-2.85-15.88l.32-.1c13.91-4.62,28.16-9.62,41-15.61a111.66,111.66,0,0,0,17.57-9.95c1.26-.92,2.44-1.84,3.52-2.76.52-.46,1.08-.91,1.52-1.38s1-.94,1.21-1.22a32.31,32.31,0,0,0,4-6.21,101.8,101.8,0,0,0,6.94-18.3c1.92-6.68,3.59-13.65,5-20.75s2.62-14.31,3.79-21.56,2-14.71,2.86-21.61l0-.39a16.33,16.33,0,0,1,32.49,3.23" transform="translate(-34.89 -60.69)"/><path class="cls-25" d="M337,316.65l-11.92.75,9.52,21.9s20.59-.47,20.17-10.61L351,323.85a19.32,19.32,0,0,0-14-7.2" transform="translate(-34.89 -60.69)"/><polygon class="cls-25" points="277.17 258.47 287.45 278.6 299.69 278.6 290.17 256.71 277.17 258.47"/><path class="cls-14" d="M452.12,170.52l23-4.71,18.31-2.65a33.89,33.89,0,0,1,7.92-.35,34.71,34.71,0,0,1,30.33,25.32c4.58,16.65,8.73,37.09,11.91,55.21,4.43,25.15,6.73,63,7.22,97.3H441.72c-2.28-62.21-15.61-102.35-20.1-127.18a34.76,34.76,0,0,1,19.25-37.58Z" transform="translate(-34.89 -60.69)"/><path class="cls-5" d="M441.72,184.2c.26,10.24,2.33,46.73,13.34,67.45,1.95-19.43,25-78.59,25-78.59Z" transform="translate(-34.89 -60.69)"/><g class="cls-18"><g class="cls-31"><path class="cls-26" d="M546.08,260.4h0l-.15-1.14c-.07-.59-.15-1.16-.22-1.73-.12-.93-.24-1.84-.36-2.74s-.23-1.71-.35-2.55-.24-1.64-.36-2.45-.2-1.36-.31-2c-.23-1.51-.48-3-.73-4.43-.78-4.46-1.63-9.07-2.52-13.72,0-.13-.05-.26-.08-.39-.89-4.65-1.83-9.34-2.82-14,0-.1-.05-.21-.07-.31q-.63-3-1.29-5.91c-.16-.74-.33-1.46-.5-2.2-.28-1.26-.58-2.52-.87-3.77-.23-1-.47-2-.7-3l-.15-.61h0c-1-3.91-1.92-7.74-2.92-11.36l-16.54-8.71c1.9,7.32,3.72,15.34,5.43,23.58a24.68,24.68,0,0,0-5.43,3.87c-3.94,3.54-3.81,11,.14,19.9,11.25,25.23,16.8,52.66,18,80.26.49,11.22.8,22.57.94,33.59l16.59,0c-.4-27.27-1.92-56.68-4.75-80.24" transform="translate(-34.89 -60.69)"/></g></g><path class="cls-25" d="M466.56,124.67l-9.34,14.24-12.7,19.42c.87.45,2.81,3.5,3.93,5.74,2.32,4.68,4.24,8.18-5.58,14.87-2.1,1.43-2.17,3.7-1.7,6.2.58,3,2.36,6.22,12.95,4.35,12.28-2.17,20.49-8.65,26.6-14.76,3.53-3.53,2.71-6.19-.69-9.85-9.63-10.35-12.51-26.88-13.47-40.21" transform="translate(-34.89 -60.69)"/><path class="cls-7" d="M444.1,189.84l6.75,4.23,10.94-4.64c-2.67-2.4-5.61-4.42-9.64-5-3.2.93-5.71,3-8,5.38" transform="translate(-34.89 -60.69)"/><path class="cls-6" d="M452.15,184.46c5,2.08,7.54,6.74,9.82,12.13,0,0,24.06-18.25,24.57-30.26-1.3-4.08-7.32-3.37-7.32-3.37s-7.32,12.69-27.07,21.5" transform="translate(-34.89 -60.69)"/><path class="cls-6" d="M452.15,184.46c-5,2.08-7.63,6.54-7.63,11.94,0,0-10.7-12.57-2-22.06,2-1.43,7.46-2.8,7.46-2.8s-2.6,5.22,2.16,12.92" transform="translate(-34.89 -60.69)"/><path class="cls-7" d="M453,192.1h-3.08c-1,1.73-2.37,24-2.91,35.9a106.43,106.43,0,0,0,6.43,20.22,2.53,2.53,0,0,1,.12.23c.16.37.33.75.51,1.1q.5,1.08,1.05,2.1c.52-5.09,2.48-12.94,5.11-21.73C457,216.16,453,192.1,453,192.1" transform="translate(-34.89 -60.69)"/><g class="cls-15"><g class="cls-32"><path class="cls-28" d="M447.65,153.55l7.79-13.83c.16.34.35.74.53,1.14a34.62,34.62,0,0,1,1.67,5.3c1.43,6.15-3.34,14.92-8.59,19.11-.21-.4-.39-.8-.61-1.19a23.39,23.39,0,0,0-3.6-5.52,1.67,1.67,0,0,0-.32-.24Z" transform="translate(-34.89 -60.69)"/></g></g><path class="cls-33" d="M409.62,123.82c-1.88-8.47,11.56-20.13,11.56-20.13l-15.92-5.57c-7.18,5.21-2.52,19.95,4.36,25.7" transform="translate(-34.89 -60.69)"/><path class="cls-25" d="M463.27,99.45c3.75,21.11,7,33.25-.81,46.79-11.76,20.38-39.43,17.94-49.34-1.42-8.92-17.42-13.56-49,4.58-62.89,17.87-13.66,41.82-3.6,45.57,17.52" transform="translate(-34.89 -60.69)"/><path class="cls-26" d="M463.56,120.82l-10-2.74V105.21S440.93,98,442.9,89.15c.87-6,4.06-14.74,4.06-14.74s20-1.29,26.11,1.27c-1.05,1.51-5.15,4.81-5.15,4.81s7.89,5.29,12.14,12.43c-3,.27-6.85,3.31-6.85,3.31s2.64,17.58-9.65,24.59" transform="translate(-34.89 -60.69)"/><path class="cls-26" d="M440.56,60.7c7.35,4.61,3.08,13.08,3.08,13.08l19.69.42c-1.05-6.22-18.11-13.82-22.77-13.5" transform="translate(-34.89 -60.69)"/><path class="cls-26" d="M448.23,93.48c-1.4,4-17.33,8.81-31.87,9.29-9.78.32-21.23-4-21.23-4a24.05,24.05,0,0,1,7.22-5.07c-8.8-2.18-19.92-9.89-23-16.15,7.94-2.82,13.94-2.38,19.79-1.4a21.39,21.39,0,0,1-7.53-14.77s37.2,14.76,51.53,8.64c15.58-6.66,27.4,5.83,17.16,15.36s-12.1,8.09-12.1,8.09" transform="translate(-34.89 -60.69)"/><path class="cls-25" d="M474.64,114.75a19,19,0,0,1-4.26,12.84c-3.87,4.6-9.85.94-11.23-4.8-1.25-5.17.37-13.15,5.44-15.62s9.79,1.78,10.05,7.58" transform="translate(-34.89 -60.69)"/><path class="cls-14" d="M526.62,177.88c2.62,3.23,4.91,6.15,7.24,9.28s4.56,6.21,6.77,9.38c4.43,6.31,8.59,12.84,12.63,19.51s7.8,13.61,11.19,20.95a129.79,129.79,0,0,1,8.68,23.76A63.74,63.74,0,0,1,575,275.33a55.27,55.27,0,0,1-2.11,14.5,96,96,0,0,1-10.27,23.42c-2.05,3.51-4.26,6.86-6.57,10.1s-4.68,6.37-7.18,9.39a162.36,162.36,0,0,1-16.16,17.09,8.15,8.15,0,0,1-12.49-10.19l.21-.35c7.21-12.12,14.34-24.94,19.35-37.47a84.07,84.07,0,0,0,5.32-18.2,32.59,32.59,0,0,0,.32-7.59,35.71,35.71,0,0,0-1.63-7.37,108.59,108.59,0,0,0-7.72-17.6c-3.17-6-6.75-12-10.55-17.93s-7.79-11.83-11.88-17.69l-6.25-8.7c-2.09-2.84-4.28-5.85-6.26-8.44l-.15-.19a16.34,16.34,0,0,1,25.65-20.23" transform="translate(-34.89 -60.69)"/><path class="cls-14" d="M299.9,353.43l202.46-9.17a4.85,4.85,0,0,1,5.05,4.61l-212.12,9.61a4.84,4.84,0,0,1,4.61-5.05" transform="translate(-34.89 -60.69)"/><g class="cls-34"><g class="cls-35"><path class="cls-6" d="M299.9,353.43l202.46-9.17a4.85,4.85,0,0,1,5.05,4.61l-212.12,9.61a4.84,4.84,0,0,1,4.61-5.05" transform="translate(-34.89 -60.69)"/></g></g><path class="cls-14" d="M267.67,259.49l144-6.53a4.47,4.47,0,0,1,4.18,3l27.66,87.76a2.37,2.37,0,0,1-2.2,3.29l-144,6.52a4.46,4.46,0,0,1-4.19-3l-27.65-87.75a2.37,2.37,0,0,1,2.2-3.29" transform="translate(-34.89 -60.69)"/><g class="cls-34"><g class="cls-36"><path class="cls-6" d="M267.67,259.49l144-6.53a4.47,4.47,0,0,1,4.18,3l27.66,87.76a2.37,2.37,0,0,1-2.2,3.29l-144,6.52a4.46,4.46,0,0,1-4.19-3l-27.65-87.75a2.37,2.37,0,0,1,2.2-3.29" transform="translate(-34.89 -60.69)"/></g></g><g class="cls-37"><g class="cls-38"><path class="cls-14" d="M415.89,256l27.66,87.75a2.38,2.38,0,0,1-2.2,3.3L411.71,253a4.47,4.47,0,0,1,4.18,3" transform="translate(-34.89 -60.69)"/></g></g><g class="cls-37"><g class="cls-39"><path class="cls-14" d="M449.12,346.67l53.24-2.41a4.84,4.84,0,0,1,5.05,4.61l-62.9,2.85a4.84,4.84,0,0,1,4.61-5.05" transform="translate(-34.89 -60.69)"/></g></g><path class="cls-25" d="M516.38,338.68l-13.62,2,14,19.38s22.14-3.55,19.58-13.37l-4.66-3.94a19.35,19.35,0,0,0-15.25-4.07" transform="translate(-34.89 -60.69)"/><polygon class="cls-25" points="451.22 285.78 468.28 300.66 481.81 299.37 467.87 279.98 451.22 285.78"/></g></g></svg>