<?xml version="1.0"?>
<svg xmlns="http://www.w3.org/2000/svg" viewBox="0 0 64 64" width="512px" height="512px"><g><g id="Working_hour" data-name="Working hour"><path d="M59,13H56V11a2,2,0,0,0-2-2H52a2,2,0,0,0-2,2v2H46V7a5.006,5.006,0,0,0-5-5H27a5.006,5.006,0,0,0-5,5v6H18V11a2,2,0,0,0-2-2H14a2,2,0,0,0-2,2v2H9a3,3,0,0,0-3,3V34.411A15.987,15.987,0,1,0,32.189,51H59a3,3,0,0,0,3-3V16A3,3,0,0,0,59,13Zm-7-2h2v2H52ZM24,7a3,3,0,0,1,3-3H41a3,3,0,0,1,3,3v6H43V7a2,2,0,0,0-2-2H27a2,2,0,0,0-2,2v6H24ZM41,7v6H27V7ZM14,11h2v2H14Zm3,49A14,14,0,1,1,31,46,14.015,14.015,0,0,1,17,60ZM60,48a1,1,0,0,1-1,1H32.708A15.984,15.984,0,0,0,8,32.782v-10.7l8.375,6.7A1,1,0,0,0,17,29H31v4a2,2,0,0,0,2,2h2a2,2,0,0,0,2-2V29H51a1,1,0,0,0,.625-.219L60,22.081ZM35,29v4H33V29Zm-2-2V25h2v2Zm27-7.48L50.649,27H37V25a2,2,0,0,0-2-2H33a2,2,0,0,0-2,2v2H17.351L8,19.52V16a1,1,0,0,1,1-1H59a1,1,0,0,1,1,1Z" data-original="#000000" class="active-path" data-old_color="#000000" fill="#005076"/><path d="M17,34A12,12,0,1,0,29,46,12.013,12.013,0,0,0,17,34Zm5.834,20.1-.468-.811a1,1,0,1,0-1.732,1l.47.815a9.875,9.875,0,0,1-3.1.84V55a1,1,0,0,0-2,0v.949a9.9,9.9,0,0,1-3.1-.84l.47-.815a1,1,0,0,0-1.732-1l-.468.811A10.07,10.07,0,0,1,8.9,51.834l.811-.468a1,1,0,1,0-1-1.732l-.815.47a9.9,9.9,0,0,1-.84-3.1H8a1,1,0,0,0,0-2H7.051a9.9,9.9,0,0,1,.84-3.1l.815.47a1,1,0,1,0,1-1.732L8.9,40.166A10.07,10.07,0,0,1,11.166,37.9l.468.811a1,1,0,1,0,1.732-1l-.47-.815a9.9,9.9,0,0,1,3.1-.84V37a1,1,0,0,0,2,0v-.949a9.875,9.875,0,0,1,3.1.84l-.47.815a1,1,0,1,0,1.732,1l.468-.811a10.07,10.07,0,0,1,2.271,2.271l-.811.468a1,1,0,1,0,1,1.732l.815-.47a9.894,9.894,0,0,1,.84,3.1H26a1,1,0,0,0,0,2h.949a9.894,9.894,0,0,1-.84,3.1l-.815-.47a1,1,0,0,0-1,1.732l.811.468A10.07,10.07,0,0,1,22.834,54.105Z" data-original="#000000" class="active-path" data-old_color="#000000" fill="#005076"/><path d="M18,44.278V40a1,1,0,0,0-2,0v4.278A1.993,1.993,0,0,0,15,46l-1.964,1.134a1,1,0,1,0,1,1.732l1.973-1.139A1.979,1.979,0,0,0,17,48a1.994,1.994,0,0,0,1-3.722Z" data-original="#000000" class="active-path" data-old_color="#000000" fill="#005076"/></g></g> </svg>
